<?xml version="1.0" standalone="no"?>
<!DOCTYPE svg PUBLIC "-//W3C//DTD SVG 20010904//EN"
 "http://www.w3.org/TR/2001/REC-SVG-20010904/DTD/svg10.dtd">
<svg version="1.0" xmlns="http://www.w3.org/2000/svg"
 width="1081.000000pt" height="1081.000000pt" viewBox="0 0 1081.000000 1081.000000"
 preserveAspectRatio="xMidYMid meet">
<metadata>
Created by potrace 1.11, written by Peter Selinger 2001-2013
</metadata>
<g transform="translate(0.000000,1081.000000) scale(0.100000,-0.100000)"
fill="#000000" stroke="none">
<path d="M5265 8869 l0 -1372 -35 -2 c-55 -4 -180 -21 -235 -31 -11 -2 -33 -7
-50 -9 -53 -10 -217 -56 -300 -85 -468 -163 -893 -499 -1168 -922 -31 -48 -57
-90 -57 -93 0 -2 -13 -27 -30 -53 -90 -147 -214 -499 -244 -692 -3 -19 -7 -44
-10 -55 -5 -26 -18 -142 -20 -180 l-1 -30 -1375 -2 c-756 -1 -1390 -2 -1407
-2 l-33 -1 0 -140 0 -140 1406 -2 1407 -3 3 -30 c2 -16 6 -59 9 -94 3 -35 7
-67 9 -70 2 -3 7 -28 10 -56 20 -151 98 -397 184 -580 227 -481 604 -862 1077
-1090 152 -73 142 -69 260 -109 146 -50 287 -84 425 -102 25 -3 56 -8 70 -11
14 -2 111 -6 215 -7 551 -9 1054 165 1481 510 142 115 320 302 404 424 13 19
27 37 30 40 25 20 149 234 202 348 54 115 121 300 143 392 33 142 34 146 50
245 5 32 18 162 18 183 0 9 289 12 1409 12 l1408 0 0 140 c0 126 -2 140 -17
141 -10 0 -643 1 -1406 1 -1008 1 -1390 4 -1392 12 -2 6 -6 45 -10 86 -19 243
-107 544 -229 788 -244 491 -688 903 -1188 1103 -76 30 -248 88 -248 84 0 -3
-12 0 -27 6 -16 6 -37 13 -48 15 -17 3 -69 15 -85 19 -3 1 -27 5 -55 10 -27 4
-59 9 -70 11 -11 2 -49 7 -85 10 -36 4 -72 8 -80 10 -8 1 -18 3 -22 3 -5 1 -8
618 -8 1371 l0 1370 -142 0 -143 0 0 -1371z m366 -1662 c251 -33 439 -88 654
-192 576 -278 978 -801 1104 -1433 48 -241 48 -537 0 -767 -6 -27 -13 -61 -15
-75 -19 -98 -105 -333 -164 -445 -63 -119 -100 -183 -115 -195 -8 -7 -15 -17
-15 -22 0 -26 -164 -222 -280 -334 -183 -177 -394 -313 -635 -411 -301 -123
-609 -168 -947 -140 -77 7 -125 15 -283 47 -22 5 -85 23 -140 40 -614 197
-1108 690 -1306 1305 -22 67 -49 167 -55 205 -3 14 -9 50 -15 80 -17 97 -24
192 -24 335 1 171 9 261 37 395 6 30 12 60 14 66 1 7 14 53 28 103 135 468
460 891 886 1154 155 95 451 218 577 241 15 2 64 12 108 20 44 9 109 19 145
22 36 4 66 8 68 9 5 4 334 -3 373 -8z"/>
<path d="M5330 1409 c-132 -21 -260 -112 -324 -230 -100 -182 -62 -417 89
-557 61 -57 150 -104 220 -118 134 -26 303 20 404 110 48 43 101 127 125 198
45 131 24 290 -52 400 -104 151 -281 227 -462 197z"/>
</g>
</svg>
