<svg id="Layer_1" data-name="Layer 1" xmlns="http://www.w3.org/2000/svg" viewBox="0 0 300 300"><defs><style>.cls-1{fill:lime;}</style></defs><title>Artboard 29</title><path class="cls-1" d="M50.06,253.64a2.06,2.06,0,0,0-.53.83,2,2,0,0,0-.07.9,2.74,2.74,0,0,0,.31.89,3.5,3.5,0,0,0,.61.81,3.16,3.16,0,0,0,.71.54,2.58,2.58,0,0,0,.77.28,1.71,1.71,0,0,0,.76,0,1.48,1.48,0,0,0,.67-.4l.07-.07a1.54,1.54,0,0,0,.42-.7,1.63,1.63,0,0,0,0-.8,3.56,3.56,0,0,0-.39-.93,11.4,11.4,0,0,0-.74-1.11,4.92,4.92,0,0,1-1.1-2.56,2.63,2.63,0,0,1,.85-2l.14-.14a3.43,3.43,0,0,1,1.11-.76,2.78,2.78,0,0,1,1.25-.21,3.43,3.43,0,0,1,1.33.38,5.26,5.26,0,0,1,1.35,1,5.33,5.33,0,0,1,1.12,1.56A3.83,3.83,0,0,1,59,252.7a3.7,3.7,0,0,1-.32,1.51,4.46,4.46,0,0,1-.94,1.35l-.34.34-1-1,.27-.27a2.84,2.84,0,0,0,1-2.13,3.22,3.22,0,0,0-1.07-2.11A2.78,2.78,0,0,0,55,249.5a1.85,1.85,0,0,0-1.48.59l-.07.07a1.55,1.55,0,0,0-.49,1.41,4.93,4.93,0,0,0,1,2,8,8,0,0,1,.84,1.32,3.9,3.9,0,0,1,.39,1.25,2.55,2.55,0,0,1-.12,1.16,2.83,2.83,0,0,1-.7,1.06l-.14.14a2.64,2.64,0,0,1-1,.66,2.87,2.87,0,0,1-1.2.13,3.48,3.48,0,0,1-1.26-.39,5.34,5.34,0,0,1-2.21-2.29,3.85,3.85,0,0,1-.37-1.4,3,3,0,0,1,.21-1.31,3.24,3.24,0,0,1,.72-1.1l.48-.48,1,1Z"/><path class="cls-1" d="M45.12,253.27l-4.8-4.8.88-.88,3.85,3.85,2.62-2.62L43.9,245l.88-.88,3.78,3.78,2.65-2.65-3.91-3.91.88-.88L53,245.35Z"/><path class="cls-1" d="M152.19,15.62h.19V5h1.34V16.2H151L147.81,5.58h-.19V16.2h-1.34V5H149Z"/><path class="cls-1" d="M243.65,52.73l.14.14,7.51-7.51,1,1-7.92,7.92-1.9-1.9,5.23-9.8-.14-.14L240,49.9l-1-1L247,41l1.9,1.9Z"/><path class="cls-1" d="M254.14,48.19l4.8,4.8-.88.88L254.21,50l-2.62,2.62,3.78,3.78-.88.88-3.78-3.78-2.65,2.65L252,60.09l-.88.88-4.86-4.86Z"/><path class="cls-1" d="M50.51,253.64a2.06,2.06,0,0,0-.53.83,2,2,0,0,0-.07.9,2.74,2.74,0,0,0,.31.89,3.5,3.5,0,0,0,.61.81,3.16,3.16,0,0,0,.71.54,2.58,2.58,0,0,0,.77.28,1.71,1.71,0,0,0,.76,0,1.48,1.48,0,0,0,.67-.4l.07-.07a1.54,1.54,0,0,0,.42-.7,1.63,1.63,0,0,0,0-.8,3.56,3.56,0,0,0-.39-.93,11.4,11.4,0,0,0-.74-1.11,4.92,4.92,0,0,1-1.1-2.56,2.63,2.63,0,0,1,.85-2l.14-.14a3.43,3.43,0,0,1,1.11-.76,2.78,2.78,0,0,1,1.25-.21,3.43,3.43,0,0,1,1.33.38,5.26,5.26,0,0,1,1.35,1,5.33,5.33,0,0,1,1.12,1.56,3.83,3.83,0,0,1,.36,1.58,3.7,3.7,0,0,1-.32,1.51,4.46,4.46,0,0,1-.94,1.35l-.34.34-1-1,.27-.27a2.84,2.84,0,0,0,1-2.13,3.22,3.22,0,0,0-1.07-2.11,2.78,2.78,0,0,0-1.72-.94,1.85,1.85,0,0,0-1.48.59l-.07.07a1.55,1.55,0,0,0-.49,1.41,4.93,4.93,0,0,0,1,2,8,8,0,0,1,.84,1.32,3.9,3.9,0,0,1,.39,1.25,2.55,2.55,0,0,1-.12,1.16,2.83,2.83,0,0,1-.7,1.06l-.14.14a2.64,2.64,0,0,1-1,.66,2.87,2.87,0,0,1-1.2.13,3.48,3.48,0,0,1-1.26-.39,5.34,5.34,0,0,1-2.21-2.29,3.85,3.85,0,0,1-.37-1.4,3,3,0,0,1,.21-1.31,3.24,3.24,0,0,1,.72-1.1l.48-.48,1,1Z"/><path class="cls-1" d="M45.56,253.27l-4.8-4.8.88-.88,3.85,3.85,2.62-2.62L44.34,245l.88-.88L49,247.93l2.65-2.65-3.91-3.91.88-.88,4.86,4.86Z"/><path class="cls-1" d="M52.41,56l.14-.14L45,48.34l1-1,7.92,7.92L52,57.21,42.2,52l-.14.14,7.51,7.51-1,1-7.92-7.92,1.9-1.9Z"/><path class="cls-1" d="M60.72,48.49,59,50.22l-8.25-6.78-.14.14,6.78,8.25-1.73,1.73-8.72-7.12.86-.86,8.27,6.75.14-.14L49.4,44l1.74-1.74L59.36,49l.14-.14-6.75-8.27.86-.86Z"/><path class="cls-1" d="M252.64,248a2.06,2.06,0,0,0,.83.53,2,2,0,0,0,.9.07,2.74,2.74,0,0,0,.89-.31,3.5,3.5,0,0,0,.81-.61,3.16,3.16,0,0,0,.54-.71,2.58,2.58,0,0,0,.28-.77,1.71,1.71,0,0,0,0-.76,1.48,1.48,0,0,0-.4-.67l-.07-.07a1.54,1.54,0,0,0-.7-.42,1.63,1.63,0,0,0-.8,0,3.56,3.56,0,0,0-.93.39,11.4,11.4,0,0,0-1.11.74,4.92,4.92,0,0,1-2.56,1.1,2.63,2.63,0,0,1-2-.85l-.14-.14a3.43,3.43,0,0,1-.76-1.11,2.78,2.78,0,0,1-.21-1.25,3.43,3.43,0,0,1,.38-1.33,5.26,5.26,0,0,1,1-1.35,5.33,5.33,0,0,1,1.56-1.12,3.83,3.83,0,0,1,1.58-.36,3.7,3.7,0,0,1,1.51.32,4.46,4.46,0,0,1,1.35.94l.34.34-1,1-.27-.27a2.84,2.84,0,0,0-2.13-1,3.22,3.22,0,0,0-2.11,1.07,2.78,2.78,0,0,0-.94,1.72,1.85,1.85,0,0,0,.59,1.48l.07.07a1.55,1.55,0,0,0,1.41.49,4.93,4.93,0,0,0,2-1,8,8,0,0,1,1.32-.84,3.9,3.9,0,0,1,1.25-.39,2.55,2.55,0,0,1,1.16.12,2.83,2.83,0,0,1,1.06.7l.14.14a2.64,2.64,0,0,1,.66,1,2.87,2.87,0,0,1,.13,1.2,3.48,3.48,0,0,1-.39,1.26,5.34,5.34,0,0,1-2.29,2.21,3.85,3.85,0,0,1-1.4.37,3,3,0,0,1-1.31-.21,3.24,3.24,0,0,1-1.1-.72l-.48-.48,1-1Z"/><path class="cls-1" d="M239.41,249.94l1.73-1.73,8.25,6.78.14-.14-6.78-8.25,1.73-1.73L253.2,252l-.86.86-8.27-6.75-.14.14,6.8,8.23L249,256.2l-8.23-6.8-.14.14,6.75,8.27-.86.86Z"/><path class="cls-1" d="M147.31,291.54a2.06,2.06,0,0,0,.22,1,2,2,0,0,0,.58.69,2.74,2.74,0,0,0,.85.42,3.5,3.5,0,0,0,1,.14,3.16,3.16,0,0,0,.88-.12,2.58,2.58,0,0,0,.74-.34,1.71,1.71,0,0,0,.52-.55,1.48,1.48,0,0,0,.19-.76v-.1a1.54,1.54,0,0,0-.19-.79,1.63,1.63,0,0,0-.57-.56,3.56,3.56,0,0,0-.94-.38,11.4,11.4,0,0,0-1.31-.26,4.92,4.92,0,0,1-2.59-1,2.63,2.63,0,0,1-.83-2v-.19a3.43,3.43,0,0,1,.25-1.32,2.78,2.78,0,0,1,.74-1,3.43,3.43,0,0,1,1.21-.67,5.26,5.26,0,0,1,1.66-.24,5.33,5.33,0,0,1,1.9.31,3.83,3.83,0,0,1,1.38.86,3.7,3.7,0,0,1,.84,1.3,4.46,4.46,0,0,1,.29,1.62v.48h-1.34v-.38a2.84,2.84,0,0,0-.81-2.21,3.22,3.22,0,0,0-2.25-.74,2.78,2.78,0,0,0-1.88.55,1.85,1.85,0,0,0-.63,1.46v.1a1.55,1.55,0,0,0,.65,1.34,4.93,4.93,0,0,0,2.1.67,8,8,0,0,1,1.53.34,3.9,3.9,0,0,1,1.16.61,2.55,2.55,0,0,1,.74.9,2.83,2.83,0,0,1,.26,1.25V292a2.64,2.64,0,0,1-.27,1.2,2.87,2.87,0,0,1-.76.94,3.48,3.48,0,0,1-1.17.62,5.34,5.34,0,0,1-3.18-.06A3.85,3.85,0,0,1,147,294a3,3,0,0,1-.78-1.07,3.24,3.24,0,0,1-.26-1.29V291h1.34Z"/><path class="cls-1" d="M295,146.56v6.78h-1.25V147.9H290v5.34h-1.25V147.9H285v5.54H283.8v-6.88Z"/><path class="cls-1" d="M16.2,146.42v2.45l-10.62,1v.19l10.62,1v2.45L5,154.72V153.5l10.62-1.07v-.19L5,151.23v-2.46l10.62-1v-.19L5,146.5v-1.22Z"/><rect class="cls-1" x="148.53" y="21.75" width="2.9" height="19.33"/><rect class="cls-1" x="129.98" y="23.21" width="2.9" height="19.33" transform="translate(-3.52 20.97) rotate(-9)"/><rect class="cls-1" x="139.23" y="22.12" width="2.9" height="19.33" transform="translate(-2.06 11.14) rotate(-4.5)"/><rect class="cls-1" x="120.85" y="25.03" width="2.9" height="19.33" transform="translate(-4.72 29.51) rotate(-13.5)"/><rect class="cls-1" x="111.89" y="27.55" width="2.9" height="19.33" transform="translate(-5.95 36.85) rotate(-18)"/><rect class="cls-1" x="103.16" y="30.78" width="2.9" height="19.33" transform="translate(-7.51 43.11) rotate(-22.5)"/><rect class="cls-1" x="94.7" y="34.67" width="2.9" height="19.33" transform="translate(-9.65 48.48) rotate(-27)"/><rect class="cls-1" x="86.58" y="39.22" width="2.9" height="19.33" transform="translate(-12.57 53.2) rotate(-31.5)"/><rect class="cls-1" x="78.84" y="44.4" width="2.9" height="19.33" transform="translate(-16.44 57.52) rotate(-36)"/><rect class="cls-1" x="71.52" y="50.16" width="2.9" height="19.33" transform="translate(-21.37 61.73) rotate(-40.5)"/><rect class="cls-1" x="64.69" y="56.48" width="2.9" height="19.33" transform="translate(-27.4 66.14) rotate(-45)"/><rect class="cls-1" x="58.37" y="63.32" width="2.9" height="19.33" transform="translate(-34.53 71.07) rotate(-49.5)"/><rect class="cls-1" x="52.6" y="70.63" width="2.9" height="19.33" transform="translate(-42.68 76.83) rotate(-54)"/><rect class="cls-1" x="47.43" y="78.37" width="2.9" height="19.33" transform="translate(-51.73 83.71) rotate(-58.5)"/><rect class="cls-1" x="42.88" y="86.5" width="2.9" height="19.33" transform="translate(-61.48 92) rotate(-63)"/><rect class="cls-1" x="38.98" y="94.95" width="2.9" height="19.33" transform="translate(-71.7 101.94) rotate(-67.5)"/><rect class="cls-1" x="35.76" y="103.69" width="2.9" height="19.33" transform="translate(-82.1 113.71) rotate(-72)"/><rect class="cls-1" x="33.23" y="112.65" width="2.9" height="19.33" transform="translate(-92.35 127.48) rotate(-76.5)"/><rect class="cls-1" x="31.41" y="121.78" width="2.9" height="19.33" transform="translate(-102.11 143.34) rotate(-81)"/><rect class="cls-1" x="30.32" y="131.03" width="2.9" height="19.33" transform="translate(-110.98 161.33) rotate(-85.5)"/><rect class="cls-1" x="29.95" y="140.33" width="2.9" height="19.33" transform="translate(-118.59 181.4) rotate(-90)"/><rect class="cls-1" x="31.13" y="158.74" width="2.9" height="19.33" transform="translate(-128.65 226.93) rotate(-99)"/><rect class="cls-1" x="30.04" y="149.49" width="2.9" height="19.33" transform="translate(-124.71 203.04) rotate(-94.5)"/><rect class="cls-1" x="32.95" y="167.87" width="2.9" height="19.33" transform="translate(-130.2 252.43) rotate(-103.5)"/><rect class="cls-1" x="35.48" y="176.83" width="2.9" height="19.33" transform="translate(-129.03 279.25) rotate(-108)"/><rect class="cls-1" x="38.7" y="185.57" width="2.9" height="19.33" transform="translate(-124.86 307.04) rotate(-112.5)"/><rect class="cls-1" x="42.6" y="194.02" width="2.9" height="19.33" transform="translate(-117.44 335.41) rotate(-117)"/><rect class="cls-1" x="47.15" y="202.15" width="2.9" height="19.33" transform="translate(-106.61 363.92) rotate(-121.5)"/><rect class="cls-1" x="52.32" y="209.89" width="2.9" height="19.33" transform="translate(-92.25 392.11) rotate(-126)"/><rect class="cls-1" x="58.08" y="217.2" width="2.9" height="19.33" transform="translate(-74.31 419.47) rotate(-130.5)"/><rect class="cls-1" x="64.4" y="224.04" width="2.9" height="19.33" transform="translate(-52.83 445.52) rotate(-135)"/><rect class="cls-1" x="71.24" y="230.36" width="2.9" height="19.33" transform="translate(-27.92 469.75) rotate(-139.5)"/><rect class="cls-1" x="78.55" y="236.12" width="2.9" height="19.33" transform="translate(0.26 491.66) rotate(-144)"/><rect class="cls-1" x="86.3" y="241.29" width="2.9" height="19.33" transform="translate(31.43 510.79) rotate(-148.5)"/><rect class="cls-1" x="94.42" y="245.84" width="2.9" height="19.33" transform="translate(65.29 526.7) rotate(-153)"/><rect class="cls-1" x="102.87" y="249.74" width="2.9" height="19.33" transform="translate(101.44 538.99) rotate(-157.5)"/><rect class="cls-1" x="111.61" y="252.96" width="2.9" height="19.33" transform="translate(139.43 547.35) rotate(-162)"/><rect class="cls-1" x="120.57" y="255.49" width="2.9" height="19.33" transform="translate(178.77 551.48) rotate(-166.5)"/><rect class="cls-1" x="129.7" y="257.31" width="2.9" height="19.33" transform="translate(218.93 551.18) rotate(-171)"/><rect class="cls-1" x="138.95" y="258.4" width="2.9" height="19.33" transform="translate(259.33 546.33) rotate(-175.5)"/><rect class="cls-1" x="148.25" y="258.77" width="2.9" height="19.33" transform="translate(299.41 536.87) rotate(-180)"/><rect class="cls-1" x="166.22" y="257.38" width="2.9" height="19.33" transform="translate(375.04 504.58) rotate(171)"/><rect class="cls-1" x="156.97" y="258.47" width="2.9" height="19.33" transform="translate(337.39 523.03) rotate(175.5)"/><rect class="cls-1" x="175.35" y="255.56" width="2.9" height="19.33" transform="translate(410.63 481.86) rotate(166.5)"/><rect class="cls-1" x="184.31" y="253.04" width="2.9" height="19.33" transform="translate(443.61 455.15) rotate(162)"/><rect class="cls-1" x="193.04" y="249.81" width="2.9" height="19.33" transform="translate(473.48 424.78) rotate(157.5)"/><rect class="cls-1" x="201.5" y="245.92" width="2.9" height="19.33" transform="translate(499.81 391.17) rotate(153)"/><rect class="cls-1" x="209.62" y="241.37" width="2.9" height="19.33" transform="matrix(-0.85, 0.52, -0.52, -0.85, 522.21, 354.79)"/><rect class="cls-1" x="217.37" y="236.19" width="2.9" height="19.33" transform="translate(540.35 316.15) rotate(144)"/><rect class="cls-1" x="224.68" y="230.43" width="2.9" height="19.33" transform="translate(554.01 275.81) rotate(139.5)"/><rect class="cls-1" x="231.51" y="224.11" width="2.9" height="19.33" transform="translate(563 234.35) rotate(135)"/><rect class="cls-1" x="237.83" y="217.27" width="2.9" height="19.33" transform="translate(567.25 192.37) rotate(130.5)"/><rect class="cls-1" x="243.6" y="209.96" width="2.9" height="19.33" transform="translate(566.77 150.47) rotate(126)"/><rect class="cls-1" x="248.77" y="202.22" width="2.9" height="19.33" transform="translate(561.62 109.24) rotate(121.5)"/><rect class="cls-1" x="253.32" y="194.09" width="2.9" height="19.33" transform="translate(551.99 69.26) rotate(117)"/><rect class="cls-1" x="257.22" y="185.64" width="2.9" height="19.33" transform="translate(538.1 31.07) rotate(112.5)"/><rect class="cls-1" x="260.44" y="176.9" width="2.9" height="19.33" transform="translate(520.26 -4.85) rotate(108)"/><rect class="cls-1" x="262.97" y="167.94" width="2.9" height="19.33" transform="translate(498.85 -38.04) rotate(103.5)"/><rect class="cls-1" x="264.79" y="158.81" width="2.9" height="19.33" transform="translate(474.29 -68.13) rotate(99)"/><rect class="cls-1" x="265.88" y="149.56" width="2.9" height="19.33" transform="translate(447.04 -94.78) rotate(94.5)"/><rect class="cls-1" x="266.25" y="140.26" width="2.9" height="19.33" transform="translate(417.62 -117.77) rotate(90)"/><rect class="cls-1" x="265.07" y="121.85" width="2.9" height="19.33" transform="translate(354.73 -152.29) rotate(81)"/><rect class="cls-1" x="266.16" y="131.1" width="2.9" height="19.33" transform="translate(386.95 -137.07) rotate(85.5)"/><rect class="cls-1" x="263.25" y="112.72" width="2.9" height="19.33" transform="translate(321.91 -163.57) rotate(76.5)"/><rect class="cls-1" x="260.72" y="103.76" width="2.9" height="19.33" transform="translate(289.03 -170.97) rotate(72)"/><rect class="cls-1" x="257.5" y="95.02" width="2.9" height="19.33" transform="translate(256.58 -174.61) rotate(67.5)"/><rect class="cls-1" x="253.6" y="86.57" width="2.9" height="19.33" transform="translate(225.01 -174.71) rotate(63)"/><rect class="cls-1" x="249.05" y="78.44" width="2.9" height="19.33" transform="translate(194.74 -171.52) rotate(58.5)"/><rect class="cls-1" x="243.88" y="70.7" width="2.9" height="19.33" transform="matrix(0.59, 0.81, -0.81, 0.59, 166.15, -165.35)"/><rect class="cls-1" x="238.12" y="63.39" width="2.9" height="19.33" transform="translate(139.53 -156.56) rotate(49.5)"/><rect class="cls-1" x="231.8" y="56.55" width="2.9" height="19.33" transform="translate(115.14 -145.53) rotate(45)"/><rect class="cls-1" x="224.96" y="50.23" width="2.9" height="19.33" transform="translate(93.15 -132.69) rotate(40.5)"/><rect class="cls-1" x="217.65" y="44.47" width="2.9" height="19.33" transform="translate(73.66 -118.44) rotate(36)"/><rect class="cls-1" x="209.91" y="39.3" width="2.9" height="19.33" transform="translate(56.73 -103.22) rotate(31.5)"/><rect class="cls-1" x="201.78" y="34.75" width="2.9" height="19.33" transform="translate(42.31 -87.42) rotate(27)"/><rect class="cls-1" x="193.33" y="30.85" width="2.9" height="19.33" transform="translate(30.33 -71.45) rotate(22.5)"/><rect class="cls-1" x="184.59" y="27.63" width="2.9" height="19.33" transform="translate(20.63 -55.66) rotate(18)"/><rect class="cls-1" x="175.63" y="25.1" width="2.9" height="19.33" transform="translate(13.01 -40.38) rotate(13.5)"/><rect class="cls-1" x="166.5" y="23.28" width="2.9" height="19.33" transform="translate(7.22 -25.87) rotate(9)"/><rect class="cls-1" x="157.25" y="22.19" width="2.9" height="19.33" transform="translate(2.99 -12.35) rotate(4.5)"/></svg>