<svg id="Layer_1" data-name="Layer 1" xmlns="http://www.w3.org/2000/svg" viewBox="0 0 110 2819"><defs><style>.cls-1{fill:none;stroke:lime;stroke-miterlimit:10;stroke-width:3px;}</style></defs><title>Artboard 2 copy 3</title><line class="cls-1" x1="10.5" y1="9.5" x2="100.5" y2="9.5"/><line class="cls-1" x1="11" y1="109.5" x2="101" y2="109.5"/><line class="cls-1" x1="34" y1="59.5" x2="100.5" y2="59.5"/><line class="cls-1" x1="55.5" y1="19.5" x2="100.5" y2="19.5"/><line class="cls-1" x1="55.5" y1="29.5" x2="100.5" y2="29.5"/><line class="cls-1" x1="55.5" y1="39.5" x2="100.5" y2="39.5"/><line class="cls-1" x1="55.5" y1="49.5" x2="100.5" y2="49.5"/><line class="cls-1" x1="56" y1="69.5" x2="101" y2="69.5"/><line class="cls-1" x1="56" y1="79.5" x2="101" y2="79.5"/><line class="cls-1" x1="56" y1="89.5" x2="101" y2="89.5"/><line class="cls-1" x1="56" y1="99.5" x2="101" y2="99.5"/><line class="cls-1" x1="11" y1="209.5" x2="101" y2="209.5"/><line class="cls-1" x1="34" y1="159.5" x2="100.5" y2="159.5"/><line class="cls-1" x1="55.5" y1="119.5" x2="100.5" y2="119.5"/><line class="cls-1" x1="55.5" y1="129.5" x2="100.5" y2="129.5"/><line class="cls-1" x1="55.5" y1="139.5" x2="100.5" y2="139.5"/><line class="cls-1" x1="55.5" y1="149.5" x2="100.5" y2="149.5"/><line class="cls-1" x1="56" y1="169.5" x2="101" y2="169.5"/><line class="cls-1" x1="56" y1="179.5" x2="101" y2="179.5"/><line class="cls-1" x1="56" y1="189.5" x2="101" y2="189.5"/><line class="cls-1" x1="56" y1="199.5" x2="101" y2="199.5"/><line class="cls-1" x1="11" y1="309.5" x2="101" y2="309.5"/><line class="cls-1" x1="34" y1="259.5" x2="100.5" y2="259.5"/><line class="cls-1" x1="55.5" y1="219.5" x2="100.5" y2="219.5"/><line class="cls-1" x1="55.5" y1="229.5" x2="100.5" y2="229.5"/><line class="cls-1" x1="55.5" y1="239.5" x2="100.5" y2="239.5"/><line class="cls-1" x1="55.5" y1="249.5" x2="100.5" y2="249.5"/><line class="cls-1" x1="56" y1="269.5" x2="101" y2="269.5"/><line class="cls-1" x1="56" y1="279.5" x2="101" y2="279.5"/><line class="cls-1" x1="56" y1="289.5" x2="101" y2="289.5"/><line class="cls-1" x1="56" y1="299.5" x2="101" y2="299.5"/><line class="cls-1" x1="11" y1="409.5" x2="101" y2="409.5"/><line class="cls-1" x1="34" y1="359.5" x2="100.5" y2="359.5"/><line class="cls-1" x1="55.5" y1="319.5" x2="100.5" y2="319.5"/><line class="cls-1" x1="55.5" y1="329.5" x2="100.5" y2="329.5"/><line class="cls-1" x1="55.5" y1="339.5" x2="100.5" y2="339.5"/><line class="cls-1" x1="55.5" y1="349.5" x2="100.5" y2="349.5"/><line class="cls-1" x1="56" y1="369.5" x2="101" y2="369.5"/><line class="cls-1" x1="56" y1="379.5" x2="101" y2="379.5"/><line class="cls-1" x1="56" y1="389.5" x2="101" y2="389.5"/><line class="cls-1" x1="56" y1="399.5" x2="101" y2="399.5"/><line class="cls-1" x1="11" y1="509.5" x2="101" y2="509.5"/><line class="cls-1" x1="34" y1="459.5" x2="100.5" y2="459.5"/><line class="cls-1" x1="55.5" y1="419.5" x2="100.5" y2="419.5"/><line class="cls-1" x1="55.5" y1="429.5" x2="100.5" y2="429.5"/><line class="cls-1" x1="55.5" y1="439.5" x2="100.5" y2="439.5"/><line class="cls-1" x1="55.5" y1="449.5" x2="100.5" y2="449.5"/><line class="cls-1" x1="56" y1="469.5" x2="101" y2="469.5"/><line class="cls-1" x1="56" y1="479.5" x2="101" y2="479.5"/><line class="cls-1" x1="56" y1="489.5" x2="101" y2="489.5"/><line class="cls-1" x1="56" y1="499.5" x2="101" y2="499.5"/><line class="cls-1" x1="11" y1="609.5" x2="101" y2="609.5"/><line class="cls-1" x1="34" y1="559.5" x2="100.5" y2="559.5"/><line class="cls-1" x1="55.5" y1="519.5" x2="100.5" y2="519.5"/><line class="cls-1" x1="55.5" y1="529.5" x2="100.5" y2="529.5"/><line class="cls-1" x1="55.5" y1="539.5" x2="100.5" y2="539.5"/><line class="cls-1" x1="55.5" y1="549.5" x2="100.5" y2="549.5"/><line class="cls-1" x1="56" y1="569.5" x2="101" y2="569.5"/><line class="cls-1" x1="56" y1="579.5" x2="101" y2="579.5"/><line class="cls-1" x1="56" y1="589.5" x2="101" y2="589.5"/><line class="cls-1" x1="56" y1="599.5" x2="101" y2="599.5"/><line class="cls-1" x1="11" y1="709.5" x2="101" y2="709.5"/><line class="cls-1" x1="34" y1="659.5" x2="100.5" y2="659.5"/><line class="cls-1" x1="55.5" y1="619.5" x2="100.5" y2="619.5"/><line class="cls-1" x1="55.5" y1="629.5" x2="100.5" y2="629.5"/><line class="cls-1" x1="55.5" y1="639.5" x2="100.5" y2="639.5"/><line class="cls-1" x1="55.5" y1="649.5" x2="100.5" y2="649.5"/><line class="cls-1" x1="56" y1="669.5" x2="101" y2="669.5"/><line class="cls-1" x1="56" y1="679.5" x2="101" y2="679.5"/><line class="cls-1" x1="56" y1="689.5" x2="101" y2="689.5"/><line class="cls-1" x1="56" y1="699.5" x2="101" y2="699.5"/><line class="cls-1" x1="11" y1="809.5" x2="101" y2="809.5"/><line class="cls-1" x1="34" y1="759.5" x2="100.5" y2="759.5"/><line class="cls-1" x1="55.5" y1="719.5" x2="100.5" y2="719.5"/><line class="cls-1" x1="55.5" y1="729.5" x2="100.5" y2="729.5"/><line class="cls-1" x1="55.5" y1="739.5" x2="100.5" y2="739.5"/><line class="cls-1" x1="55.5" y1="749.5" x2="100.5" y2="749.5"/><line class="cls-1" x1="56" y1="769.5" x2="101" y2="769.5"/><line class="cls-1" x1="56" y1="779.5" x2="101" y2="779.5"/><line class="cls-1" x1="56" y1="789.5" x2="101" y2="789.5"/><line class="cls-1" x1="56" y1="799.5" x2="101" y2="799.5"/><line class="cls-1" x1="11" y1="909.5" x2="101" y2="909.5"/><line class="cls-1" x1="34" y1="859.5" x2="100.5" y2="859.5"/><line class="cls-1" x1="55.5" y1="819.5" x2="100.5" y2="819.5"/><line class="cls-1" x1="55.5" y1="829.5" x2="100.5" y2="829.5"/><line class="cls-1" x1="55.5" y1="839.5" x2="100.5" y2="839.5"/><line class="cls-1" x1="55.5" y1="849.5" x2="100.5" y2="849.5"/><line class="cls-1" x1="56" y1="869.5" x2="101" y2="869.5"/><line class="cls-1" x1="56" y1="879.5" x2="101" y2="879.5"/><line class="cls-1" x1="56" y1="889.5" x2="101" y2="889.5"/><line class="cls-1" x1="56" y1="899.5" x2="101" y2="899.5"/><line class="cls-1" x1="11" y1="1009.5" x2="101" y2="1009.5"/><line class="cls-1" x1="34" y1="959.5" x2="100.5" y2="959.5"/><line class="cls-1" x1="55.5" y1="919.5" x2="100.5" y2="919.5"/><line class="cls-1" x1="55.5" y1="929.5" x2="100.5" y2="929.5"/><line class="cls-1" x1="55.5" y1="939.5" x2="100.5" y2="939.5"/><line class="cls-1" x1="55.5" y1="949.5" x2="100.5" y2="949.5"/><line class="cls-1" x1="56" y1="969.5" x2="101" y2="969.5"/><line class="cls-1" x1="56" y1="979.5" x2="101" y2="979.5"/><line class="cls-1" x1="56" y1="989.5" x2="101" y2="989.5"/><line class="cls-1" x1="56" y1="999.5" x2="101" y2="999.5"/><line class="cls-1" x1="11" y1="1109.5" x2="101" y2="1109.5"/><line class="cls-1" x1="34" y1="1059.5" x2="100.5" y2="1059.5"/><line class="cls-1" x1="55.5" y1="1019.5" x2="100.5" y2="1019.5"/><line class="cls-1" x1="55.5" y1="1029.5" x2="100.5" y2="1029.5"/><line class="cls-1" x1="55.5" y1="1039.5" x2="100.5" y2="1039.5"/><line class="cls-1" x1="55.5" y1="1049.5" x2="100.5" y2="1049.5"/><line class="cls-1" x1="56" y1="1069.5" x2="101" y2="1069.5"/><line class="cls-1" x1="56" y1="1079.5" x2="101" y2="1079.5"/><line class="cls-1" x1="56" y1="1089.5" x2="101" y2="1089.5"/><line class="cls-1" x1="56" y1="1099.5" x2="101" y2="1099.5"/><line class="cls-1" x1="11" y1="1209.5" x2="101" y2="1209.5"/><line class="cls-1" x1="34" y1="1159.5" x2="100.5" y2="1159.5"/><line class="cls-1" x1="55.5" y1="1119.5" x2="100.5" y2="1119.5"/><line class="cls-1" x1="55.5" y1="1129.5" x2="100.5" y2="1129.5"/><line class="cls-1" x1="55.5" y1="1139.5" x2="100.5" y2="1139.5"/><line class="cls-1" x1="55.5" y1="1149.5" x2="100.5" y2="1149.5"/><line class="cls-1" x1="56" y1="1169.5" x2="101" y2="1169.5"/><line class="cls-1" x1="56" y1="1179.5" x2="101" y2="1179.5"/><line class="cls-1" x1="56" y1="1189.5" x2="101" y2="1189.5"/><line class="cls-1" x1="56" y1="1199.5" x2="101" y2="1199.5"/><line class="cls-1" x1="11" y1="1309.5" x2="101" y2="1309.5"/><line class="cls-1" x1="34" y1="1259.5" x2="100.5" y2="1259.5"/><line class="cls-1" x1="55.5" y1="1219.5" x2="100.5" y2="1219.5"/><line class="cls-1" x1="55.5" y1="1229.5" x2="100.5" y2="1229.5"/><line class="cls-1" x1="55.5" y1="1239.5" x2="100.5" y2="1239.5"/><line class="cls-1" x1="55.5" y1="1249.5" x2="100.5" y2="1249.5"/><line class="cls-1" x1="56" y1="1269.5" x2="101" y2="1269.5"/><line class="cls-1" x1="56" y1="1279.5" x2="101" y2="1279.5"/><line class="cls-1" x1="56" y1="1289.5" x2="101" y2="1289.5"/><line class="cls-1" x1="56" y1="1299.5" x2="101" y2="1299.5"/><line class="cls-1" x1="11" y1="1409.5" x2="101" y2="1409.5"/><line class="cls-1" x1="34" y1="1359.5" x2="100.5" y2="1359.5"/><line class="cls-1" x1="55.5" y1="1319.5" x2="100.5" y2="1319.5"/><line class="cls-1" x1="55.5" y1="1329.5" x2="100.5" y2="1329.5"/><line class="cls-1" x1="55.5" y1="1339.5" x2="100.5" y2="1339.5"/><line class="cls-1" x1="55.5" y1="1349.5" x2="100.5" y2="1349.5"/><line class="cls-1" x1="56" y1="1369.5" x2="101" y2="1369.5"/><line class="cls-1" x1="56" y1="1379.5" x2="101" y2="1379.5"/><line class="cls-1" x1="56" y1="1389.5" x2="101" y2="1389.5"/><line class="cls-1" x1="56" y1="1399.5" x2="101" y2="1399.5"/><line class="cls-1" x1="11" y1="1509.5" x2="101" y2="1509.5"/><line class="cls-1" x1="34" y1="1459.5" x2="100.5" y2="1459.5"/><line class="cls-1" x1="55.5" y1="1419.5" x2="100.5" y2="1419.5"/><line class="cls-1" x1="55.5" y1="1429.5" x2="100.5" y2="1429.5"/><line class="cls-1" x1="55.5" y1="1439.5" x2="100.5" y2="1439.5"/><line class="cls-1" x1="55.5" y1="1449.5" x2="100.5" y2="1449.5"/><line class="cls-1" x1="56" y1="1469.5" x2="101" y2="1469.5"/><line class="cls-1" x1="56" y1="1479.5" x2="101" y2="1479.5"/><line class="cls-1" x1="56" y1="1489.5" x2="101" y2="1489.5"/><line class="cls-1" x1="56" y1="1499.5" x2="101" y2="1499.5"/><line class="cls-1" x1="11" y1="1609.5" x2="101" y2="1609.5"/><line class="cls-1" x1="34" y1="1559.5" x2="100.5" y2="1559.5"/><line class="cls-1" x1="55.5" y1="1519.5" x2="100.5" y2="1519.5"/><line class="cls-1" x1="55.5" y1="1529.5" x2="100.5" y2="1529.5"/><line class="cls-1" x1="55.5" y1="1539.5" x2="100.5" y2="1539.5"/><line class="cls-1" x1="55.5" y1="1549.5" x2="100.5" y2="1549.5"/><line class="cls-1" x1="56" y1="1569.5" x2="101" y2="1569.5"/><line class="cls-1" x1="56" y1="1579.5" x2="101" y2="1579.5"/><line class="cls-1" x1="56" y1="1589.5" x2="101" y2="1589.5"/><line class="cls-1" x1="56" y1="1599.5" x2="101" y2="1599.5"/><line class="cls-1" x1="11" y1="1709.5" x2="101" y2="1709.5"/><line class="cls-1" x1="34" y1="1659.5" x2="100.5" y2="1659.5"/><line class="cls-1" x1="55.5" y1="1619.5" x2="100.5" y2="1619.5"/><line class="cls-1" x1="55.5" y1="1629.5" x2="100.5" y2="1629.5"/><line class="cls-1" x1="55.5" y1="1639.5" x2="100.5" y2="1639.5"/><line class="cls-1" x1="55.5" y1="1649.5" x2="100.5" y2="1649.5"/><line class="cls-1" x1="56" y1="1669.5" x2="101" y2="1669.5"/><line class="cls-1" x1="56" y1="1679.5" x2="101" y2="1679.5"/><line class="cls-1" x1="56" y1="1689.5" x2="101" y2="1689.5"/><line class="cls-1" x1="56" y1="1699.5" x2="101" y2="1699.5"/><line class="cls-1" x1="11" y1="1809.5" x2="101" y2="1809.5"/><line class="cls-1" x1="34" y1="1759.5" x2="100.5" y2="1759.5"/><line class="cls-1" x1="55.5" y1="1719.5" x2="100.5" y2="1719.5"/><line class="cls-1" x1="55.5" y1="1729.5" x2="100.5" y2="1729.5"/><line class="cls-1" x1="55.5" y1="1739.5" x2="100.5" y2="1739.5"/><line class="cls-1" x1="55.5" y1="1749.5" x2="100.5" y2="1749.5"/><line class="cls-1" x1="56" y1="1769.5" x2="101" y2="1769.5"/><line class="cls-1" x1="56" y1="1779.5" x2="101" y2="1779.5"/><line class="cls-1" x1="56" y1="1789.5" x2="101" y2="1789.5"/><line class="cls-1" x1="56" y1="1799.5" x2="101" y2="1799.5"/><line class="cls-1" x1="11" y1="1909.5" x2="101" y2="1909.5"/><line class="cls-1" x1="34" y1="1859.5" x2="100.5" y2="1859.5"/><line class="cls-1" x1="55.5" y1="1819.5" x2="100.5" y2="1819.5"/><line class="cls-1" x1="55.5" y1="1829.5" x2="100.5" y2="1829.5"/><line class="cls-1" x1="55.5" y1="1839.5" x2="100.5" y2="1839.5"/><line class="cls-1" x1="55.5" y1="1849.5" x2="100.5" y2="1849.5"/><line class="cls-1" x1="56" y1="1869.5" x2="101" y2="1869.5"/><line class="cls-1" x1="56" y1="1879.5" x2="101" y2="1879.5"/><line class="cls-1" x1="56" y1="1889.5" x2="101" y2="1889.5"/><line class="cls-1" x1="56" y1="1899.5" x2="101" y2="1899.5"/><line class="cls-1" x1="11" y1="2009.5" x2="101" y2="2009.5"/><line class="cls-1" x1="34" y1="1959.5" x2="100.5" y2="1959.5"/><line class="cls-1" x1="55.5" y1="1919.5" x2="100.5" y2="1919.5"/><line class="cls-1" x1="55.5" y1="1929.5" x2="100.5" y2="1929.5"/><line class="cls-1" x1="55.5" y1="1939.5" x2="100.5" y2="1939.5"/><line class="cls-1" x1="55.5" y1="1949.5" x2="100.5" y2="1949.5"/><line class="cls-1" x1="56" y1="1969.5" x2="101" y2="1969.5"/><line class="cls-1" x1="56" y1="1979.5" x2="101" y2="1979.5"/><line class="cls-1" x1="56" y1="1989.5" x2="101" y2="1989.5"/><line class="cls-1" x1="56" y1="1999.5" x2="101" y2="1999.5"/><line class="cls-1" x1="11" y1="2109.5" x2="101" y2="2109.5"/><line class="cls-1" x1="34" y1="2059.5" x2="100.5" y2="2059.5"/><line class="cls-1" x1="55.5" y1="2019.5" x2="100.5" y2="2019.5"/><line class="cls-1" x1="55.5" y1="2029.5" x2="100.5" y2="2029.5"/><line class="cls-1" x1="55.5" y1="2039.5" x2="100.5" y2="2039.5"/><line class="cls-1" x1="55.5" y1="2049.5" x2="100.5" y2="2049.5"/><line class="cls-1" x1="56" y1="2069.5" x2="101" y2="2069.5"/><line class="cls-1" x1="56" y1="2079.5" x2="101" y2="2079.5"/><line class="cls-1" x1="56" y1="2089.5" x2="101" y2="2089.5"/><line class="cls-1" x1="56" y1="2099.5" x2="101" y2="2099.5"/><line class="cls-1" x1="11" y1="2209.5" x2="101" y2="2209.5"/><line class="cls-1" x1="34" y1="2159.5" x2="100.5" y2="2159.5"/><line class="cls-1" x1="55.5" y1="2119.5" x2="100.5" y2="2119.5"/><line class="cls-1" x1="55.5" y1="2129.5" x2="100.5" y2="2129.5"/><line class="cls-1" x1="55.5" y1="2139.5" x2="100.5" y2="2139.5"/><line class="cls-1" x1="55.5" y1="2149.5" x2="100.5" y2="2149.5"/><line class="cls-1" x1="56" y1="2169.5" x2="101" y2="2169.5"/><line class="cls-1" x1="56" y1="2179.5" x2="101" y2="2179.5"/><line class="cls-1" x1="56" y1="2189.5" x2="101" y2="2189.5"/><line class="cls-1" x1="56" y1="2199.5" x2="101" y2="2199.5"/><line class="cls-1" x1="11" y1="2309.5" x2="101" y2="2309.5"/><line class="cls-1" x1="34" y1="2259.5" x2="100.5" y2="2259.5"/><line class="cls-1" x1="55.5" y1="2219.5" x2="100.5" y2="2219.5"/><line class="cls-1" x1="55.5" y1="2229.5" x2="100.5" y2="2229.5"/><line class="cls-1" x1="55.5" y1="2239.5" x2="100.5" y2="2239.5"/><line class="cls-1" x1="55.5" y1="2249.5" x2="100.5" y2="2249.5"/><line class="cls-1" x1="56" y1="2269.5" x2="101" y2="2269.5"/><line class="cls-1" x1="56" y1="2279.5" x2="101" y2="2279.5"/><line class="cls-1" x1="56" y1="2289.5" x2="101" y2="2289.5"/><line class="cls-1" x1="56" y1="2299.5" x2="101" y2="2299.5"/><line class="cls-1" x1="11" y1="2409.5" x2="101" y2="2409.5"/><line class="cls-1" x1="34" y1="2359.5" x2="100.5" y2="2359.5"/><line class="cls-1" x1="55.5" y1="2319.5" x2="100.5" y2="2319.5"/><line class="cls-1" x1="55.5" y1="2329.5" x2="100.5" y2="2329.5"/><line class="cls-1" x1="55.5" y1="2339.5" x2="100.5" y2="2339.5"/><line class="cls-1" x1="55.5" y1="2349.5" x2="100.5" y2="2349.5"/><line class="cls-1" x1="56" y1="2369.5" x2="101" y2="2369.5"/><line class="cls-1" x1="56" y1="2379.5" x2="101" y2="2379.5"/><line class="cls-1" x1="56" y1="2389.5" x2="101" y2="2389.5"/><line class="cls-1" x1="56" y1="2399.5" x2="101" y2="2399.5"/><line class="cls-1" x1="11" y1="2509.5" x2="101" y2="2509.5"/><line class="cls-1" x1="34" y1="2459.5" x2="100.5" y2="2459.5"/><line class="cls-1" x1="55.5" y1="2419.5" x2="100.5" y2="2419.5"/><line class="cls-1" x1="55.5" y1="2429.5" x2="100.5" y2="2429.5"/><line class="cls-1" x1="55.5" y1="2439.5" x2="100.5" y2="2439.5"/><line class="cls-1" x1="55.5" y1="2449.5" x2="100.5" y2="2449.5"/><line class="cls-1" x1="56" y1="2469.5" x2="101" y2="2469.5"/><line class="cls-1" x1="56" y1="2479.5" x2="101" y2="2479.5"/><line class="cls-1" x1="56" y1="2489.5" x2="101" y2="2489.5"/><line class="cls-1" x1="56" y1="2499.5" x2="101" y2="2499.5"/><line class="cls-1" x1="11" y1="2609.5" x2="101" y2="2609.5"/><line class="cls-1" x1="34" y1="2559.5" x2="100.5" y2="2559.5"/><line class="cls-1" x1="55.5" y1="2519.5" x2="100.5" y2="2519.5"/><line class="cls-1" x1="55.5" y1="2529.5" x2="100.5" y2="2529.5"/><line class="cls-1" x1="55.5" y1="2539.5" x2="100.5" y2="2539.5"/><line class="cls-1" x1="55.5" y1="2549.5" x2="100.5" y2="2549.5"/><line class="cls-1" x1="56" y1="2569.5" x2="101" y2="2569.5"/><line class="cls-1" x1="56" y1="2579.5" x2="101" y2="2579.5"/><line class="cls-1" x1="56" y1="2589.5" x2="101" y2="2589.5"/><line class="cls-1" x1="56" y1="2599.5" x2="101" y2="2599.5"/><line class="cls-1" x1="11" y1="2709.5" x2="101" y2="2709.5"/><line class="cls-1" x1="34" y1="2659.5" x2="100.5" y2="2659.5"/><line class="cls-1" x1="55.5" y1="2619.5" x2="100.5" y2="2619.5"/><line class="cls-1" x1="55.5" y1="2629.5" x2="100.5" y2="2629.5"/><line class="cls-1" x1="55.5" y1="2639.5" x2="100.5" y2="2639.5"/><line class="cls-1" x1="55.5" y1="2649.5" x2="100.5" y2="2649.5"/><line class="cls-1" x1="56" y1="2669.5" x2="101" y2="2669.5"/><line class="cls-1" x1="56" y1="2679.5" x2="101" y2="2679.5"/><line class="cls-1" x1="56" y1="2689.5" x2="101" y2="2689.5"/><line class="cls-1" x1="56" y1="2699.5" x2="101" y2="2699.5"/><line class="cls-1" x1="11" y1="2809.5" x2="101" y2="2809.5"/><line class="cls-1" x1="34" y1="2759.5" x2="100.5" y2="2759.5"/><line class="cls-1" x1="55.5" y1="2719.5" x2="100.5" y2="2719.5"/><line class="cls-1" x1="55.5" y1="2729.5" x2="100.5" y2="2729.5"/><line class="cls-1" x1="55.5" y1="2739.5" x2="100.5" y2="2739.5"/><line class="cls-1" x1="55.5" y1="2749.5" x2="100.5" y2="2749.5"/><line class="cls-1" x1="56" y1="2769.5" x2="101" y2="2769.5"/><line class="cls-1" x1="56" y1="2779.5" x2="101" y2="2779.5"/><line class="cls-1" x1="56" y1="2789.5" x2="101" y2="2789.5"/><line class="cls-1" x1="56" y1="2799.5" x2="101" y2="2799.5"/></svg>