<svg id="Layer_1" data-name="Layer 1" xmlns="http://www.w3.org/2000/svg" viewBox="0 0 375 667"><defs><style>.cls-1{fill:gray;}</style></defs><title>Artboard 32 copy</title><polygon class="cls-1" points="169.85 412.05 169.85 410.95 168.75 410.95 168.75 412.05 168.75 413.16 169.85 413.16 169.85 412.05"/><rect class="cls-1" x="167.65" y="413.16" width="1.1" height="1.1"/><rect class="cls-1" x="173.16" y="420.88" width="1.1" height="1.1"/><polygon class="cls-1" points="372.79 425.29 372.79 424.19 373.9 424.19 373.9 423.08 372.79 423.08 371.69 423.08 371.69 424.19 370.59 424.19 369.49 424.19 369.49 425.29 368.38 425.29 368.38 426.39 368.38 427.5 369.49 427.5 370.59 427.5 371.69 427.5 372.79 427.5 373.9 427.5 373.9 426.39 372.79 426.39 372.79 425.29"/><rect class="cls-1" x="373.9" y="425.29" width="1.1" height="1.1"/><polygon class="cls-1" points="185.29 430.8 185.29 431.91 186.4 431.91 186.4 430.8 187.5 430.8 187.5 429.7 186.4 429.7 186.4 428.6 185.29 428.6 185.29 429.7 185.29 430.8"/><polygon class="cls-1" points="341.91 435.21 343.01 435.21 344.12 435.21 345.22 435.21 345.22 434.11 346.32 434.11 347.43 434.11 347.43 433.01 346.32 433.01 345.22 433.01 344.12 433.01 343.01 433.01 341.91 433.01 341.91 431.91 340.81 431.91 340.81 433.01 339.71 433.01 339.71 434.11 339.71 435.21 340.81 435.21 341.91 435.21"/><rect class="cls-1" x="367.28" y="435.22" width="1.1" height="1.1"/><rect class="cls-1" x="368.38" y="437.42" width="1.1" height="1.1"/><polygon class="cls-1" points="312.13 438.52 312.13 437.42 311.03 437.42 311.03 438.52 311.03 439.63 312.13 439.63 312.13 438.52"/><polygon class="cls-1" points="368.38 439.63 368.38 438.52 367.28 438.52 366.18 438.52 366.18 439.63 367.28 439.63 368.38 439.63"/><polygon class="cls-1" points="309.93 440.73 309.93 439.63 308.82 439.63 308.82 440.73 308.82 441.83 309.93 441.83 309.93 440.73"/><polygon class="cls-1" points="311.03 442.94 312.13 442.94 313.24 442.94 314.34 442.94 315.44 442.94 316.54 442.94 316.54 441.83 317.65 441.83 318.75 441.83 318.75 440.73 319.85 440.73 319.85 439.63 319.85 438.52 318.75 438.52 318.75 439.63 317.65 439.63 317.65 438.52 316.54 438.52 316.54 439.63 316.54 440.73 315.44 440.73 314.34 440.73 313.24 440.73 312.13 440.73 312.13 441.83 311.03 441.83 309.93 441.83 309.93 442.94 311.03 442.94"/><rect class="cls-1" x="345.22" y="441.83" width="1.1" height="1.1"/><polygon class="cls-1" points="208.46 444.04 209.56 444.04 209.56 442.94 210.66 442.94 210.66 441.83 209.56 441.83 208.46 441.83 208.46 442.94 207.35 442.94 206.25 442.94 206.25 444.04 207.35 444.04 208.46 444.04"/><rect class="cls-1" x="158.82" y="444.04" width="1.1" height="1.1"/><polygon class="cls-1" points="204.04 445.14 205.15 445.14 205.15 444.04 204.04 444.04 202.94 444.04 201.84 444.04 201.84 445.14 202.94 445.14 204.04 445.14"/><rect class="cls-1" x="331.99" y="446.24" width="1.1" height="1.1"/><rect class="cls-1" x="329.78" y="447.35" width="1.1" height="1.1"/><polygon class="cls-1" points="99.27 449.55 100.37 449.55 100.37 448.45 101.47 448.45 102.57 448.45 103.68 448.45 103.68 447.35 102.57 447.35 101.47 447.35 100.37 447.35 99.27 447.35 99.27 448.45 98.16 448.45 97.06 448.45 97.06 449.55 98.16 449.55 99.27 449.55"/><polygon class="cls-1" points="113.6 449.55 112.5 449.55 112.5 450.66 113.6 450.66 114.71 450.66 115.81 450.66 115.81 449.55 114.71 449.55 113.6 449.55"/><polygon class="cls-1" points="338.6 450.66 339.71 450.66 339.71 449.55 340.81 449.55 341.91 449.55 341.91 448.45 343.01 448.45 344.12 448.45 345.22 448.45 345.22 447.35 346.32 447.35 347.43 447.35 348.53 447.35 348.53 446.25 349.63 446.25 350.74 446.25 350.74 445.14 350.74 444.04 349.63 444.04 348.53 444.04 347.43 444.04 346.32 444.04 346.32 445.14 345.22 445.14 344.12 445.14 343.01 445.14 341.91 445.14 340.81 445.14 340.81 444.04 339.71 444.04 339.71 445.14 339.71 446.25 338.6 446.25 337.5 446.25 337.5 447.35 336.4 447.35 336.4 448.45 336.4 449.55 336.4 450.66 337.5 450.66 338.6 450.66"/><polygon class="cls-1" points="111.4 450.66 110.29 450.66 109.19 450.66 108.09 450.66 108.09 451.76 109.19 451.76 110.29 451.76 111.4 451.76 112.5 451.76 112.5 450.66 111.4 450.66"/><rect class="cls-1" x="175.37" y="451.76" width="1.1" height="1.1"/><polygon class="cls-1" points="330.88 459.48 330.88 458.38 329.78 458.38 329.78 457.27 328.68 457.27 328.68 458.38 328.68 459.48 329.78 459.48 330.88 459.48"/><rect class="cls-1" x="334.19" y="458.38" width="1.1" height="1.1"/><polygon class="cls-1" points="305.51 462.79 306.62 462.79 307.72 462.79 307.72 463.89 307.72 465 308.82 465 308.82 463.89 308.82 462.79 308.82 461.69 309.93 461.69 309.93 460.58 311.03 460.58 312.13 460.58 313.24 460.58 313.24 459.48 314.34 459.48 315.44 459.48 316.54 459.48 316.54 458.38 315.44 458.38 315.44 457.27 315.44 456.17 315.44 455.07 314.34 455.07 313.24 455.07 312.13 455.07 311.03 455.07 309.93 455.07 308.82 455.07 308.82 456.17 307.72 456.17 306.62 456.17 306.62 457.27 305.51 457.27 304.41 457.27 304.41 458.38 304.41 459.48 304.41 460.58 304.41 461.69 303.31 461.69 303.31 462.79 304.41 462.79 305.51 462.79"/><polygon class="cls-1" points="328.68 462.79 328.68 461.69 328.68 460.58 327.57 460.58 327.57 461.69 326.47 461.69 326.47 462.79 327.57 462.79 328.68 462.79"/><polygon class="cls-1" points="249.26 463.89 248.16 463.89 248.16 465 249.26 465 250.37 465 251.47 465 251.47 463.89 250.37 463.89 249.26 463.89"/><polygon class="cls-1" points="288.97 468.3 290.07 468.3 290.07 467.2 288.97 467.2 287.87 467.2 287.87 466.1 286.76 466.1 286.76 467.2 286.76 468.3 287.87 468.3 288.97 468.3"/><path class="cls-1" d="M34.19,469.41v1.1H37.5v-1.1h9.93v-1.1h7.72v-1.1h6.62v-1.1h6.62V465h3.31v-1.1h6.62v-1.1h2.21v1.1h2.21v-1.1h1.1v-1.1H86v2.21H83.82V465H80.51v1.1h-1.1v1.1H76.1v3.31h5.51v-1.1h8.82v-1.1h6.62v-1.1h4.41v-1.1h4.41V465h6.62v-1.1H118v-1.1h3.31v-1.1h4.41v-1.1h2.21v-1.1h2.21v-1.1h4.41v-2.21h1.1v-1.1h-1.1V454h2.21v-1.1H139V454h-2.21v4.41H139v-1.1h2.21v-1.1h1.1v-1.1h1.1V454h2.21v-1.1h1.1v-1.1h9.93v-1.1h2.21v-2.21H161v-1.1h-1.1v-1.1h-2.21V444h-1.1v-1.1h2.21v-1.1h3.31v-1.1h1.1v1.1h11v-1.1h3.31v-3.31h2.21v-1.1h-2.21v-1.1h1.1v-1.1h2.21V433h3.31V428.6h1.1v-1.1h-1.1v-1.1h-1.1v-1.1H182v-1.1h-3.31v1.1h-2.21v-1.1h-2.21v-1.1h-2.21V422H171v-2.21h1.1v-4.41H171v3.31h-1.1v-4.41h-1.1v2.21h-1.1v4.41h-1.1V422h-1.1v1.1h-1.1v1.1h-1.1v1.1h-1.1v1.1H161v1.1h-2.21v1.1h-1.1v1.1h-3.31v1.1h-6.62v1.1h-3.31V433h-4.41v1.1h-6.62v1.1H129v1.1h-5.51v1.1h-4.41v1.1H113.6v1.1h-1.1v1.1H107v1.1h-4.41v1.1H97.06v-2.21h1.1v-2.21h5.51v-1.1h5.51v-1.1H118v-1.1h5.51v-1.1h6.62V433h5.51v-1.1h7.72v-1.1h2.21v-1.1h2.21v-1.1h1.1v-2.21H150v-1.1h1.1v-2.21h1.1V422h1.1v-1.1h1.1v-2.21h1.1v-1.1h1.1v-2.21h1.1v-2.21h1.1v-1.1h1.1V411H161v-1.1h4.41V411h1.1v1.1h1.1v-2.21h-1.1v-2.21h-1.1v-2.21h-1.1v1.1H161v1.1h-3.31v1.1h-1.1v1.1h-1.1v4.41h-2.21v2.21h-1.1v1.1h-1.1v2.21H150v1.1h-1.1v4.41h-1.1v1.1h-1.1v1.1h-1.1v1.1h-3.31v1.1H139v1.1h-5.51v1.1h-6.62V433h-6.62v1.1H113.6v1.1H107v1.1H99.26v1.1H96v1.1H92.65v-1.1h-1.1v1.1H87.13v1.1H84.93v1.1H82.72v1.1H86v-1.1h4.41v2.21h-1.1V444H87.13v-1.1H82.72v-1.1H79.41v1.1h2.21v2.21h-1.1v1.1h-1.1v-3.31H77.21v3.31h1.1v1.1H75v-1.1H72.79v1.1h-1.1v2.21h-1.1v1.1H68.38v1.1H62.87v1.1h-1.1V454H58.46v1.1H56.25v1.1H54v1.1H50.74v2.21H46.32v1.1h-1.1v2.21H41.91v1.1H39.71V465H37.5v1.1H36.4v1.1H34.19v1.1H32v1.1h2.21Zm25.37-8.82v-1.1h-1.1v-1.1h1.1v-1.1h2.21v-1.1H64v-1.1h3.31V454h2.21v-1.1h3.31V454h1.1v3.31H75v1.1H71.69v1.1H67.28v1.1H61.76v1.1H59.56Zm72.79-4.41h-2.21v-1.1h2.21Zm-5.51,2.21h-2.21v-1.1h2.21v-1.1h1.1v1.1h-1.1ZM114.71,454h1.1v1.1h-1.1Zm1.1,6.62v-1.1h1.1v1.1Zm3.31-1.1H118v-1.1h2.21v-1.1h2.21v-1.1h1.1v1.1h-1.1v1.1h-2.21v1.1Zm3.31-5.51h-1.1v-1.1h1.1Zm-3.31,0H118v1.1h-1.1V454H118v-1.1h1.1Zm21-2.21h2.21v1.1h-2.21Zm-1.1,4.41v-1.1h1.1v1.1Zm5.51-4.41h-1.1v-1.1h2.21v1.1Zm7.72-6.62h-1.1v1.1H150v-1.1h1.1V444h1.1Zm-8.82-1.1h-1.1v-1.1h3.31V444h-2.21Zm26.47-3.31h-5.51v-1.1h-2.21v-1.1h-3.31v-1.1h-2.21v-3.31h8.82v1.1h-3.31v1.1h-3.31v1.1H171v1.1h1.1v1.1H171v1.1Zm-77.21,2.21v-2.21h1.1v2.21h-1.1V444h-1.1v-1.1Zm-9.93,3.31v2.21h-1.1v-2.21Zm-9.93,2.21H76.1v2.21h3.31v-1.1h4.41v-1.1h3.31v-1.1h4.41v-1.1h5.51v-1.1h3.31V444h4.41v-1.1h1.1v3.31H107v1.1h1.1v-1.1h1.1v-1.1h-1.1V444H107v-1.1h2.21v2.21h4.41V444h2.21v-1.1H118v-1.1h7.72V444h1.1v1.1h-1.1v1.1h-3.31v1.1h-2.21v1.1h3.31v-1.1h3.31v-1.1h3.31v-1.1h-2.21v-2.21h-1.1v-2.21H129v-1.1h3.31v-1.1h5.51v3.31H139v-4.41h5.51v-1.1h8.82v-1.1h2.21v4.41h-1.1v1.1H150v1.1h-4.41v-1.1h-2.21v1.1H139v1.1h-4.41V444h-4.41v1.1h5.51V444h5.51v1.1h2.21v1.1h2.21v-1.1h2.21v1.1h-2.21v1.1h3.31v1.1h3.31v-1.1h2.21v-1.1h-1.1V444h2.21v3.31h1.1v2.21h-2.21v-1.1h-2.21v1.1H148.9v1.1h-2.21v-1.1h2.21v-1.1h-3.31v1.1h-3.31v1.1H127.94v-1.1h-1.1v1.1h-1.1v-1.1h-5.51v-1.1h-4.41v1.1h3.31v1.1h5.51v1.1h-5.51v-1.1h-3.31v1.1H112.5v1.1h-4.41v-1.1h-2.21v1.1h-2.21V454H99.26v1.1H97.06v-2.21H96v2.21h-1.1v-3.31H96v-2.21H92.65v1.1H89.34v1.1h-1.1V454H86v1.1H82.72v1.1H78.31v1.1H76.1v-1.1H75v-4.41h1.1v-1.1H72.79v-2.21ZM46.32,463.89h1.1v-1.1h2.21v-1.1h1.1v-1.1h2.21v-1.1h3.31v-1.1h1.1v2.21h1.1v2.21H55.15v1.1H50.74V465H45.22v-1.1Z"/><rect class="cls-1" x="177.57" y="468.3" width="1.1" height="1.1"/><rect class="cls-1" x="298.9" y="468.3" width="1.1" height="1.1"/><rect class="cls-1" x="173.16" y="478.23" width="1.1" height="1.1"/><path class="cls-1" d="M182,480.44h7.72v-1.1H186.4V476h1.1v-2.21h1.1v-4.41h1.1V467.2h1.1v-3.31h1.1v-4.41H193v-2.21h1.1V454h1.1v-2.21h-1.1v-1.1h1.1v-1.1h4.41v-1.1h5.51v-1.1h2.21v1.1h1.1v2.21h1.1v2.21h1.1V454h1.1v1.1h-1.1v1.1h2.21v1.1H214v1.1h1.1v1.1h1.1v3.31h1.1v1.1h-1.1V465h-4.41v-1.1h-1.1v-4.41h-1.1v-2.21h1.1v-1.1h-2.21v4.41h1.1V465h1.1v2.21h1.1v1.1h1.1v3.31H214v2.21h-2.21v1.1h4.41v-1.1h4.41v-1.1h-5.51v-3.31H214V466.1h3.31V465h2.21v1.1h1.1v-3.31h-1.1v-2.21h-1.1v-1.1h1.1v-1.1h-2.21v-1.1h-1.1v-1.1h-1.1v-1.1H214V454h-1.1v-2.21h-1.1v-1.1h-1.1v-2.21h-1.1v-1.1h3.31v1.1h2.21v-1.1h2.21v-2.21h1.1v-3.31h-1.1v-3.31h-5.51v1.1h3.31v1.1h1.1V444h-5.51v1.1h-1.1v1.1h-1.1v-1.1h-3.31v1.1h-3.31v-1.1h-4.41v1.1H193v1.1h3.31v1.1H193v-1.1H188.6v1.1h-5.51v1.1H182v-1.1h-2.21v1.1h-1.1v1.1h-1.1v1.1h3.31v-1.1h3.31v1.1H182v1.1h-3.31V454h-4.41v-1.1h-1.1v2.21h9.93V454h3.31v-1.1h3.31v-1.1h1.1V454h-1.1v3.31h-1.1v2.21h-1.1v3.31h-1.1v3.31h-1.1v2.21h-1.1v1.1h-3.31v1.1h-3.31v1.1h-5.51v1.1H171v-1.1h-1.1v1.1h-2.21v1.1h-4.41v1.1h-4.41V476h-5.51v1.1H150v1.1h-3.31v1.1h-5.51v1.1h-3.31v-1.1h-1.1v1.1h-2.21v1.1h-3.31v1.1h-1.1v-1.1h-2.21v1.1h-3.31v1.1h-1.1v1.1h-3.31V486H118v1.1h-3.31v1.1h-5.51v1.1h-3.31v1.1h-2.21v1.1H99.26v1.1H97.06v1.1H93.75v1.1H89.34v1.1H84.93V497H81.62v1.1H78.31v1.1H73.9v1.1H68.38v1.1H65.07v1.1H61.76v1.1H58.46v1.1h-1.1V508h1.1v-1.1h6.62v-1.1h2.21v-1.1h3.31v-1.1H76.1v-1.1h4.41v-1.1h4.41v-1.1h5.51v-1.1h3.31v-1.1h3.31V497h5.51v-1.1H107v-1.1h5.51v-1.1h3.31v-1.1h3.31v-1.1h5.51v-1.1h2.21v-1.1h6.62v-1.1H139v-1.1h2.21V486h5.51v-1.1h2.21v-1.1h3.31v-1.1h2.21v-1.1h1.1v1.1h1.1v-1.1h2.21v-1.1h4.41v-1.1h5.51v1.1h1.1v-1.1H171v-1.1h2.21v-1.1h6.62V476h1.1v2.21h-1.1v2.21H182Zm17.65-34.19h1.1v1.1h-2.21v-1.1Zm-8.82,2.21h1.1v1.1h-2.21v-1.1Zm-5.51,1.1h3.31v1.1h-3.31Zm5.51,6.62h1.1V454H193v2.21h-1.1v2.21h-1.1v-2.21Zm0,3.31v2.21h-1.1v-2.21Zm-4.41,7.72h1.1V465h1.1v-2.21h1.1V465h-1.1v3.31h-1.1v3.31h-1.1v3.31h-1.1v2.21h-1.1v2.21h-1.1V476h1.1v-2.21h1.1v-3.31h1.1V467.2Z"/><polygon class="cls-1" points="193.01 480.44 193.01 479.33 193.01 478.23 191.91 478.23 191.91 479.33 190.81 479.33 190.81 480.44 191.91 480.44 193.01 480.44"/><polygon class="cls-1" points="177.57 481.54 178.68 481.54 179.78 481.54 179.78 480.44 178.68 480.44 177.57 480.44 176.47 480.44 175.37 480.44 175.37 481.54 176.47 481.54 177.57 481.54"/><rect class="cls-1" x="373.9" y="483.74" width="1.1" height="1.1"/><polygon class="cls-1" points="163.24 485.95 164.34 485.95 164.34 484.85 165.44 484.85 166.54 484.85 167.65 484.85 168.75 484.85 169.85 484.85 169.85 483.75 170.96 483.75 170.96 482.64 172.06 482.64 173.16 482.64 174.26 482.64 175.37 482.64 175.37 481.54 174.26 481.54 173.16 481.54 172.06 481.54 170.96 481.54 169.85 481.54 169.85 482.64 168.75 482.64 167.65 482.64 167.65 483.75 166.54 483.75 165.44 483.75 164.34 483.75 163.24 483.75 163.24 484.85 162.13 484.85 161.03 484.85 161.03 485.95 162.13 485.95 163.24 485.95"/><polygon class="cls-1" points="370.59 488.16 371.69 488.16 371.69 487.05 371.69 485.95 370.59 485.95 369.49 485.95 369.49 487.05 370.59 487.05 370.59 488.16"/><rect class="cls-1" x="158.82" y="491.47" width="1.1" height="1.1"/><polygon class="cls-1" points="168.75 492.57 169.85 492.57 169.85 491.46 168.75 491.46 167.65 491.46 167.65 492.57 168.75 492.57"/><polygon class="cls-1" points="363.97 492.57 365.07 492.57 366.18 492.57 367.28 492.57 367.28 491.46 368.38 491.46 369.49 491.46 370.59 491.46 370.59 490.36 371.69 490.36 372.79 490.36 372.79 489.26 371.69 489.26 370.59 489.26 369.49 489.26 368.38 489.26 368.38 488.16 369.49 488.16 369.49 487.05 368.38 487.05 367.28 487.05 367.28 488.16 366.18 488.16 365.07 488.16 365.07 489.26 363.97 489.26 363.97 490.36 362.87 490.36 362.87 491.46 362.87 492.57 362.87 493.67 363.97 493.67 363.97 492.57"/><path class="cls-1" d="M372.79,492.57v1.1h-3.31v1.1h-2.21v1.1H364V497h-1.1v3.31h-1.1v1.1h-2.21v1.1h-1.1v1.1h-2.21v1.1h-1.1v1.1H354v1.1h-3.31v-1.1h-1.1v-1.1h-1.1v-1.1h-1.1v-1.1h-1.1v-1.1h-1.1v-2.21h-1.1v-1.1H343V497h-1.1v-1.1h-1.1v-1.1h-1.1v-1.1h-1.1v-2.21h-1.1v-1.1h-1.1v-1.1h-1.1v-1.1h-1.1V486h-1.1v-1.1H332v-1.1h-4.41v1.1h-5.51V486h-3.31v7.72h1.1v8.82H321v11h-3.31v1.1h-5.51v1.1h-4.41v1.1h-1.1v-2.21h-1.1v-1.1h-1.1v-2.21h-1.1v-1.1h1.1v-1.1h2.21V508h2.21v-1.1H311V503.6h-2.21v1.1H296.69v-2.21h-1.1v-1.1h-1.1v-1.1h-1.1v-1.1h-1.1V497h-1.1v-1.1h-1.1v-1.1H289v-1.1h-1.1v-1.1h-3.31v1.1h-3.31v-2.21h-1.1v-2.21H279V486h-1.1v-4.41H279v-1.1h1.1v-1.1h1.1v-1.1h3.31v-1.1h1.1V476h1.1v-6.62h-1.1V467.2h-4.41v-3.31h-1.1v-2.21H279v-1.1h-1.1v-1.1h-1.1v-4.41h1.1V454h-1.1v-1.1h-3.31V454h-4.41v1.1h-2.21v1.1h-2.21v1.1H262.5v1.1h-1.1v-2.21h-1.1v-1.1h-1.1v-2.21h-1.1V454h-2.21v-1.1h-1.1v-1.1h-1.1V454h-1.1v-1.1h-1.1v2.21h-2.21v3.31h-1.1v1.1h-1.1v1.1H246v2.21h-1.1V465h-3.31v1.1h-3.31v1.1h-4.41v1.1h-3.31v1.1H226.1v1.1H225v-1.1h-1.1v-1.1h-1.1v-1.1h-1.1v-1.1h-1.1v2.21h1.1v1.1h1.1v2.21h-2.21v1.1h3.31v-1.1h4.41v-1.1h3.31v-1.1h3.31v-1.1h4.41v-1.1h4.41v-1.1h3.31v-3.31h1.1v-2.21h3.31v-1.1h2.21v1.1h1.1v2.21h-3.31v1.1h4.41v2.21h-3.31v1.1H246v1.1h-5.51v1.1H236v1.1h-4.41v1.1h-3.31v1.1H223.9v1.1h-3.31v1.1h-3.31V476H214v1.1h-3.31v1.1h-2.21V476h3.31v-1.1h-4.41v-1.1h-2.21v1.1H204V476h-1.1v1.1h-2.21v1.1H204v-1.1h3.31v1.1H204v1.1h-3.31v1.1h-2.21v1.1h-2.21v-2.21h4.41v-1.1h-5.51v1.1h-1.1v2.21h1.1v1.1h1.1v1.1h-2.21v1.1H186.4V486h-6.62v1.1h-5.51v1.1h-1.1v-1.1h-1.1V486H171v-1.1h-1.1v2.21H171v1.1h-1.1v1.1h-4.41v1.1h-3.31v1.1h5.51v-1.1h4.41v1.1h1.1v6.62h-1.1v2.21H171v1.1h-1.1v1.1h-1.1v-1.1h-1.1v1.1h-4.41v1.1h-3.31v-1.1H161v-1.1h2.21v-1.1h3.31v-1.1h1.1v-1.1h1.1v3.31h1.1v-1.1H171V497h1.1v-1.1H171v-3.31h-1.1v2.21h-2.21v-1.1h-4.41v1.1h-4.41v1.1h-3.31V497h-2.21v1.1H150v1.1h-1.1v1.1h-1.1V497h1.1v-1.1h-4.41V497h-3.31v1.1H139v1.1h-2.21v1.1h-1.1v1.1h1.1v1.1h-1.1v-1.1h-1.1v-1.1h-1.1v1.1h-3.31v1.1h-3.31v1.1h-3.31v1.1h-1.1v2.21H118V508h-2.21v1.1H113.6v1.1H111.4v1.1h-2.21v1.1H107v1.1h-3.31v1.1h-2.21v1.1H99.26v1.1H97.06v1.1H94.85V519H92.65v1.1H90.44v1.1H88.24v1.1H86v1.1H83.82v1.1H81.62v1.1H79.41v1.1h-1.1v1.1h-1.1V529H73.9v1.1H71.69v1.1h6.62v-1.1h11V529h8.82v-1.1h1.1V529h1.1v-1.1h5.51v-1.1h4.41v-1.1h6.62v-1.1h6.62v-1.1h6.62v-1.1h6.62v-1.1h1.1v1.1H139v-1.1h1.1v-1.1h6.62V519h4.41v-1.1h4.41v-1.1h2.21v1.1h1.1v-1.1h1.1v1.1h3.31V519h5.51v-1.1h5.51v-1.1h1.1v1.1h2.21v-1.1h1.1v1.1h2.21v-1.1h3.31v1.1H193v3.31h-1.1v1.1h-2.21v1.1H187.5V529h1.1v1.1h-1.1v1.1h-1.1v1.1h-6.62v1.1h-1.1v1.1h-4.41v1.1H171v1.1h-2.21v1.1h-3.31v1.1h-2.21V540H161v1.1h-2.21v1.1h-2.21v1.1h-4.41v1.1H150v1.1h-2.21v1.1h-2.21v1.1h-4.41v1.1h-1.1v1.1h-2.21V551h-2.21v1.1h-3.31v1.1H129v1.1h-2.21v1.1h-2.21v1.1h-2.21v1.1h-1.1v1.1h-2.21v1.1h-2.21V561h-2.21v1.1H112.5v1.1H107v1.1h-2.21v1.1h1.1v1.1h4.41v-1.1h2.21v-1.1h3.31v-1.1h12.13v-1.1h6.62V561h8.82v-1.1h4.41v-1.1h6.62v-1.1h5.51v-1.1h4.41v-1.1H171v-1.1h3.31v-1.1h3.31v1.1h-2.21v1.1h-3.31v2.21H171V561h-1.1v4.41h-3.31v1.1h1.1v1.1h-1.1v1.1h-3.31v1.1h-1.1v1.1H161V572h-2.21v1.1h-2.21v1.1h-3.31v1.1H150v1.1h-3.31v1.1h-3.31v-2.21h-2.21v1.1h-3.31v1.1h4.41v1.1h-1.1v1.1h-3.31v1.1h-2.21v1.1h-3.31V583H129v1.1h-2.21v1.1h-3.31v1.1h-2.21v1.1h-2.21v1.1h-2.21v1.1H113.6v1.1H111.4v1.1h-3.31v1.1H107V594h-2.21v1.1h-2.21v1.1h-2.21v1.1H98.16v1.1H96v-1.1H93.75v1.1h1.1v1.1h-1.1v1.1H91.54v1.1H88.24v1.1h-1.1v-1.1H84.93v1.1h-1.1V604H81.62v1.1h-1.1v1.1H77.21v1.1H75v1.1H73.9v1.1H71.69v1.1H69.49v1.1h-1.1v1.1H66.18v1.1h-1.1V615H62.87v1.1h-1.1v1.1H59.56v1.1h-1.1v1.1H56.25v1.1h-1.1v1.1H52.94v1.1h-1.1v1.1h-1.1v1.1H48.53V626H46.32v1.1H43v1.1H40.81v1.1h-1.1v1.1H36.4v1.1H34.19v1.1H32v1.1h3.31v-1.1H37.5v-1.1h3.31v-1.1h4.41v-1.1h2.21v-1.1h3.31v-1.1H64V626H76.1v-1.1h7.72v-1.1h7.72v-1.1h7.72v-1.1h6.62v-1.1h6.62v-1.1h4.41v-1.1h5.51v-1.1h5.51v-1.1h5.51V615h4.41v-1.1h2.21v-1.1h3.31v-1.1h4.41v-1.1h3.31v-1.1h4.41v-1.1h3.31v-1.1h4.41v-1.1h3.31v-1.1h3.31V604h3.31v-1.1h4.41v-1.1h2.21v-1.1h3.31v4.41h1.1v1.1h1.1v1.1h2.21v1.1H193v-1.1h5.51v-1.1h4.41v2.21H204v1.1h14.34v-1.1h13.24v-1.1h-3.31v-1.1h1.1v-1.1h2.21V604h1.1v-1.1h1.1v-1.1H236v-1.1h1.1v-1.1h1.1v-1.1h3.31v-1.1h2.21v-1.1h1.1v-1.1h2.21V594h4.41v-1.1h3.31v-1.1h3.31v1.1h3.31V594h5.51v1.1h3.31v1.1h2.21v1.1h2.21v1.1h2.21v1.1h3.31v1.1h2.21v1.1h2.21v1.1h3.31V604h2.21v1.1h2.21v1.1h2.21v1.1h2.21v1.1h2.21v1.1h2.21v1.1h2.21v1.1h3.31v1.1h1.1v1.1h1.1V615H311v1.1h2.21v2.21h1.1v3.31h1.1v2.21h2.21v-1.1H321v-1.1h3.31v1.1h1.1v1.1h1.1v3.31h1.1v2.21h1.1v3.31h1.1v4.41h1.1v4.41h-1.1v1.1h-1.1v3.31h-3.31V647h-2.21v1.1h-3.31v1.1h-2.21v1.1h-2.21v1.1h-3.31v1.1h-3.31v-1.1h1.1v-1.1H311V647h-2.21v3.31h-3.31v-1.1h-1.1v-1.1h-2.21V647h-1.1v-1.1H300v-1.1h-2.21v-1.1h-1.1v-1.1h-1.1v-1.1h-1.1v-1.1h-2.21v-1.1h-1.1v-1.1h-1.1v-1.1H289V636h-1.1v-1.1h-1.1v-1.1h-2.21v-1.1h-1.1v-1.1h-2.21v-1.1h-1.1v-1.1H279v-1.1h-2.21v-1.1h-1.1V626h-1.1v-1.1h-1.1v-1.1h-2.21v-1.1h-1.1v-1.1h-1.1v-1.1h-2.21v-1.1h-1.1v-1.1h-1.1v-1.1h-1.1v-1.1H261.4V615h-1.1v-1.1h-1.1v-1.1h-1.1v-1.1h-2.21v-1.1h-1.1v-1.1h-1.1v-1.1h-1.1v-1.1h2.21v-1.1h9.93v1.1h1.1v1.1h1.1v1.1H268v1.1h1.1v-2.21H268v-1.1h-1.1v-1.1h-1.1v-1.1h-1.1V604h-1.1v-1.1h-5.51V604h-6.62v1.1H246v1.1H231.62v1.1h1.1v1.1h1.1v-1.1h15.44v1.1h2.21v1.1h1.1v1.1h1.1v1.1h1.1v1.1h-2.21v1.1h-1.1V615h-2.21v1.1H246v1.1h-3.31v1.1h-2.21v1.1h-2.21v1.1h-4.41v1.1h-2.21v1.1h-2.21v1.1h-2.21v1.1H223.9V626h-4.41v1.1h-3.31v1.1H214v1.1h-2.21v1.1h-3.31v1.1h-2.21v1.1H204v1.1h-3.31v1.1h-2.21V636h-2.21v1.1h-2.21v1.1h-2.21v1.1H187.5v1.1h-2.21v1.1h-1.1v1.1h-3.31v1.1h-3.31v1.1h-3.31v1.1h-1.1V647H171v1.1h-2.21v1.1h-1.1v1.1h-2.21v1.1h-2.21v1.1h-3.31v1.1h-1.1v1.1h-2.21v1.1h-2.21v1.1H151.1V658H150v1.1h-2.21v1.1h-2.21v1.1h-3.31v1.1h-1.1v1.1h-1.1v1.1H139v1.1h-2.21v1.1h-1.1v1.1h-2.21V669h-2.21v1.1h35.29V669h3.31v-1.1h3.31v-1.1h6.62v-1.1h5.51v-1.1h3.31v-1.1h7.72v-1.1h3.31v-1.1h3.31v-1.1h5.51v-1.1H214V658h1.1v-1.1h7.72v-1.1H225v-1.1h5.51v-1.1h3.31v-1.1h5.51v-1.1h3.31v-1.1h4.41v-1.1h3.31v-1.1h4.41V647h3.31v-1.1h3.31v-1.1h3.31v-1.1h4.41v2.21H268V647h-1.1v1.1h-2.21v1.1H262.5v1.1h3.31v-1.1h5.51v-1.1h2.21V647h3.31v-1.1h1.1V647h-1.1v1.1h-2.21v1.1h-1.1v1.1h-2.21v1.1h-2.21v1.1h-3.31v1.1H262.5v1.1h-3.31v1.1H257v1.1h-2.21V658h-2.21v1.1h-2.21V658h1.1v-1.1h1.1v-1.1h2.21v-1.1H257v-1.1h1.1v-1.1h-3.31v-1.1h-2.21v3.31h-1.1v1.1h-1.1v1.1h-1.1v2.21h-2.21v1.1H246v1.1h-1.1v2.21h4.41v-1.1h3.31v-1.1h2.21v1.1h4.41v-1.1h-1.1v-1.1h2.21v-1.1h3.31V658h2.21v-1.1H268v-1.1h3.31v-1.1h2.21v-1.1h2.21v-1.1H279v-1.1h2.21v-1.1h3.31v-1.1h2.21v-1.1H289V647h5.51v1.1h2.21v1.1h4.41v1.1h3.31v1.1h1.1v1.1h2.21v2.21h-3.31v1.1h-2.21v1.1h1.1V658h-1.1v-1.1H298.9V658h-1.1v1.1h-2.21v1.1h-1.1v2.21h-2.21v1.1h3.31v-1.1h2.21v2.21h-3.31v1.1h-3.31v1.1h-3.31v-1.1h-2.21V669h1.1v1.1h3.31V669h4.41v-1.1h3.31V669H300v-3.31h2.21v-1.1h4.41v-1.1h2.21v-1.1H311v-1.1h3.31v-1.1h3.31v-1.1h2.21V658H321v-1.1h3.31v-1.1h3.31v-1.1H332v-1.1h3.31v-1.1h3.31v1.1h1.1v1.1h1.1v2.21H338.6V658h-1.1v1.1h-1.1v1.1h-3.31v1.1H332v1.1h-2.21v1.1h-1.1v1.1h-1.1v1.1h-1.1v1.1h2.21v1.1h1.1v-1.1H332v-1.1h1.1v1.1h3.31v-1.1h3.31v-1.1h2.21v1.1H343v-1.1h5.51v-1.1h4.41v1.1h2.21v1.1h1.1v1.1h1.1v1.1h1.1V669h1.1v1.1H375v-32h-1.1v-3.31h-1.1v-2.21h-1.1v-4.41h-1.1v-1.1h-1.1v-3.31h-1.1v-2.21h-1.1V618.3h-1.1V616.1h-1.1v-4.41H364v-2.21h-1.1v-2.21h-1.1v-1.1h1.1v-1.1h2.21V604h4.41v-1.1h2.21v-1.1h2.21v-1.1H375V585.22h-2.21v1.1h-2.21v1.1h-2.21v-1.1h-1.1v-1.1h-1.1v-1.1h-1.1V583H364V580.8h-1.1v-1.1h-1.1v-1.1h-1.1v-1.1h-1.1v-1.1h-1.1v-2.21h-1.1v-1.1h-1.1V572h-1.1v-1.1H354v-2.21h-1.1v-1.1h-1.1v-1.1h-1.1v2.21h1.1v1.1h1.1V572H354v1.1h1.1v1.1h1.1v1.1h1.1v2.21h-1.1v1.1h-5.51v1.1h-2.21v1.1h-7.72v-1.1h-1.1v-1.1h-1.1v-1.1h-1.1v-1.1h-1.1v-1.1h-1.1v-1.1h-1.1v-1.1h-1.1v-2.21H332v-2.21h-1.1v-1.1h2.21v-1.1h-3.31v-1.1h-1.1v-2.21h1.1v-1.1h1.1V561h2.21v-1.1h2.21V561h1.1v-1.1h1.1v-1.1h1.1v-1.1h2.21v1.1h1.1v1.1H343V561h2.21v2.21h2.21V561h-1.1v-1.1h-1.1v-1.1h-1.1v-1.1h4.41v1.1h4.41v1.1h3.31V561h4.41v1.1h4.41v1.1h4.41v1.1h4.41v1.1H375V552.13h-2.21V551h-1.1v-4.41h-1.1v-2.21h2.21v-1.1h-1.1v-1.1h1.1v-3.31H375V519h-2.21v-2.21h1.1v-1.1H375V497h-2.21v1.1h-2.21v1.1h1.1v1.1h-1.1v1.1h-3.31v1.1h-1.1v-1.1h1.1v-2.21h1.1V497h1.1v-1.1h2.21v-1.1H375v-2.21h-2.21ZM260.29,627.13h2.21v1.1h1.1v2.21h-5.51v1.1h-3.31v-1.1H257v-1.1h1.1v-1.1h1.1v-1.1Zm9.93,15.44h1.1v1.1h-1.1Zm77.21-133.46h1.1v1.1h-1.1Zm-25.37-4.41v-6.62H321v-8.82h-1.1v-1.1H321v-1.1h3.31V486h6.62v1.1H332v1.1h1.1v1.1h1.1v1.1h1.1v2.21h1.1v1.1h1.1v1.1h1.1v1.1h1.1V497h1.1v2.21h1.1v1.1H343v1.1h1.1v1.1h1.1v2.21h1.1v1.1h1.1v1.1h1.1V508h-3.31v1.1h-5.51v1.1h-5.51v1.1h-4.41v1.1h-6.62V505.8h-1.1Zm-3.31,11H321v-1.1h5.51v-1.1H332v-1.1h5.51v-1.1h4.41v-1.1h4.41v1.1h-1.1v1.1H343v1.1h-1.1v1.1h-2.21v1.1h-1.1v1.1H336.4v1.1h-2.21V519h-1.1v1.1h-2.21v1.1h-2.21v1.1h-2.21v1.1h-2.21v1.1h-1.1v-1.1h-1.1v-1.1H321v-2.21h-1.1V519h-1.1v-2.21h-1.1v-1.1Zm-39.71-21V497h1.1v3.31h-2.21v1.1H279v3.31h-8.82v-1.1h-1.1v-2.21H268v-1.1h-1.1v-1.1h-1.1v-1.1h-1.1v-2.21h-1.1v-2.21H261.4v-1.1h-1.1v-1.1h-1.1v-2.21h1.1v1.1h1.1v1.1h2.21v1.1h1.1v-2.21h-1.1v-1.1h-1.1v-1.1h-2.21V486h-2.21v1.1h-2.21v-2.21h-1.1v-2.21h-1.1v-1.1h-1.1v-1.1h-1.1v-2.21h3.31v-1.1h15.44v1.1h2.21v1.1h-1.1v1.1h-1.1v1.1H268v1.1h-3.31v1.1H262.5v1.1h-2.21V486h3.31v-1.1h3.31v-1.1h2.21v1.1h1.1V486h1.1v1.1h1.1v1.1h1.1v1.1h1.1v1.1h1.1v2.21h1.1v1.1h1.1v1.1Zm-16.54-32h1.1v-1.1h1.1v-1.1h2.21v-1.1H268v1.1h-1.1v1.1h-1.1v1.1h-1.1v1.1h-1.1V465H261.4v-2.21Zm-6.62-1.1v-3.31h-4.41v-1.1h1.1v-1.1h3.31v-1.1H257v1.1h1.1v1.1h1.1v1.1h1.1v1.1h1.1v1.1h-1.1v1.1h-1.1v1.1h-3.31Zm-52.94,21v-1.1h2.21v1.1h-2.21Zm5.51-2.21h1.1v1.1h-1.1Zm-29.78,7.72h6.62v-1.1h3.31V486h7.72v-1.1h8.82v-1.1h2.21v-1.1h4.41v-1.1h8.82v1.1h2.21v-2.21h1.1V486h-1.1v11h-1.1v9.93h-1.1v8.82h-1.1v9.93h-1.1v5.51h-2.21v1.1H214v1.1h-1.1V529H214v-7.72h1.1v-3.31h1.1v-8.82h1.1V503.6h1.1v-2.21h1.1v-6.62h1.1v-6.62h1.1v-4.41h-1.1v1.1h-1.1V486h-3.31v1.1h-6.62v1.1h-2.21v1.1H204v1.1h-3.31v1.1h-4.41v1.1h-4.41v1.1H188.6v1.1h-4.41v1.1H182V497h-4.41v-2.21h-1.1v-2.21h-1.1v-1.1h1.1v-2.21h1.1v-1.1Zm5.51,23.16v-1.1h1.1v-1.1h2.21V508h2.21v-1.1h2.21V504.7h2.21v-1.1h3.31v-1.1h3.31v2.21h-1.1v1.1h-1.1v1.1h-1.1V508h-2.21v1.1h-1.1v1.1h-4.41v1.1h-5.51v1.1h-1.1v-1.1Zm34.19-23.16v-1.1h1.1v3.31h-1.1v1.1h-3.31v1.1h-3.31v1.1h-2.21v-3.31h3.31v-1.1h2.21v-1.1h3.31Zm-2.21,17.65h-1.1v5.51H214v3.31h-5.51v1.1h-2.21v-1.1H204v-1.1h-4.41v1.1h-2.21v-1.1h2.21v-1.1h1.1v-1.1h2.21v-1.1h2.21v-1.1h2.21V508h2.21v-1.1h2.21v-1.1H214v-1.1h2.21Zm-3.31,16.54v1.1h-3.31v-1.1h1.1v-1.1h2.21Zm-12.13-7.72h2.21v1.1H204v1.1h-1.1v1.1h-2.21v-1.1h-2.21v-1.1h2.21Zm7.72,3.31V519h-1.1v2.21H204v1.1h-4.41v-1.1h2.21v-1.1h1.1V519h2.21v-1.1h2.21v-1.1h1.1Zm-18.75-18.75H187.5v1.1h-2.21v-1.1h2.21v-1.1h2.21V497h2.21v1.1h-2.21Zm3.31-3.31h1.1V497H193Zm-6.62,9.93V503.6h-1.1v-1.1h1.1v-1.1h2.21v-1.1h2.21v-1.1h3.31v-1.1h2.21V497h2.21v-1.1h2.21v-1.1h2.21v-1.1H204v-1.1h3.31v1.1h1.1v2.21h-3.31V497h-2.21v1.1h-2.21v1.1h-1.1v1.1h-1.1v1.1h-3.31v1.1H193v1.1h-1.1v-1.1H188.6v1.1h-1.1v3.31h-1.1ZM171,503.6h2.21v-1.1h4.41v-1.1h2.21v-1.1h3.31v1.1H182v1.1h-2.21v1.1h-2.21v1.1h3.31v-1.1h3.31v3.31h1.1V508h-1.1v1.1H182v1.1h-1.1v1.1h-1.1v1.1h-5.51v1.1h-2.21v-2.21H171v1.1h-1.1v1.1h-3.31v-1.1h-1.1v-2.21h2.21v-1.1H171V508h2.21v-1.1h3.31v-1.1h1.1v-1.1h-4.41v1.1h-1.1v1.1h-3.31V508h-2.21v1.1h-2.21v1.1h-2.21v1.1H161v1.1h-1.1v1.1h-4.41v1.1H150v1.1h-5.51v1.1h-3.31v-3.31h1.1v-1.1h3.31v-1.1h3.31v-1.1h3.31v-1.1h3.31V508h4.41v-1.1h3.31v-1.1h2.21v-1.1h4.41v-1.1Zm-33.09,14.34h-3.31V519h-4.41v1.1h-6.62v1.1h-2.21v-3.31h4.41v-1.1H129v-1.1h5.51v-1.1H139v3.31ZM150,501.39h1.1v3.31H150v-3.31Zm-45.22,21H107v1.1h-2.21Zm9.93,0h-5.51v-1.1h4.41v-1.1h3.31V519h2.21v2.21h-2.21v1.1h-2.21Zm38.6-23.16v1.1h1.1v2.21h-2.21v-3.31Zm-15.44,1.1h2.21v1.1h1.1v-1.1h2.21v-1.1h2.21v3.31h-2.21v1.1h-1.1v1.1h-1.1v2.21h-1.1V508h1.1v1.1H139V508h-1.1V504.7H139v-2.21h1.1v-1.1h-2.21Zm-4.41,2.21v1.1h-1.1v-1.1Zm-3.31,1.1v1.1H129v-1.1Zm-3.31,1.1v1.1h-1.1v-1.1Zm69.49,52.94h3.31v-1.1h3.31v1.1h2.21v1.1h2.21V561h1.1v3.31h1.1v1.1h-1.1v1.1h-1.1v1.1h-1.1v1.1H204v-4.41h-1.1v-1.1h-1.1v-1.1h-1.1V561h-1.1v-1.1h-2.21v-1.1h-1.1Zm173.16-39.71V519h-2.21v-1.1h1.1v-1.1h1.1Zm-171,82.72v1.1H193v-3.31h1.1v-1.1h5.51v-1.1h2.21v-1.1h3.31V594h3.31v-1.1h1.1v-1.1h2.21v-1.1h3.31v-1.1h2.21v-1.1h3.31v-1.1h3.31V594h-3.31v1.1h-3.31v1.1H214v1.1h-2.21v1.1h-3.31v1.1h-3.31v1.1h-4.41v1.1h-1.1v-1.1Zm127.94-62.87h2.21V540h1.1v2.21h1.1v-3.31h-1.1v-2.21h6.62v1.1h2.21v1.1h3.31V540h2.21v1.1h2.21v2.21h-2.21v1.1h-2.21v1.1H338.6v1.1H336.4v1.1h-3.31v-1.1H332v3.31h-2.21V551h-3.31v1.1h-2.21v1.1H321v1.1h-3.31v1.1h-2.21v1.1h-2.21v1.1h-3.31v1.1h-2.21v1.1h-3.31V561H301.1v1.1H298.9v1.1h-3.31v1.1h-2.21v1.1h-3.31v1.1H289v-6.62h-1.1v7.72h-5.51v1.1h-5.51v1.1h-5.51v1.1h-2.21V572H263.6v1.1h-3.31v-3.31h-1.1v-1.1h1.1v-1.1h3.31v-1.1h1.1v-1.1h2.21v-1.1H268v-1.1h2.21v-1.1h2.21V561h2.21v-1.1h2.21v-1.1H279v-1.1h2.21v-1.1h2.21v-1.1h2.21v2.21h1.1v2.21h1.1v-3.31h-1.1v-2.21h3.31v-1.1h2.21v-1.1h2.21V551h2.21v-1.1h2.21v-1.1H300v-1.1h2.21v-1.1h3.31v-1.1h3.31v-1.1h3.31v-1.1h3.31v-1.1h2.21v-1.1h2.21V540h3.31v-1.1h2.21v-1.1ZM225,590.73v-4.41h2.21v-1.1h1.1v-1.1h3.31V583h1.1v-1.1H236v-1.1h2.21v-1.1h3.31v-1.1h2.21v-1.1h1.1v-1.1h3.31v-1.1h2.21v-1.1h1.1v-1.1h2.21V572h1.1v-1.1h1.1v-1.1h2.21v4.41H257v1.1h-2.21v1.1h-2.21v1.1h-1.1v1.1h-2.21v1.1h-2.21v1.1H246v1.1h-2.21V583h-1.1v1.1h-2.21v1.1h-2.21v1.1H236v1.1h-1.1v1.1h-2.21v1.1h-2.21v1.1h-3.31v1.1H225Zm-47.43-1.1v-1.1h5.51v-1.1h3.31v1.1h-3.31v1.1h-4.41v1.1h-1.1Zm9.93-3.31h1.1v1.1h-1.1Zm-65.07,24.26h-2.21v1.1h-4.41v1.1H112.5v1.1h-4.41V615H107v-3.31h2.21v-1.1h4.41v-1.1h3.31v-1.1h3.31v-1.1h3.31v-1.1h3.31v-1.1h3.31V604h4.41v-1.1h3.31v-1.1h3.31v-1.1h3.31v-1.1h3.31v-1.1h3.31v2.21H148.9v1.1h-3.31v1.1h-2.21V604h-2.21v1.1h-3.31v1.1h-3.31v1.1h-3.31v1.1h-3.31v1.1h-3.31v1.1h-2.21Zm52.94-19.85v1.1h-2.21v1.1h-1.1V594h-3.31v1.1h-2.21v1.1h-3.31v1.1H161v1.1h-5.51v1.1h-2.21v-2.21h2.21v-1.1h2.21v-1.1H161V594h3.31v-1.1h2.21v-1.1h3.31v-1.1h2.21v-1.1h3.31Zm164.34,51.84h1.1v-2.21h1.1v-1.1h3.31v-1.1h2.21v3.31h1.1v1.1h-1.1v1.1h-2.21v-1.1h2.21v-1.1h-3.31v1.1h-2.21v1.1h-2.21Zm-258.09-21H78.31v-1.1h3.31v-1.1H86v-1.1h3.31v-1.1h3.31v-1.1h5.51V615h2.21v1.1h-1.1v1.1H94.85v1.1H91.54v1.1H86v1.1H82.72v1.1Zm258.09,23.16h1.1v1.1h-1.1Zm-161-69.49h-2.21V572h4.41v1.1h-1.1v1.1h-1.1Zm-12.13-5.51v3.31h1.1v2.21h1.1v3.31h1.1v2.21H171v1.1h1.1V579.7h1.1v1.1h2.21v-1.1h4.41v-1.1H182v-1.1h4.41v-1.1h3.31v-1.1H193v-1.1h3.31v-1.1h1.1V572h1.1v-1.1h1.1v-1.1h1.1v-2.21h2.21v2.21h-1.1V572h-1.1v2.21h-1.1v1.1h-1.1v1.1h-3.31v1.1h-4.41v1.1H187.5v1.1h-3.31v1.1h-3.31v1.1h-3.31V583h-2.21v1.1h-2.21v3.31h-1.1v-2.21h-2.21v1.1h-5.51v1.1h-4.41v1.1h-1.1v1.1h-3.31v-1.1h-3.31v-2.21h4.41v-1.1h3.31v-1.1h5.51V583h2.21v-1.1h1.1V583h1.1V580.8h-1.1V578.6h-1.1v-3.31h-1.1v-2.21h-1.1v-3.31Zm153.31,50.74h-1.1v1.1h-2.21v-2.21h-1.1V617.2h-1.1v-1.1h1.1v1.1h2.21v1.1h1.1v1.1H321v1.1Zm-21,40.81H300v-1.1h3.31v-1.1h2.21V658h2.21v-1.1h2.21v-1.1h2.21v-1.1h3.31v-1.1h2.21v-1.1H321v-1.1h2.21v-1.1h2.21v-1.1h3.31v-1.1h2.21V647h3.31v-1.1h4.41V647H336.4v1.1h-3.31v1.1h-2.21v1.1h-2.21v1.1h-3.31v1.1h-3.31v1.1h-2.21v1.1h-2.21v1.1h-3.31v1.1h-2.21V658H311v1.1h-3.31v1.1h-3.31v1.1h-2.21v1.1H298.9ZM366.18,504.7v2.21H364V508h-1.1v1.1h-1.1v1.1h-1.1v1.1h-1.1v1.1h-1.1v1.1h-1.1v1.1h-1.1v1.1h-1.1v1.1h-2.21v1.1h-1.1V519h-1.1v1.1h-2.21v1.1h-1.1v1.1h-1.1v1.1h-1.1v1.1h-1.1v1.1h-2.21v2.21h-2.21V529H337.5v1.1h-4.41v1.1h-2.21v1.1H321v1.1h-3.31v1.1h-3.31v1.1h-2.21v1.1h-4.41v1.1h-4.41v1.1H300V540h-3.31v1.1h-3.31v1.1h-3.31v1.1h-3.31v1.1h-2.21v1.1h-2.21v1.1h-4.41v1.1h-5.51v1.1h-1.1v1.1H268V551H261.4v1.1h-3.31v1.1h-3.31v1.1h-3.31v1.1h-4.41v1.1h-3.31v1.1h-4.41v1.1h-4.41v1.1h-2.21V561h-5.51v1.1H225v1.1h-2.21v1.1h-4.41v1.1h-5.51v-1.1h-1.1v-1.1h-1.1v-4.41h-2.21v-1.1h-1.1v-2.21h1.1v-1.1h2.21v-1.1h-3.31v1.1h-1.1v-2.21h-1.1v2.21h-2.21v1.1h-4.41v1.1h-3.31v1.1h-3.31v1.1H187.5v1.1h-4.41V561H182v1.1h-3.31v1.1h-2.21v-1.1h-2.21V561h1.1v-3.31h1.1v-1.1h1.1v-1.1h1.1v1.1h2.21v-2.21H182v-1.1h3.31v-1.1h2.21V551h4.41v-1.1h3.31v-1.1h2.21v-1.1h4.41v2.21h1.1v-1.1H204v-1.1h-1.1v-1.1h4.41v-1.1H214v-1.1h8.82v-1.1h12.13v-1.1h4.41v-1.1h5.51v3.31h-5.51v1.1h-4.41v1.1h-4.41v1.1H226.1v1.1h-3.31v1.1h-4.41V551H214v1.1h-3.31v1.1h6.62v-1.1h3.31V551h3.31v-1.1h4.41v-1.1h4.41v-1.1h4.41v-1.1h5.51v-1.1h5.51v-1.1h6.62v-1.1h4.41v-1.1h6.62v-1.1h6.62V540h-7.72v1.1H257v1.1h-5.51v1.1h-4.41v-1.1H246V540h1.1v-1.1h2.21v-1.1h2.21v-1.1h-3.31v1.1H246v1.1h-3.31V540h-4.41v1.1h-5.51v1.1H220.59v1.1h-8.82v1.1h-5.51v1.1h-4.41v-1.1h1.1v-1.1h2.21v-1.1h1.1v-1.1h1.1V540h1.1v-1.1h2.21v-1.1h1.1v-1.1h1.1v-1.1h2.21v-1.1h2.21v-1.1h2.21v-1.1h1.1v-1.1h-1.1v-1.1h1.1v-8.82h1.1V509.11h1.1v-8.82h1.1v-9.93H225v-8.82h1.1v-2.21h-3.31v-2.21h3.31V476h3.31v-1.1h3.31v-1.1h5.51v-1.1h2.21v1.1h1.1v1.1h1.1V476h1.1v1.1h1.1v1.1H246v2.21h1.1v2.21h1.1v2.21h1.1v2.21h1.1v3.31h1.1v1.1h1.1v3.31h1.1v1.1h1.1v4.41h1.1v1.1H257v3.31h1.1v2.21h1.1v2.21h1.1v2.21h1.1v1.1h-2.21v-1.1h-1.1v-1.1H257v-1.1h-1.1v2.21H257v2.21h2.21v1.1h1.1v1.1h1.1v2.21h2.21v-2.21h-1.1v-1.1h-1.1v-1.1h2.21v1.1h1.1v2.21h1.1V519h-1.1v-1.1h-1.1v3.31h1.1v-1.1h2.21v1.1h-2.21v1.1h1.1v3.31h-1.1V529H262.5v1.1h-2.21v1.1h-2.21v1.1H257v1.1h-2.21v1.1h-1.1v1.1h2.21v-1.1h2.21v-1.1h1.1v-1.1h2.21v-1.1h3.31v-1.1h2.21V529h2.21v-1.1h1.1V529h1.1v1.1h1.1v1.1h1.1v1.1h2.21v-1.1h-1.1v-1.1h-1.1V529h-1.1v-3.31h3.31v-1.1h4.41v-1.1h5.51v-1.1h4.41v-1.1h5.51v-1.1H300V519h6.62v-1.1H311v-1.1h5.51v1.1h1.1v2.21h1.1v2.21h1.1v1.1H321v3.31h-1.1v1.1h-2.21V529h-1.1v1.1h-2.21v1.1h-2.21v1.1h-4.41v1.1h-4.41v1.1h-5.51v1.1h-5.51v1.1h-5.51v1.1h-6.62v1.1H279v-1.1h-1.1v-2.21h-1.1v-2.21h-2.21v1.1h1.1v2.21h1.1v2.21h-4.41V540h12.13v-1.1h3.31v-1.1h7.72v-1.1H300v-1.1h4.41v-1.1h5.51v-1.1h5.51v-1.1h2.21v-1.1h1.1v-1.1H321V529h2.21v-1.1h1.1v-1.1h1.1v-1.1h1.1v-1.1h3.31v-1.1h1.1v-1.1h2.21v-1.1h2.21v-1.1h2.21V519h1.1v-1.1h1.1v-1.1H343v-1.1h1.1v-1.1h2.21v-1.1h2.21v-1.1h2.21v-1.1h2.21v-1.1h2.21v-1.1h1.1V508h3.31v-1.1h3.31V504.7H364v-1.1h2.21Z"/><polygon class="cls-1" points="151.1 495.88 151.1 494.77 152.21 494.77 153.31 494.77 154.41 494.77 154.41 493.67 155.51 493.67 156.62 493.67 156.62 492.57 155.51 492.57 155.51 491.46 155.51 490.36 156.62 490.36 156.62 489.26 157.72 489.26 158.82 489.26 158.82 488.16 158.82 487.05 159.93 487.05 161.03 487.05 161.03 485.95 159.93 485.95 158.82 485.95 157.72 485.95 157.72 484.85 156.62 484.85 156.62 485.95 156.62 487.05 155.51 487.05 154.41 487.05 154.41 488.16 153.31 488.16 152.21 488.16 152.21 489.26 151.1 489.26 151.1 490.36 150 490.36 150 491.46 150 492.57 150 493.67 150 494.77 148.9 494.77 148.9 495.88 150 495.88 151.1 495.88"/><polygon class="cls-1" points="250.37 494.77 249.26 494.77 249.26 495.88 248.16 495.88 248.16 496.98 249.26 496.98 249.26 498.08 249.26 499.19 250.37 499.19 250.37 500.29 250.37 501.39 251.47 501.39 251.47 500.29 251.47 499.19 251.47 498.08 250.37 498.08 250.37 496.98 250.37 495.88 251.47 495.88 252.57 495.88 252.57 494.77 251.47 494.77 250.37 494.77"/><polygon class="cls-1" points="272.43 496.98 271.32 496.98 271.32 495.88 270.22 495.88 270.22 494.77 269.12 494.77 269.12 493.67 268.01 493.67 266.91 493.67 266.91 494.77 266.91 495.88 268.01 495.88 268.01 496.98 269.12 496.98 269.12 498.08 270.22 498.08 271.32 498.08 271.32 499.19 272.43 499.19 272.43 500.29 273.53 500.29 273.53 499.19 273.53 498.08 272.43 498.08 272.43 496.98"/><polygon class="cls-1" points="275.74 501.39 275.74 502.5 276.84 502.5 277.94 502.5 277.94 501.39 276.84 501.39 275.74 501.39"/><rect class="cls-1" x="272.43" y="502.49" width="1.1" height="1.1"/><polygon class="cls-1" points="255.88 506.91 255.88 505.8 254.78 505.8 254.78 504.7 254.78 503.6 253.68 503.6 253.68 502.5 253.68 501.39 252.57 501.39 252.57 502.5 252.57 503.6 252.57 504.7 253.68 504.7 253.68 505.8 253.68 506.91 254.78 506.91 254.78 508.01 254.78 509.11 255.88 509.11 255.88 508.01 255.88 506.91"/><rect class="cls-1" x="158.82" y="522.35" width="1.1" height="1.1"/><polygon class="cls-1" points="67.28 533.38 67.28 532.27 66.18 532.27 65.07 532.27 65.07 533.38 66.18 533.38 67.28 533.38"/><polygon class="cls-1" points="253.68 536.69 253.68 535.58 252.57 535.58 251.47 535.58 251.47 536.69 252.57 536.69 253.68 536.69"/><polygon class="cls-1" points="330.88 544.41 330.88 545.51 331.99 545.51 331.99 544.41 331.99 543.3 331.99 542.2 330.88 542.2 330.88 543.3 330.88 544.41"/><polygon class="cls-1" points="205.15 549.92 204.04 549.92 202.94 549.92 202.94 551.02 204.04 551.02 204.04 552.13 205.15 552.13 205.15 551.02 205.15 549.92"/><rect class="cls-1" x="180.88" y="556.54" width="1.1" height="1.1"/><rect class="cls-1" x="163.24" y="558.74" width="1.1" height="1.1"/><rect class="cls-1" x="79.41" y="563.16" width="1.1" height="1.1"/><polygon class="cls-1" points="347.43 565.36 348.53 565.36 349.63 565.36 349.63 566.47 350.74 566.47 350.74 565.36 350.74 564.26 349.63 564.26 348.53 564.26 348.53 563.16 347.43 563.16 347.43 564.26 347.43 565.36"/><polygon class="cls-1" points="101.47 567.57 101.47 566.47 100.37 566.47 99.27 566.47 99.27 567.57 100.37 567.57 101.47 567.57"/><polygon class="cls-1" points="165.44 567.57 166.54 567.57 166.54 566.47 165.44 566.47 164.34 566.47 163.24 566.47 163.24 567.57 164.34 567.57 165.44 567.57"/><polygon class="cls-1" points="162.13 567.57 161.03 567.57 161.03 568.67 162.13 568.67 163.24 568.67 163.24 567.57 162.13 567.57"/><polygon class="cls-1" points="154.41 571.98 155.51 571.98 156.62 571.98 156.62 570.88 157.72 570.88 157.72 569.77 158.82 569.77 159.93 569.77 159.93 568.67 158.82 568.67 157.72 568.67 156.62 568.67 156.62 569.77 155.51 569.77 154.41 569.77 154.41 570.88 153.31 570.88 152.21 570.88 152.21 571.98 153.31 571.98 154.41 571.98"/><polygon class="cls-1" points="83.82 571.98 83.82 573.08 83.82 574.19 84.93 574.19 86.03 574.19 86.03 573.08 84.93 573.08 84.93 571.98 83.82 571.98"/><polygon class="cls-1" points="151.1 573.08 152.21 573.08 152.21 571.98 151.1 571.98 150 571.98 148.9 571.98 148.9 573.08 150 573.08 151.1 573.08"/><polygon class="cls-1" points="148.9 574.19 148.9 573.08 147.79 573.08 146.69 573.08 146.69 574.19 147.79 574.19 148.9 574.19"/><polygon class="cls-1" points="145.59 575.29 146.69 575.29 146.69 574.19 145.59 574.19 144.49 574.19 143.38 574.19 143.38 575.29 144.49 575.29 145.59 575.29"/><polygon class="cls-1" points="135.66 577.5 135.66 578.6 136.76 578.6 137.87 578.6 137.87 577.5 136.76 577.5 135.66 577.5"/><polygon class="cls-1" points="133.46 578.6 133.46 579.7 134.56 579.7 135.66 579.7 135.66 578.6 134.56 578.6 133.46 578.6"/><polygon class="cls-1" points="132.35 580.8 132.35 579.7 131.25 579.7 130.15 579.7 130.15 580.8 131.25 580.8 132.35 580.8"/><polygon class="cls-1" points="129.04 581.91 130.15 581.91 130.15 580.8 129.04 580.8 127.94 580.8 126.84 580.8 126.84 581.91 127.94 581.91 129.04 581.91"/><polygon class="cls-1" points="126.84 583.01 126.84 581.91 125.73 581.91 124.63 581.91 124.63 583.01 125.73 583.01 126.84 583.01"/><polygon class="cls-1" points="124.63 584.11 124.63 583.01 123.53 583.01 122.43 583.01 122.43 584.11 123.53 584.11 124.63 584.11"/><rect class="cls-1" x="169.85" y="583.01" width="1.1" height="1.1"/><polygon class="cls-1" points="172.06 584.11 173.16 584.11 173.16 583.01 173.16 581.91 172.06 581.91 172.06 583.01 172.06 584.11"/><polygon class="cls-1" points="116.91 587.42 118.02 587.42 118.02 586.32 119.12 586.32 120.22 586.32 120.22 585.22 121.32 585.22 122.43 585.22 122.43 584.11 121.32 584.11 120.22 584.11 119.12 584.11 119.12 585.22 118.02 585.22 116.91 585.22 116.91 586.32 115.81 586.32 114.71 586.32 114.71 587.42 115.81 587.42 116.91 587.42"/><polygon class="cls-1" points="114.71 588.52 114.71 587.42 113.6 587.42 112.5 587.42 112.5 588.52 113.6 588.52 114.71 588.52"/><polygon class="cls-1" points="109.19 590.73 110.29 590.73 110.29 589.63 111.4 589.63 112.5 589.63 112.5 588.52 111.4 588.52 110.29 588.52 109.19 588.52 109.19 589.63 108.09 589.63 106.98 589.63 106.98 590.73 105.88 590.73 104.78 590.73 104.78 591.83 103.68 591.83 102.57 591.83 102.57 592.94 102.57 594.04 103.68 594.04 103.68 592.94 104.78 592.94 105.88 592.94 105.88 591.83 106.98 591.83 108.09 591.83 108.09 590.73 109.19 590.73"/><rect class="cls-1" x="100.37" y="594.04" width="1.1" height="1.1"/><polygon class="cls-1" points="99.27 595.14 98.16 595.14 98.16 596.25 99.27 596.25 100.37 596.25 100.37 595.14 99.27 595.14"/><rect class="cls-1" x="95.96" y="596.24" width="1.1" height="1.1"/><polygon class="cls-1" points="93.75 599.55 93.75 598.45 92.65 598.45 91.54 598.45 91.54 599.55 92.65 599.55 93.75 599.55"/><rect class="cls-1" x="90.44" y="599.55" width="1.1" height="1.1"/><rect class="cls-1" x="269.12" y="610.58" width="1.1" height="1.1"/><polygon class="cls-1" points="271.32 612.79 271.32 613.89 272.43 613.89 272.43 615 273.53 615 273.53 616.1 274.63 616.1 274.63 617.2 275.74 617.2 275.74 618.3 276.84 618.3 276.84 619.41 277.94 619.41 277.94 620.51 279.04 620.51 279.04 621.61 280.15 621.61 280.15 620.51 280.15 619.41 279.04 619.41 279.04 618.3 277.94 618.3 277.94 617.2 276.84 617.2 276.84 616.1 275.74 616.1 275.74 615 274.63 615 274.63 613.89 273.53 613.89 273.53 612.79 272.43 612.79 272.43 611.69 271.32 611.69 270.22 611.69 270.22 612.79 271.32 612.79"/><rect class="cls-1" x="280.15" y="621.61" width="1.1" height="1.1"/><polygon class="cls-1" points="282.35 623.82 282.35 624.92 283.46 624.92 284.56 624.92 284.56 626.02 285.66 626.02 285.66 627.13 286.76 627.13 286.76 628.23 287.87 628.23 287.87 629.33 288.97 629.33 288.97 630.44 290.07 630.44 290.07 631.54 291.18 631.54 291.18 630.44 291.18 629.33 291.18 628.23 290.07 628.23 290.07 627.13 288.97 627.13 287.87 627.13 287.87 626.02 286.76 626.02 286.76 624.92 285.66 624.92 285.66 623.82 284.56 623.82 284.56 622.72 283.46 622.72 282.35 622.72 281.25 622.72 281.25 623.82 282.35 623.82"/><rect class="cls-1" x="30.88" y="633.74" width="1.1" height="1.1"/><polygon class="cls-1" points="294.49 633.75 294.49 632.64 294.49 631.54 293.38 631.54 293.38 632.64 292.28 632.64 292.28 633.75 293.38 633.75 293.38 634.85 294.49 634.85 295.59 634.85 295.59 633.75 294.49 633.75"/><polygon class="cls-1" points="132.35 640.36 131.25 640.36 131.25 641.47 130.15 641.47 130.15 642.57 131.25 642.57 132.35 642.57 132.35 643.67 133.46 643.67 134.56 643.67 134.56 644.77 135.66 644.77 135.66 643.67 136.76 643.67 137.87 643.67 138.97 643.67 138.97 642.57 140.07 642.57 141.18 642.57 142.28 642.57 142.28 641.47 143.38 641.47 144.49 641.47 144.49 640.36 145.59 640.36 146.69 640.36 146.69 639.26 147.79 639.26 148.9 639.26 148.9 638.16 150 638.16 150 637.05 150 635.95 148.9 635.95 148.9 634.85 147.79 634.85 146.69 634.85 145.59 634.85 144.49 634.85 143.38 634.85 143.38 635.95 142.28 635.95 141.18 635.95 141.18 637.05 140.07 637.05 138.97 637.05 138.97 638.16 137.87 638.16 136.76 638.16 136.76 639.26 135.66 639.26 134.56 639.26 134.56 640.36 135.66 640.36 135.66 641.47 134.56 641.47 133.46 641.47 133.46 640.36 132.35 640.36"/><polygon class="cls-1" points="302.21 640.36 302.21 639.26 301.1 639.26 301.1 638.16 300 638.16 300 637.05 298.9 637.05 297.79 637.05 297.79 635.95 297.79 634.85 296.69 634.85 295.59 634.85 295.59 635.95 295.59 637.05 296.69 637.05 296.69 638.16 297.79 638.16 297.79 639.26 298.9 639.26 298.9 640.36 300 640.36 300 641.47 301.1 641.47 301.1 642.57 302.21 642.57 302.21 641.47 302.21 640.36"/><polygon class="cls-1" points="307.72 645.88 307.72 644.77 306.62 644.77 306.62 643.67 305.51 643.67 305.51 642.57 304.41 642.57 303.31 642.57 302.21 642.57 302.21 643.67 303.31 643.67 303.31 644.77 304.41 644.77 305.51 644.77 305.51 645.88 306.62 645.88 306.62 646.98 307.72 646.98 308.82 646.98 308.82 645.88 307.72 645.88"/><polygon class="cls-1" points="262.5 651.39 262.5 650.29 261.4 650.29 260.29 650.29 260.29 651.39 261.4 651.39 262.5 651.39"/><rect class="cls-1" x="9.93" y="651.39" width="1.1" height="1.1"/><rect class="cls-1" x="14.34" y="651.39" width="1.1" height="1.1"/><rect class="cls-1" x="16.54" y="651.39" width="1.1" height="1.1"/><polygon class="cls-1" points="70.59 652.5 69.48 652.5 69.48 651.39 68.38 651.39 67.28 651.39 66.18 651.39 65.07 651.39 65.07 652.5 63.97 652.5 62.87 652.5 61.77 652.5 61.77 653.6 60.66 653.6 60.66 654.7 60.66 655.8 60.66 656.91 61.77 656.91 61.77 655.8 62.87 655.8 62.87 656.91 62.87 658.01 62.87 659.11 63.97 659.11 63.97 658.01 65.07 658.01 65.07 656.91 66.18 656.91 67.28 656.91 68.38 656.91 68.38 655.8 69.48 655.8 69.48 654.7 69.48 653.6 70.59 653.6 71.69 653.6 71.69 652.5 71.69 651.39 70.59 651.39 70.59 652.5"/><polygon class="cls-1" points="260.29 652.5 260.29 651.39 259.19 651.39 258.09 651.39 258.09 652.5 259.19 652.5 260.29 652.5"/><rect class="cls-1" x="6.62" y="652.49" width="1.1" height="1.1"/><polygon class="cls-1" points="8.82 655.8 7.72 655.8 6.62 655.8 5.51 655.8 4.41 655.8 3.31 655.8 2.21 655.8 1.1 655.8 0 655.8 0 656.91 0 658.01 0 659.11 0 660.22 0 661.32 0 662.42 1.1 662.42 2.21 662.42 2.21 661.32 3.31 661.32 4.41 661.32 5.51 661.32 6.62 661.32 7.72 661.32 7.72 660.22 8.82 660.22 8.82 659.11 9.93 659.11 9.93 658.01 11.03 658.01 11.03 656.91 11.03 655.8 9.93 655.8 8.82 655.8"/><rect class="cls-1" x="55.15" y="658.01" width="1.1" height="1.1"/><polygon class="cls-1" points="39.71 659.11 38.6 659.11 37.5 659.11 37.5 660.22 37.5 661.32 38.6 661.32 39.71 661.32 40.81 661.32 40.81 660.22 41.91 660.22 41.91 659.11 40.81 659.11 39.71 659.11"/><rect class="cls-1" x="54.04" y="659.11" width="1.1" height="1.1"/><polygon class="cls-1" points="57.35 660.22 56.25 660.22 55.15 660.22 55.15 661.32 56.25 661.32 57.35 661.32 58.46 661.32 59.56 661.32 59.56 660.22 58.46 660.22 57.35 660.22"/><polygon class="cls-1" points="33.09 662.42 33.09 663.52 34.19 663.52 35.29 663.52 35.29 662.42 34.19 662.42 33.09 662.42"/><polygon class="cls-1" points="292.28 664.63 292.28 663.52 291.18 663.52 290.07 663.52 290.07 664.63 291.18 664.63 292.28 664.63"/><polygon class="cls-1" points="290.07 665.73 290.07 664.63 288.97 664.63 287.87 664.63 287.87 665.73 288.97 665.73 290.07 665.73"/><rect class="cls-1" x="340.81" y="665.73" width="1.1" height="1.1"/></svg>