<svg id="Layer_1" data-name="Layer 1" xmlns="http://www.w3.org/2000/svg" viewBox="0 0 480 1391"><defs><style>.cls-1{fill:none;stroke:lime;stroke-miterlimit:10;stroke-width:3px;}.cls-2{fill:lime;}</style></defs><title>Artboard 2</title><line class="cls-1" x1="177" y1="961.45" x2="195" y2="961.45"/><line class="cls-1" x1="153" y1="961.45" x2="171" y2="961.45"/><polyline class="cls-1" points="114.5 976.45 129 961.45 147 961.45"/><line class="cls-1" x1="303" y1="961.45" x2="285" y2="961.45"/><line class="cls-1" x1="327" y1="961.45" x2="309" y2="961.45"/><polyline class="cls-1" points="365.5 976.45 351 961.45 333 961.45"/><line class="cls-1" x1="177" y1="828.45" x2="195" y2="828.45"/><line class="cls-1" x1="153" y1="828.45" x2="171" y2="828.45"/><polyline class="cls-1" points="114.5 843.45 129 828.45 147 828.45"/><line class="cls-1" x1="303" y1="828.45" x2="285" y2="828.45"/><line class="cls-1" x1="327" y1="828.45" x2="309" y2="828.45"/><polyline class="cls-1" points="365.5 843.45 351 828.45 333 828.45"/><line class="cls-1" x1="177" y1="1094.45" x2="195" y2="1094.45"/><line class="cls-1" x1="153" y1="1094.45" x2="171" y2="1094.45"/><polyline class="cls-1" points="114.5 1109.45 129 1094.45 147 1094.45"/><line class="cls-1" x1="303" y1="1094.45" x2="285" y2="1094.45"/><line class="cls-1" x1="327" y1="1094.45" x2="309" y2="1094.45"/><polyline class="cls-1" points="365.5 1109.45 351 1094.45 333 1094.45"/><line class="cls-1" x1="177" y1="1227.45" x2="195" y2="1227.45"/><line class="cls-1" x1="153" y1="1227.45" x2="171" y2="1227.45"/><polyline class="cls-1" points="114.5 1242.45 129 1227.45 147 1227.45"/><line class="cls-1" x1="303" y1="1227.45" x2="285" y2="1227.45"/><line class="cls-1" x1="327" y1="1227.45" x2="309" y2="1227.45"/><polyline class="cls-1" points="365.5 1242.45 351 1227.45 333 1227.45"/><line class="cls-1" x1="177" y1="1360.45" x2="195" y2="1360.45"/><line class="cls-1" x1="153" y1="1360.45" x2="171" y2="1360.45"/><polyline class="cls-1" points="114.5 1375.45 129 1360.45 147 1360.45"/><line class="cls-1" x1="303" y1="1360.45" x2="285" y2="1360.45"/><line class="cls-1" x1="327" y1="1360.45" x2="309" y2="1360.45"/><polyline class="cls-1" points="365.5 1375.45 351 1360.45 333 1360.45"/><path class="cls-2" d="M376.25,557v-5.92h7v1.25h-5.7v4h.19a3,3,0,0,1,.42-.62,2.82,2.82,0,0,1,.6-.52,3.14,3.14,0,0,1,.78-.36,3.18,3.18,0,0,1,1-.14,3.82,3.82,0,0,1,1.42.26,3.23,3.23,0,0,1,1.11.72,3.31,3.31,0,0,1,.73,1.12,3.86,3.86,0,0,1,.26,1.46v.29a4.44,4.44,0,0,1-.26,1.51,3.8,3.8,0,0,1-.75,1.26,3.52,3.52,0,0,1-1.23.87,4.21,4.21,0,0,1-1.7.32,4.8,4.8,0,0,1-1.73-.29,3.54,3.54,0,0,1-1.26-.8,3.38,3.38,0,0,1-.78-1.21,4.23,4.23,0,0,1-.26-1.51v-.45h1.34v.35a2.53,2.53,0,0,0,.74,2,2.81,2.81,0,0,0,1.94.66,2.6,2.6,0,0,0,1.13-.23,2.4,2.4,0,0,0,.82-.62,2.61,2.61,0,0,0,.49-.91,3.66,3.66,0,0,0,.16-1.08v-.1a2.54,2.54,0,0,0-.17-.93,2.36,2.36,0,0,0-.46-.75,2.13,2.13,0,0,0-.72-.5,2.3,2.3,0,0,0-.92-.18,1.88,1.88,0,0,0-.62.1,1.82,1.82,0,0,0-.49.25,1.49,1.49,0,0,0-.34.34,1.19,1.19,0,0,0-.18.37Z"/><path class="cls-2" d="M379.3,428.08v-9.36h-.19l-1.84,4.21h-1.33v-.1l2.1-4.7h2.61v10h3.17v1.25h-7.68v-1.25Z"/><path class="cls-2" d="M385.75,422.48a5,5,0,0,1,1-3.38,4.1,4.1,0,0,1,5.79,0,5,5,0,0,1,1,3.38V425a5,5,0,0,1-1,3.41,4.17,4.17,0,0,1-5.79,0,5,5,0,0,1-1-3.41Zm3.94,5.86a2.24,2.24,0,0,0,1.94-.9,4.33,4.33,0,0,0,.65-2.55v-2.3a5.72,5.72,0,0,0-.16-1.4,3.18,3.18,0,0,0-.49-1.09,2.33,2.33,0,0,0-.82-.71,2.63,2.63,0,0,0-2.26,0,2.35,2.35,0,0,0-.81.71,3.17,3.17,0,0,0-.49,1.09,5.72,5.72,0,0,0-.16,1.4v2.3a4.33,4.33,0,0,0,.65,2.55A2.24,2.24,0,0,0,389.69,428.33Zm-1-4.61a1,1,0,1,1,.3.72A1,1,0,0,1,388.66,423.73Z"/><path class="cls-2" d="M379.3,295.08v-9.36h-.19l-1.84,4.21h-1.33v-.1l2.1-4.7h2.61v10h3.17v1.25h-7.68v-1.25Z"/><path class="cls-2" d="M386,291v-5.92h7v1.25h-5.7v4h.19a3,3,0,0,1,.42-.62,2.82,2.82,0,0,1,.6-.52,3.14,3.14,0,0,1,.78-.36,3.18,3.18,0,0,1,1-.14,3.82,3.82,0,0,1,1.42.26,3.23,3.23,0,0,1,1.11.72,3.31,3.31,0,0,1,.73,1.12,3.86,3.86,0,0,1,.26,1.46v.29a4.44,4.44,0,0,1-.26,1.51,3.8,3.8,0,0,1-.75,1.26,3.52,3.52,0,0,1-1.23.87,4.21,4.21,0,0,1-1.7.32,4.8,4.8,0,0,1-1.73-.29,3.54,3.54,0,0,1-1.26-.8,3.38,3.38,0,0,1-.78-1.21,4.23,4.23,0,0,1-.26-1.51v-.45h1.34v.35a2.53,2.53,0,0,0,.74,2,2.81,2.81,0,0,0,1.94.66,2.6,2.6,0,0,0,1.13-.23,2.4,2.4,0,0,0,.82-.62,2.61,2.61,0,0,0,.49-.91,3.66,3.66,0,0,0,.16-1.08v-.1a2.54,2.54,0,0,0-.17-.93,2.36,2.36,0,0,0-.46-.75,2.13,2.13,0,0,0-.72-.5,2.3,2.3,0,0,0-.92-.18,1.88,1.88,0,0,0-.62.1,1.82,1.82,0,0,0-.49.25,1.49,1.49,0,0,0-.34.34,1.19,1.19,0,0,0-.18.37Z"/><path class="cls-2" d="M383.7,162.08v1.25h-7.58v-1.92a3.22,3.22,0,0,1,.26-1.34,2.79,2.79,0,0,1,.73-1,4.08,4.08,0,0,1,1.14-.68,9.82,9.82,0,0,1,1.52-.46,4.44,4.44,0,0,0,2.06-.91,1.92,1.92,0,0,0,.63-1.46v-.1a2.57,2.57,0,0,0-.14-.85,2.14,2.14,0,0,0-1.22-1.29,2.89,2.89,0,0,0-1.13-.2,2.44,2.44,0,0,0-1.91.75,2.87,2.87,0,0,0-.68,2v.7H376v-.8a4.28,4.28,0,0,1,.26-1.47,3.71,3.71,0,0,1,.75-1.25,3.57,3.57,0,0,1,1.23-.86,4.22,4.22,0,0,1,1.7-.32,4.44,4.44,0,0,1,1.7.3,3.54,3.54,0,0,1,1.2.78,3.16,3.16,0,0,1,.71,1.1,3.54,3.54,0,0,1,.23,1.26v.29a3.18,3.18,0,0,1-.8,2.18,4.64,4.64,0,0,1-2.56,1.29,5.83,5.83,0,0,0-2.26.89,1.9,1.9,0,0,0-.72,1.61v.48Z"/><path class="cls-2" d="M385.75,156.48a5,5,0,0,1,1-3.38,4.1,4.1,0,0,1,5.79,0,5,5,0,0,1,1,3.38V159a5,5,0,0,1-1,3.41,4.17,4.17,0,0,1-5.79,0,5,5,0,0,1-1-3.41Zm3.94,5.86a2.24,2.24,0,0,0,1.94-.9,4.33,4.33,0,0,0,.65-2.55v-2.3a5.72,5.72,0,0,0-.16-1.4,3.18,3.18,0,0,0-.49-1.09,2.33,2.33,0,0,0-.82-.71,2.63,2.63,0,0,0-2.26,0,2.35,2.35,0,0,0-.81.71,3.17,3.17,0,0,0-.49,1.09,5.72,5.72,0,0,0-.16,1.4v2.3a4.33,4.33,0,0,0,.65,2.55A2.24,2.24,0,0,0,389.69,162.33Zm-1-4.61a1,1,0,1,1,.3.72A1,1,0,0,1,388.66,157.73Z"/><path class="cls-2" d="M383.7,29.08v1.25h-7.58V28.41a3.22,3.22,0,0,1,.26-1.34,2.79,2.79,0,0,1,.73-1,4.08,4.08,0,0,1,1.14-.68,9.82,9.82,0,0,1,1.52-.46,4.44,4.44,0,0,0,2.06-.91,1.92,1.92,0,0,0,.63-1.46v-.1a2.57,2.57,0,0,0-.14-.85,2.14,2.14,0,0,0-1.22-1.29,2.89,2.89,0,0,0-1.13-.2,2.44,2.44,0,0,0-1.91.75,2.87,2.87,0,0,0-.68,2v.7H376v-.8a4.28,4.28,0,0,1,.26-1.47,3.71,3.71,0,0,1,.75-1.25,3.57,3.57,0,0,1,1.23-.86,4.22,4.22,0,0,1,1.7-.32,4.44,4.44,0,0,1,1.7.3,3.54,3.54,0,0,1,1.2.78,3.16,3.16,0,0,1,.71,1.1,3.54,3.54,0,0,1,.23,1.26v.29a3.18,3.18,0,0,1-.8,2.18,4.64,4.64,0,0,1-2.56,1.29,5.83,5.83,0,0,0-2.26.89,1.9,1.9,0,0,0-.72,1.61v.48Z"/><path class="cls-2" d="M386,25V19.13h7v1.25h-5.7v4h.19a3,3,0,0,1,.42-.62,2.82,2.82,0,0,1,.6-.52,3.14,3.14,0,0,1,.78-.36,3.18,3.18,0,0,1,1-.14,3.82,3.82,0,0,1,1.42.26,3.23,3.23,0,0,1,1.11.72,3.31,3.31,0,0,1,.73,1.12,3.86,3.86,0,0,1,.26,1.46v.29a4.44,4.44,0,0,1-.26,1.51,3.8,3.8,0,0,1-.75,1.26,3.52,3.52,0,0,1-1.23.87,4.21,4.21,0,0,1-1.7.32,4.8,4.8,0,0,1-1.73-.29,3.54,3.54,0,0,1-1.26-.8,3.38,3.38,0,0,1-.78-1.21,4.23,4.23,0,0,1-.26-1.51v-.45h1.34v.35a2.53,2.53,0,0,0,.74,2,2.81,2.81,0,0,0,1.94.66,2.6,2.6,0,0,0,1.13-.23,2.4,2.4,0,0,0,.82-.62,2.61,2.61,0,0,0,.49-.91,3.66,3.66,0,0,0,.16-1.08v-.1a2.54,2.54,0,0,0-.17-.93,2.36,2.36,0,0,0-.46-.75,2.13,2.13,0,0,0-.72-.5,2.3,2.3,0,0,0-.92-.18,1.88,1.88,0,0,0-.62.1,1.82,1.82,0,0,0-.49.25,1.49,1.49,0,0,0-.34.34,1.19,1.19,0,0,0-.18.37Z"/><path class="cls-2" d="M95.46,557v-5.92h7v1.25h-5.7v4H97a3,3,0,0,1,.42-.62,2.82,2.82,0,0,1,.6-.52,3.14,3.14,0,0,1,.78-.36,3.18,3.18,0,0,1,1-.14,3.82,3.82,0,0,1,1.42.26,3.23,3.23,0,0,1,1.11.72,3.31,3.31,0,0,1,.73,1.12,3.86,3.86,0,0,1,.26,1.46v.29a4.44,4.44,0,0,1-.26,1.51,3.8,3.8,0,0,1-.75,1.26,3.52,3.52,0,0,1-1.23.87,4.21,4.21,0,0,1-1.7.32,4.8,4.8,0,0,1-1.73-.29,3.54,3.54,0,0,1-1.26-.8,3.38,3.38,0,0,1-.78-1.21,4.23,4.23,0,0,1-.26-1.51v-.45h1.34v.35a2.53,2.53,0,0,0,.74,2,2.81,2.81,0,0,0,1.94.66,2.6,2.6,0,0,0,1.13-.23,2.4,2.4,0,0,0,.82-.62,2.61,2.61,0,0,0,.49-.91,3.66,3.66,0,0,0,.16-1.08v-.1a2.54,2.54,0,0,0-.17-.93,2.36,2.36,0,0,0-.46-.75,2.13,2.13,0,0,0-.72-.5,2.3,2.3,0,0,0-.92-.18,1.88,1.88,0,0,0-.62.1,1.82,1.82,0,0,0-.49.25,1.49,1.49,0,0,0-.34.34A1.19,1.19,0,0,0,98,557Z"/><path class="cls-2" d="M378.5,838.31h4.8v1.15h-4.8Z"/><path class="cls-2" d="M387,837.77v-5.92h7v1.25h-5.7v4h.19a3,3,0,0,1,.42-.62,2.82,2.82,0,0,1,.6-.52,3.14,3.14,0,0,1,.78-.36,3.18,3.18,0,0,1,1-.14,3.82,3.82,0,0,1,1.42.26,3.23,3.23,0,0,1,1.11.72,3.31,3.31,0,0,1,.73,1.12,3.86,3.86,0,0,1,.26,1.46v.29a4.44,4.44,0,0,1-.26,1.51,3.8,3.8,0,0,1-.75,1.26,3.52,3.52,0,0,1-1.23.87,4.21,4.21,0,0,1-1.7.32,4.8,4.8,0,0,1-1.73-.29,3.54,3.54,0,0,1-1.26-.8,3.38,3.38,0,0,1-.78-1.21,4.23,4.23,0,0,1-.26-1.51V839h1.34v.35a2.53,2.53,0,0,0,.74,2,2.81,2.81,0,0,0,1.94.66,2.6,2.6,0,0,0,1.13-.23,2.4,2.4,0,0,0,.82-.62,2.61,2.61,0,0,0,.49-.91,3.66,3.66,0,0,0,.16-1.08v-.1a2.54,2.54,0,0,0-.17-.93,2.36,2.36,0,0,0-.46-.75,2.13,2.13,0,0,0-.72-.5,2.3,2.3,0,0,0-.92-.18,1.88,1.88,0,0,0-.62.1,1.82,1.82,0,0,0-.49.25,1.49,1.49,0,0,0-.34.34,1.19,1.19,0,0,0-.18.37Z"/><path class="cls-2" d="M87.91,838.31h4.8v1.15h-4.8Z"/><path class="cls-2" d="M96.46,837.77v-5.92h7v1.25h-5.7v4H98a3,3,0,0,1,.42-.62A2.82,2.82,0,0,1,99,836a3.14,3.14,0,0,1,.78-.36,3.18,3.18,0,0,1,1-.14,3.82,3.82,0,0,1,1.42.26,3.23,3.23,0,0,1,1.11.72,3.31,3.31,0,0,1,.73,1.12,3.86,3.86,0,0,1,.26,1.46v.29a4.44,4.44,0,0,1-.26,1.51,3.8,3.8,0,0,1-.75,1.26A3.52,3.52,0,0,1,102,843a4.21,4.21,0,0,1-1.7.32,4.8,4.8,0,0,1-1.73-.29,3.54,3.54,0,0,1-1.26-.8,3.38,3.38,0,0,1-.78-1.21,4.23,4.23,0,0,1-.26-1.51V839h1.34v.35a2.53,2.53,0,0,0,.74,2,2.81,2.81,0,0,0,1.94.66,2.6,2.6,0,0,0,1.13-.23,2.4,2.4,0,0,0,.82-.62,2.61,2.61,0,0,0,.49-.91,3.66,3.66,0,0,0,.16-1.08v-.1a2.54,2.54,0,0,0-.17-.93,2.36,2.36,0,0,0-.46-.75,2.13,2.13,0,0,0-.72-.5,2.3,2.3,0,0,0-.92-.18,1.88,1.88,0,0,0-.62.1,1.82,1.82,0,0,0-.49.25,1.49,1.49,0,0,0-.34.34,1.19,1.19,0,0,0-.18.37Z"/><path class="cls-2" d="M88.72,428.08v-9.36h-.19l-1.84,4.21H85.36v-.1l2.1-4.7h2.61v10h3.17v1.25H85.55v-1.25Z"/><path class="cls-2" d="M95.17,422.48a5,5,0,0,1,1-3.38,4.1,4.1,0,0,1,5.79,0,5,5,0,0,1,1,3.38V425a5,5,0,0,1-1,3.41,4.17,4.17,0,0,1-5.79,0,5,5,0,0,1-1-3.41Zm3.94,5.86a2.24,2.24,0,0,0,1.94-.9,4.33,4.33,0,0,0,.65-2.55v-2.3a5.72,5.72,0,0,0-.16-1.4,3.18,3.18,0,0,0-.49-1.09,2.33,2.33,0,0,0-.82-.71,2.63,2.63,0,0,0-2.26,0,2.35,2.35,0,0,0-.81.71,3.17,3.17,0,0,0-.49,1.09,5.72,5.72,0,0,0-.16,1.4v2.3a4.33,4.33,0,0,0,.65,2.55A2.24,2.24,0,0,0,99.1,428.33Zm-1-4.61a1,1,0,1,1,.3.72A1,1,0,0,1,98.08,423.73Z"/><path class="cls-2" d="M377.5,971.59h4.8v1.15h-4.8Z"/><path class="cls-2" d="M389.1,975.08v-9.36h-.19l-1.84,4.21h-1.33v-.1l2.1-4.7h2.61v10h3.17v1.25h-7.68v-1.25Z"/><path class="cls-2" d="M395.54,969.48a5,5,0,0,1,1-3.38,4.1,4.1,0,0,1,5.79,0,5,5,0,0,1,1,3.38V972a5,5,0,0,1-1,3.41,4.17,4.17,0,0,1-5.79,0,5,5,0,0,1-1-3.41Zm3.94,5.86a2.24,2.24,0,0,0,1.94-.9,4.33,4.33,0,0,0,.65-2.55v-2.3a5.72,5.72,0,0,0-.16-1.4,3.18,3.18,0,0,0-.49-1.09,2.33,2.33,0,0,0-.82-.71,2.63,2.63,0,0,0-2.26,0,2.35,2.35,0,0,0-.81.71,3.17,3.17,0,0,0-.49,1.09,5.72,5.72,0,0,0-.16,1.4v2.3a4.33,4.33,0,0,0,.65,2.55A2.24,2.24,0,0,0,399.48,975.33Zm-1-4.61a1,1,0,1,1,.3.72A1,1,0,0,1,398.46,970.73Z"/><path class="cls-2" d="M77.12,971.59h4.8v1.15h-4.8Z"/><path class="cls-2" d="M88.72,975.08v-9.36h-.19l-1.84,4.21H85.36v-.1l2.1-4.7h2.61v10h3.17v1.25H85.55v-1.25Z"/><path class="cls-2" d="M95.17,969.48a5,5,0,0,1,1-3.38,4.1,4.1,0,0,1,5.79,0,5,5,0,0,1,1,3.38V972a5,5,0,0,1-1,3.41,4.17,4.17,0,0,1-5.79,0,5,5,0,0,1-1-3.41Zm3.94,5.86a2.24,2.24,0,0,0,1.94-.9,4.33,4.33,0,0,0,.65-2.55v-2.3a5.72,5.72,0,0,0-.16-1.4,3.18,3.18,0,0,0-.49-1.09,2.33,2.33,0,0,0-.82-.71,2.63,2.63,0,0,0-2.26,0,2.35,2.35,0,0,0-.81.71,3.17,3.17,0,0,0-.49,1.09,5.72,5.72,0,0,0-.16,1.4v2.3a4.33,4.33,0,0,0,.65,2.55A2.24,2.24,0,0,0,99.1,975.33Zm-1-4.61a1,1,0,1,1,.3.72A1,1,0,0,1,98.08,970.73Z"/><path class="cls-2" d="M88.72,295.08v-9.36h-.19l-1.84,4.21H85.36v-.1l2.1-4.7h2.61v10h3.17v1.25H85.55v-1.25Z"/><path class="cls-2" d="M95.46,291v-5.92h7v1.25h-5.7v4H97a3,3,0,0,1,.42-.62,2.82,2.82,0,0,1,.6-.52,3.14,3.14,0,0,1,.78-.36,3.18,3.18,0,0,1,1-.14,3.82,3.82,0,0,1,1.42.26,3.23,3.23,0,0,1,1.11.72,3.31,3.31,0,0,1,.73,1.12,3.86,3.86,0,0,1,.26,1.46v.29a4.44,4.44,0,0,1-.26,1.51,3.8,3.8,0,0,1-.75,1.26,3.52,3.52,0,0,1-1.23.87,4.21,4.21,0,0,1-1.7.32,4.8,4.8,0,0,1-1.73-.29,3.54,3.54,0,0,1-1.26-.8,3.38,3.38,0,0,1-.78-1.21,4.23,4.23,0,0,1-.26-1.51v-.45h1.34v.35a2.53,2.53,0,0,0,.74,2,2.81,2.81,0,0,0,1.94.66,2.6,2.6,0,0,0,1.13-.23,2.4,2.4,0,0,0,.82-.62,2.61,2.61,0,0,0,.49-.91,3.66,3.66,0,0,0,.16-1.08v-.1a2.54,2.54,0,0,0-.17-.93,2.36,2.36,0,0,0-.46-.75,2.13,2.13,0,0,0-.72-.5,2.3,2.3,0,0,0-.92-.18,1.88,1.88,0,0,0-.62.1,1.82,1.82,0,0,0-.49.25,1.49,1.49,0,0,0-.34.34A1.19,1.19,0,0,0,98,291Z"/><path class="cls-2" d="M377.5,1104.59h4.8v1.15h-4.8Z"/><path class="cls-2" d="M389.1,1108.08v-9.36h-.19l-1.84,4.21h-1.33v-.1l2.1-4.7h2.61v10h3.17v1.25h-7.68v-1.25Z"/><path class="cls-2" d="M395.83,1104v-5.92h7v1.25h-5.7v4h.19a3,3,0,0,1,.42-.62,2.82,2.82,0,0,1,.6-.52,3.14,3.14,0,0,1,.78-.36,3.18,3.18,0,0,1,1-.14,3.82,3.82,0,0,1,1.42.26,3.23,3.23,0,0,1,1.11.72,3.31,3.31,0,0,1,.73,1.12,3.86,3.86,0,0,1,.26,1.46v.29a4.44,4.44,0,0,1-.26,1.51,3.8,3.8,0,0,1-.75,1.26,3.52,3.52,0,0,1-1.23.87,4.21,4.21,0,0,1-1.7.32,4.8,4.8,0,0,1-1.73-.29,3.54,3.54,0,0,1-1.26-.8,3.38,3.38,0,0,1-.78-1.21,4.23,4.23,0,0,1-.26-1.51v-.45H397v.35a2.53,2.53,0,0,0,.74,2,2.81,2.81,0,0,0,1.94.66,2.6,2.6,0,0,0,1.13-.23,2.4,2.4,0,0,0,.82-.62,2.61,2.61,0,0,0,.49-.91,3.66,3.66,0,0,0,.16-1.08v-.1a2.54,2.54,0,0,0-.17-.93,2.36,2.36,0,0,0-.46-.75,2.13,2.13,0,0,0-.72-.5,2.3,2.3,0,0,0-.92-.18,1.88,1.88,0,0,0-.62.1,1.82,1.82,0,0,0-.49.25,1.49,1.49,0,0,0-.34.34,1.19,1.19,0,0,0-.18.37Z"/><path class="cls-2" d="M77.12,1104.59h4.8v1.15h-4.8Z"/><path class="cls-2" d="M88.72,1108.08v-9.36h-.19l-1.84,4.21H85.36v-.1l2.1-4.7h2.61v10h3.17v1.25H85.55v-1.25Z"/><path class="cls-2" d="M95.46,1104v-5.92h7v1.25h-5.7v4H97a3,3,0,0,1,.42-.62,2.82,2.82,0,0,1,.6-.52,3.14,3.14,0,0,1,.78-.36,3.18,3.18,0,0,1,1-.14,3.82,3.82,0,0,1,1.42.26,3.23,3.23,0,0,1,1.11.72,3.31,3.31,0,0,1,.73,1.12,3.86,3.86,0,0,1,.26,1.46v.29a4.44,4.44,0,0,1-.26,1.51,3.8,3.8,0,0,1-.75,1.26,3.52,3.52,0,0,1-1.23.87,4.21,4.21,0,0,1-1.7.32,4.8,4.8,0,0,1-1.73-.29,3.54,3.54,0,0,1-1.26-.8,3.38,3.38,0,0,1-.78-1.21,4.23,4.23,0,0,1-.26-1.51v-.45h1.34v.35a2.53,2.53,0,0,0,.74,2,2.81,2.81,0,0,0,1.94.66,2.6,2.6,0,0,0,1.13-.23,2.4,2.4,0,0,0,.82-.62,2.61,2.61,0,0,0,.49-.91,3.66,3.66,0,0,0,.16-1.08v-.1a2.54,2.54,0,0,0-.17-.93,2.36,2.36,0,0,0-.46-.75,2.13,2.13,0,0,0-.72-.5,2.3,2.3,0,0,0-.92-.18,1.88,1.88,0,0,0-.62.1,1.82,1.82,0,0,0-.49.25,1.49,1.49,0,0,0-.34.34,1.19,1.19,0,0,0-.18.37Z"/><path class="cls-2" d="M93.12,162.08v1.25H85.54v-1.92a3.22,3.22,0,0,1,.26-1.34,2.79,2.79,0,0,1,.73-1,4.08,4.08,0,0,1,1.14-.68,9.82,9.82,0,0,1,1.52-.46,4.44,4.44,0,0,0,2.06-.91,1.92,1.92,0,0,0,.63-1.46v-.1a2.57,2.57,0,0,0-.14-.85,2.14,2.14,0,0,0-1.22-1.29,2.89,2.89,0,0,0-1.13-.2,2.44,2.44,0,0,0-1.91.75,2.87,2.87,0,0,0-.68,2v.7H85.44v-.8a4.28,4.28,0,0,1,.26-1.47,3.71,3.71,0,0,1,.75-1.25,3.57,3.57,0,0,1,1.23-.86,4.22,4.22,0,0,1,1.7-.32,4.44,4.44,0,0,1,1.7.3,3.54,3.54,0,0,1,1.2.78,3.16,3.16,0,0,1,.71,1.1,3.54,3.54,0,0,1,.23,1.26v.29a3.18,3.18,0,0,1-.8,2.18,4.64,4.64,0,0,1-2.56,1.29,5.83,5.83,0,0,0-2.26.89,1.9,1.9,0,0,0-.72,1.61v.48Z"/><path class="cls-2" d="M95.17,156.48a5,5,0,0,1,1-3.38,4.1,4.1,0,0,1,5.79,0,5,5,0,0,1,1,3.38V159a5,5,0,0,1-1,3.41,4.17,4.17,0,0,1-5.79,0,5,5,0,0,1-1-3.41Zm3.94,5.86a2.24,2.24,0,0,0,1.94-.9,4.33,4.33,0,0,0,.65-2.55v-2.3a5.72,5.72,0,0,0-.16-1.4,3.18,3.18,0,0,0-.49-1.09,2.33,2.33,0,0,0-.82-.71,2.63,2.63,0,0,0-2.26,0,2.35,2.35,0,0,0-.81.71,3.17,3.17,0,0,0-.49,1.09,5.72,5.72,0,0,0-.16,1.4v2.3a4.33,4.33,0,0,0,.65,2.55A2.24,2.24,0,0,0,99.1,162.33Zm-1-4.61a1,1,0,1,1,.3.72A1,1,0,0,1,98.08,157.73Z"/><path class="cls-2" d="M377.5,1237.59h4.8v1.15h-4.8Z"/><path class="cls-2" d="M393.5,1241.08v1.25h-7.58v-1.92a3.22,3.22,0,0,1,.26-1.34,2.79,2.79,0,0,1,.73-1,4.08,4.08,0,0,1,1.14-.68,9.82,9.82,0,0,1,1.52-.46,4.44,4.44,0,0,0,2.06-.91,1.92,1.92,0,0,0,.63-1.46v-.1a2.57,2.57,0,0,0-.14-.85,2.14,2.14,0,0,0-1.22-1.29,2.89,2.89,0,0,0-1.13-.2,2.44,2.44,0,0,0-1.91.75,2.87,2.87,0,0,0-.68,2v.7h-1.34v-.8a4.28,4.28,0,0,1,.26-1.47,3.71,3.71,0,0,1,.75-1.25,3.57,3.57,0,0,1,1.23-.86,4.22,4.22,0,0,1,1.7-.32,4.44,4.44,0,0,1,1.7.3,3.54,3.54,0,0,1,1.2.78,3.16,3.16,0,0,1,.71,1.1,3.54,3.54,0,0,1,.23,1.26v.29a3.18,3.18,0,0,1-.8,2.18,4.64,4.64,0,0,1-2.56,1.29,5.83,5.83,0,0,0-2.26.89,1.9,1.9,0,0,0-.72,1.61v.48Z"/><path class="cls-2" d="M395.54,1235.48a5,5,0,0,1,1-3.38,4.1,4.1,0,0,1,5.79,0,5,5,0,0,1,1,3.38v2.5a5,5,0,0,1-1,3.41,4.17,4.17,0,0,1-5.79,0,5,5,0,0,1-1-3.41Zm3.94,5.86a2.24,2.24,0,0,0,1.94-.9,4.33,4.33,0,0,0,.65-2.55v-2.3a5.72,5.72,0,0,0-.16-1.4,3.18,3.18,0,0,0-.49-1.09,2.33,2.33,0,0,0-.82-.71,2.63,2.63,0,0,0-2.26,0,2.35,2.35,0,0,0-.81.71,3.17,3.17,0,0,0-.49,1.09,5.72,5.72,0,0,0-.16,1.4v2.3a4.33,4.33,0,0,0,.65,2.55A2.24,2.24,0,0,0,399.48,1241.33Zm-1-4.61a1,1,0,1,1,.3.72A1,1,0,0,1,398.46,1236.73Z"/><path class="cls-2" d="M77.12,1237.59h4.8v1.15h-4.8Z"/><path class="cls-2" d="M93.12,1241.08v1.25H85.54v-1.92a3.22,3.22,0,0,1,.26-1.34,2.79,2.79,0,0,1,.73-1,4.08,4.08,0,0,1,1.14-.68,9.82,9.82,0,0,1,1.52-.46,4.44,4.44,0,0,0,2.06-.91,1.92,1.92,0,0,0,.63-1.46v-.1a2.57,2.57,0,0,0-.14-.85,2.14,2.14,0,0,0-1.22-1.29,2.89,2.89,0,0,0-1.13-.2,2.44,2.44,0,0,0-1.91.75,2.87,2.87,0,0,0-.68,2v.7H85.44v-.8a4.28,4.28,0,0,1,.26-1.47,3.71,3.71,0,0,1,.75-1.25,3.57,3.57,0,0,1,1.23-.86,4.22,4.22,0,0,1,1.7-.32,4.44,4.44,0,0,1,1.7.3,3.54,3.54,0,0,1,1.2.78,3.16,3.16,0,0,1,.71,1.1,3.54,3.54,0,0,1,.23,1.26v.29a3.18,3.18,0,0,1-.8,2.18,4.64,4.64,0,0,1-2.56,1.29,5.83,5.83,0,0,0-2.26.89,1.9,1.9,0,0,0-.72,1.61v.48Z"/><path class="cls-2" d="M95.17,1235.48a5,5,0,0,1,1-3.38,4.1,4.1,0,0,1,5.79,0,5,5,0,0,1,1,3.38v2.5a5,5,0,0,1-1,3.41,4.17,4.17,0,0,1-5.79,0,5,5,0,0,1-1-3.41Zm3.94,5.86a2.24,2.24,0,0,0,1.94-.9,4.33,4.33,0,0,0,.65-2.55v-2.3a5.72,5.72,0,0,0-.16-1.4,3.18,3.18,0,0,0-.49-1.09,2.33,2.33,0,0,0-.82-.71,2.63,2.63,0,0,0-2.26,0,2.35,2.35,0,0,0-.81.71,3.17,3.17,0,0,0-.49,1.09,5.72,5.72,0,0,0-.16,1.4v2.3a4.33,4.33,0,0,0,.65,2.55A2.24,2.24,0,0,0,99.1,1241.33Zm-1-4.61a1,1,0,1,1,.3.72A1,1,0,0,1,98.08,1236.73Z"/><path class="cls-2" d="M93.12,29.08v1.25H85.54V28.41a3.22,3.22,0,0,1,.26-1.34,2.79,2.79,0,0,1,.73-1,4.08,4.08,0,0,1,1.14-.68A9.82,9.82,0,0,1,89.18,25,4.44,4.44,0,0,0,91.24,24a1.92,1.92,0,0,0,.63-1.46v-.1a2.57,2.57,0,0,0-.14-.85,2.14,2.14,0,0,0-1.22-1.29,2.89,2.89,0,0,0-1.13-.2,2.44,2.44,0,0,0-1.91.75,2.87,2.87,0,0,0-.68,2v.7H85.44v-.8a4.28,4.28,0,0,1,.26-1.47,3.71,3.71,0,0,1,.75-1.25,3.57,3.57,0,0,1,1.23-.86,4.22,4.22,0,0,1,1.7-.32,4.44,4.44,0,0,1,1.7.3,3.54,3.54,0,0,1,1.2.78,3.16,3.16,0,0,1,.71,1.1,3.54,3.54,0,0,1,.23,1.26v.29a3.18,3.18,0,0,1-.8,2.18,4.64,4.64,0,0,1-2.56,1.29A5.83,5.83,0,0,0,87.6,27a1.9,1.9,0,0,0-.72,1.61v.48Z"/><path class="cls-2" d="M95.46,25V19.13h7v1.25h-5.7v4H97a3,3,0,0,1,.42-.62,2.82,2.82,0,0,1,.6-.52,3.14,3.14,0,0,1,.78-.36,3.18,3.18,0,0,1,1-.14,3.82,3.82,0,0,1,1.42.26,3.23,3.23,0,0,1,1.11.72,3.31,3.31,0,0,1,.73,1.12,3.86,3.86,0,0,1,.26,1.46v.29a4.44,4.44,0,0,1-.26,1.51,3.8,3.8,0,0,1-.75,1.26,3.52,3.52,0,0,1-1.23.87,4.21,4.21,0,0,1-1.7.32,4.8,4.8,0,0,1-1.73-.29,3.54,3.54,0,0,1-1.26-.8,3.38,3.38,0,0,1-.78-1.21,4.23,4.23,0,0,1-.26-1.51v-.45h1.34v.35a2.53,2.53,0,0,0,.74,2,2.81,2.81,0,0,0,1.94.66,2.6,2.6,0,0,0,1.13-.23,2.4,2.4,0,0,0,.82-.62,2.61,2.61,0,0,0,.49-.91,3.66,3.66,0,0,0,.16-1.08v-.1a2.54,2.54,0,0,0-.17-.93,2.36,2.36,0,0,0-.46-.75,2.13,2.13,0,0,0-.72-.5,2.3,2.3,0,0,0-.92-.18,1.88,1.88,0,0,0-.62.1,1.82,1.82,0,0,0-.49.25,1.49,1.49,0,0,0-.34.34A1.19,1.19,0,0,0,98,25Z"/><path class="cls-2" d="M377.5,1370.59h4.8v1.15h-4.8Z"/><path class="cls-2" d="M393.5,1374.08v1.25h-7.58v-1.92a3.22,3.22,0,0,1,.26-1.34,2.79,2.79,0,0,1,.73-1,4.08,4.08,0,0,1,1.14-.68,9.82,9.82,0,0,1,1.52-.46,4.44,4.44,0,0,0,2.06-.91,1.92,1.92,0,0,0,.63-1.46v-.1a2.57,2.57,0,0,0-.14-.85,2.14,2.14,0,0,0-1.22-1.29,2.89,2.89,0,0,0-1.13-.2,2.44,2.44,0,0,0-1.91.75,2.87,2.87,0,0,0-.68,2v.7h-1.34v-.8a4.28,4.28,0,0,1,.26-1.47,3.71,3.71,0,0,1,.75-1.25,3.57,3.57,0,0,1,1.23-.86,4.22,4.22,0,0,1,1.7-.32,4.44,4.44,0,0,1,1.7.3,3.54,3.54,0,0,1,1.2.78,3.16,3.16,0,0,1,.71,1.1,3.54,3.54,0,0,1,.23,1.26v.29a3.18,3.18,0,0,1-.8,2.18,4.64,4.64,0,0,1-2.56,1.29,5.83,5.83,0,0,0-2.26.89,1.9,1.9,0,0,0-.72,1.61v.48Z"/><path class="cls-2" d="M395.83,1370v-5.92h7v1.25h-5.7v4h.19a3,3,0,0,1,.42-.62,2.82,2.82,0,0,1,.6-.52,3.14,3.14,0,0,1,.78-.36,3.18,3.18,0,0,1,1-.14,3.82,3.82,0,0,1,1.42.26,3.23,3.23,0,0,1,1.11.72,3.31,3.31,0,0,1,.73,1.12,3.86,3.86,0,0,1,.26,1.46v.29a4.44,4.44,0,0,1-.26,1.51,3.8,3.8,0,0,1-.75,1.26,3.52,3.52,0,0,1-1.23.87,4.21,4.21,0,0,1-1.7.32,4.8,4.8,0,0,1-1.73-.29,3.54,3.54,0,0,1-1.26-.8,3.38,3.38,0,0,1-.78-1.21,4.23,4.23,0,0,1-.26-1.51v-.45H397v.35a2.53,2.53,0,0,0,.74,2,2.81,2.81,0,0,0,1.94.66,2.6,2.6,0,0,0,1.13-.23,2.4,2.4,0,0,0,.82-.62,2.61,2.61,0,0,0,.49-.91,3.66,3.66,0,0,0,.16-1.08v-.1a2.54,2.54,0,0,0-.17-.93,2.36,2.36,0,0,0-.46-.75,2.13,2.13,0,0,0-.72-.5,2.3,2.3,0,0,0-.92-.18,1.88,1.88,0,0,0-.62.1,1.82,1.82,0,0,0-.49.25,1.49,1.49,0,0,0-.34.34,1.19,1.19,0,0,0-.18.37Z"/><path class="cls-2" d="M77.12,1370.59h4.8v1.15h-4.8Z"/><path class="cls-2" d="M93.12,1374.08v1.25H85.54v-1.92a3.22,3.22,0,0,1,.26-1.34,2.79,2.79,0,0,1,.73-1,4.08,4.08,0,0,1,1.14-.68,9.82,9.82,0,0,1,1.52-.46,4.44,4.44,0,0,0,2.06-.91,1.92,1.92,0,0,0,.63-1.46v-.1a2.57,2.57,0,0,0-.14-.85,2.14,2.14,0,0,0-1.22-1.29,2.89,2.89,0,0,0-1.13-.2,2.44,2.44,0,0,0-1.91.75,2.87,2.87,0,0,0-.68,2v.7H85.44v-.8a4.28,4.28,0,0,1,.26-1.47,3.71,3.71,0,0,1,.75-1.25,3.57,3.57,0,0,1,1.23-.86,4.22,4.22,0,0,1,1.7-.32,4.44,4.44,0,0,1,1.7.3,3.54,3.54,0,0,1,1.2.78,3.16,3.16,0,0,1,.71,1.1,3.54,3.54,0,0,1,.23,1.26v.29a3.18,3.18,0,0,1-.8,2.18,4.64,4.64,0,0,1-2.56,1.29,5.83,5.83,0,0,0-2.26.89,1.9,1.9,0,0,0-.72,1.61v.48Z"/><path class="cls-2" d="M95.46,1370v-5.92h7v1.25h-5.7v4H97a3,3,0,0,1,.42-.62,2.82,2.82,0,0,1,.6-.52,3.14,3.14,0,0,1,.78-.36,3.18,3.18,0,0,1,1-.14,3.82,3.82,0,0,1,1.42.26,3.23,3.23,0,0,1,1.11.72,3.31,3.31,0,0,1,.73,1.12,3.86,3.86,0,0,1,.26,1.46v.29a4.44,4.44,0,0,1-.26,1.51,3.8,3.8,0,0,1-.75,1.26,3.52,3.52,0,0,1-1.23.87,4.21,4.21,0,0,1-1.7.32,4.8,4.8,0,0,1-1.73-.29,3.54,3.54,0,0,1-1.26-.8,3.38,3.38,0,0,1-.78-1.21,4.23,4.23,0,0,1-.26-1.51v-.45h1.34v.35a2.53,2.53,0,0,0,.74,2,2.81,2.81,0,0,0,1.94.66,2.6,2.6,0,0,0,1.13-.23,2.4,2.4,0,0,0,.82-.62,2.61,2.61,0,0,0,.49-.91,3.66,3.66,0,0,0,.16-1.08v-.1a2.54,2.54,0,0,0-.17-.93,2.36,2.36,0,0,0-.46-.75,2.13,2.13,0,0,0-.72-.5,2.3,2.3,0,0,0-.92-.18,1.88,1.88,0,0,0-.62.1,1.82,1.82,0,0,0-.49.25,1.49,1.49,0,0,0-.34.34,1.19,1.19,0,0,0-.18.37Z"/><line class="cls-1" x1="15" y1="694.45" x2="195" y2="694.45"/><line class="cls-1" x1="285" y1="694.45" x2="465" y2="694.45"/><line class="cls-1" x1="303" y1="429.45" x2="285" y2="429.45"/><line class="cls-1" x1="327" y1="429.45" x2="309" y2="429.45"/><polyline class="cls-1" points="365.5 414.45 351 429.45 333 429.45"/><line class="cls-1" x1="177" y1="429.45" x2="195" y2="429.45"/><line class="cls-1" x1="153" y1="429.45" x2="171" y2="429.45"/><polyline class="cls-1" points="114.5 414.45 129 429.45 147 429.45"/><line class="cls-1" x1="303" y1="562.45" x2="285" y2="562.45"/><line class="cls-1" x1="327" y1="562.45" x2="309" y2="562.45"/><polyline class="cls-1" points="365.5 547.45 351 562.45 333 562.45"/><line class="cls-1" x1="177" y1="562.45" x2="195" y2="562.45"/><line class="cls-1" x1="153" y1="562.45" x2="171" y2="562.45"/><polyline class="cls-1" points="114.5 547.45 129 562.45 147 562.45"/><line class="cls-1" x1="303" y1="296.45" x2="285" y2="296.45"/><line class="cls-1" x1="327" y1="296.45" x2="309" y2="296.45"/><polyline class="cls-1" points="365.5 281.45 351 296.45 333 296.45"/><line class="cls-1" x1="177" y1="296.45" x2="195" y2="296.45"/><line class="cls-1" x1="153" y1="296.45" x2="171" y2="296.45"/><polyline class="cls-1" points="114.5 281.45 129 296.45 147 296.45"/><line class="cls-1" x1="303" y1="163.45" x2="285" y2="163.45"/><line class="cls-1" x1="327" y1="163.45" x2="309" y2="163.45"/><polyline class="cls-1" points="365.5 148.45 351 163.45 333 163.45"/><line class="cls-1" x1="177" y1="163.45" x2="195" y2="163.45"/><line class="cls-1" x1="153" y1="163.45" x2="171" y2="163.45"/><polyline class="cls-1" points="114.5 148.45 129 163.45 147 163.45"/><line class="cls-1" x1="303" y1="30.45" x2="285" y2="30.45"/><line class="cls-1" x1="327" y1="30.45" x2="309" y2="30.45"/><polyline class="cls-1" points="365.5 15.45 351 30.45 333 30.45"/><line class="cls-1" x1="177" y1="30.45" x2="195" y2="30.45"/><line class="cls-1" x1="153" y1="30.45" x2="171" y2="30.45"/><polyline class="cls-1" points="114.5 15.45 129 30.45 147 30.45"/><line class="cls-1" x1="54.5" y1="679.95" x2="54.5" y2="709.95"/><line class="cls-1" x1="425.5" y1="679.95" x2="425.5" y2="709.95"/><line class="cls-1" x1="314.5" y1="687.45" x2="314.5" y2="702.45"/><line class="cls-1" x1="164.5" y1="687.95" x2="164.5" y2="702.95"/></svg>