<svg id="Layer_1" data-name="Layer 1" xmlns="http://www.w3.org/2000/svg" viewBox="0 0 810.44 428.37"><defs><style>.cls-1{fill:gray;}</style></defs><title>Artboard 12</title><rect class="cls-1" x="722.44" y="15.03" width="2.67" height="2.67"/><polygon class="cls-1" points="773.11 17.7 775.77 17.7 775.77 15.03 773.11 15.03 770.44 15.03 767.77 15.03 767.77 17.7 770.44 17.7 773.11 17.7"/><polygon class="cls-1" points="722.44 20.37 722.44 17.7 719.77 17.7 717.11 17.7 717.11 20.37 719.77 20.37 722.44 20.37"/><rect class="cls-1" x="783.77" y="23.03" width="2.67" height="2.67"/><polygon class="cls-1" points="783.77 31.03 783.77 28.37 781.11 28.37 781.11 31.03 781.11 33.7 783.77 33.7 783.77 31.03"/><polygon class="cls-1" points="703.77 36.37 703.77 33.7 701.11 33.7 698.44 33.7 698.44 36.37 701.11 36.37 703.77 36.37"/><rect class="cls-1" x="706.44" y="33.7" width="2.67" height="2.67"/><rect class="cls-1" x="711.77" y="33.7" width="2.67" height="2.67"/><rect class="cls-1" x="778.44" y="33.7" width="2.67" height="2.67"/><polygon class="cls-1" points="695.77 44.37 695.77 41.7 698.44 41.7 698.44 39.03 698.44 36.37 695.77 36.37 695.77 39.03 693.11 39.03 693.11 41.7 690.44 41.7 690.44 44.37 693.11 44.37 695.77 44.37"/><polygon class="cls-1" points="778.44 41.7 778.44 39.03 775.77 39.03 773.11 39.03 773.11 41.7 775.77 41.7 775.77 44.37 778.44 44.37 778.44 41.7"/><polygon class="cls-1" points="690.44 47.03 690.44 44.37 687.77 44.37 685.11 44.37 685.11 47.03 687.77 47.03 690.44 47.03"/><polygon class="cls-1" points="685.11 47.03 682.44 47.03 682.44 49.7 679.77 49.7 679.77 52.37 682.44 52.37 685.11 52.37 685.11 49.7 685.11 47.03"/><polygon class="cls-1" points="775.77 52.37 775.77 49.7 775.77 47.03 775.77 44.37 773.11 44.37 773.11 47.03 770.44 47.03 770.44 49.7 770.44 52.37 773.11 52.37 775.77 52.37"/><polygon class="cls-1" points="690.44 57.7 693.11 57.7 695.77 57.7 695.77 55.03 698.44 55.03 698.44 52.37 698.44 49.7 695.77 49.7 693.11 49.7 693.11 52.37 690.44 52.37 687.77 52.37 685.11 52.37 685.11 55.03 685.11 57.7 687.77 57.7 690.44 57.7"/><rect class="cls-1" x="671.77" y="57.7" width="2.67" height="2.67"/><polygon class="cls-1" points="677.11 60.37 674.44 60.37 674.44 63.03 674.44 65.7 674.44 68.37 674.44 71.03 674.44 73.7 674.44 76.37 677.11 76.37 677.11 73.7 677.11 71.03 679.77 71.03 682.44 71.03 685.11 71.03 685.11 73.7 687.77 73.7 690.44 73.7 690.44 76.37 690.44 79.03 690.44 81.7 693.11 81.7 695.77 81.7 698.44 81.7 698.44 79.03 701.11 79.03 701.11 76.37 703.77 76.37 706.44 76.37 709.11 76.37 711.77 76.37 714.44 76.37 714.44 73.7 717.11 73.7 717.11 71.03 717.11 68.37 717.11 65.7 717.11 63.03 714.44 63.03 711.77 63.03 709.11 63.03 709.11 65.7 706.44 65.7 703.77 65.7 701.11 65.7 701.11 63.03 698.44 63.03 698.44 60.37 695.77 60.37 695.77 63.03 693.11 63.03 690.44 63.03 687.77 63.03 685.11 63.03 685.11 60.37 685.11 57.7 682.44 57.7 679.77 57.7 679.77 55.03 677.11 55.03 674.44 55.03 674.44 57.7 677.11 57.7 677.11 60.37"/><polygon class="cls-1" points="186.44 63.03 189.1 63.03 191.77 63.03 191.77 60.37 194.44 60.37 197.1 60.37 199.77 60.37 199.77 57.7 197.1 57.7 194.44 57.7 191.77 57.7 189.1 57.7 189.1 60.37 186.44 60.37 183.77 60.37 181.1 60.37 181.1 63.03 183.77 63.03 186.44 63.03"/><polygon class="cls-1" points="767.77 60.37 770.44 60.37 770.44 57.7 770.44 55.03 770.44 52.37 767.77 52.37 767.77 55.03 765.11 55.03 765.11 57.7 765.11 60.37 765.11 63.03 767.77 63.03 767.77 60.37"/><polygon class="cls-1" points="226.44 65.7 229.1 65.7 231.77 65.7 231.77 63.03 229.1 63.03 229.1 60.37 226.44 60.37 223.77 60.37 223.77 63.03 226.44 63.03 226.44 65.7"/><polygon class="cls-1" points="290.44 65.7 293.11 65.7 293.11 63.03 290.44 63.03 287.77 63.03 285.11 63.03 285.11 65.7 287.77 65.7 290.44 65.7"/><rect class="cls-1" x="666.44" y="63.03" width="2.67" height="2.67"/><rect class="cls-1" x="293.1" y="65.7" width="2.67" height="2.67"/><rect class="cls-1" x="663.77" y="65.7" width="2.67" height="2.67"/><polygon class="cls-1" points="165.1 68.37 162.44 68.37 159.77 68.37 159.77 71.03 162.44 71.03 165.1 71.03 167.77 71.03 167.77 68.37 165.1 68.37"/><polygon class="cls-1" points="306.44 71.03 306.44 68.37 303.77 68.37 301.11 68.37 301.11 71.03 303.77 71.03 306.44 71.03"/><rect class="cls-1" x="655.77" y="71.03" width="2.67" height="2.67"/><polygon class="cls-1" points="762.44 71.03 765.11 71.03 765.11 68.37 765.11 65.7 765.11 63.03 762.44 63.03 762.44 65.7 759.77 65.7 759.77 68.37 759.77 71.03 759.77 73.7 762.44 73.7 762.44 71.03"/><polygon class="cls-1" points="311.77 76.37 314.44 76.37 317.11 76.37 317.11 79.03 319.77 79.03 322.44 79.03 322.44 81.7 325.11 81.7 327.77 81.7 330.44 81.7 333.11 81.7 335.77 81.7 335.77 79.03 333.11 79.03 330.44 79.03 330.44 76.37 327.77 76.37 325.11 76.37 322.44 76.37 322.44 73.7 319.77 73.7 317.11 73.7 317.11 71.03 314.44 71.03 311.77 71.03 309.11 71.03 309.11 73.7 311.77 73.7 311.77 76.37"/><rect class="cls-1" x="653.1" y="73.7" width="2.67" height="2.67"/><rect class="cls-1" x="650.44" y="76.37" width="2.67" height="2.67"/><rect class="cls-1" x="685.1" y="76.37" width="2.67" height="2.67"/><path class="cls-1" d="M39.77,81.7H53.1v2.67H50.44V87h77.33V84.37h5.33V87h5.33V81.7h5.33V79h2.67V81.7h5.33v2.67h2.67V87h5.33V89.7h40V95h2.67V97.7h2.67V95h2.67V92.37h2.67V89.7h53.33V87H261.1V81.7h-5.33V79h2.67V71h2.67V60.37h-2.67V55h-2.67V52.37H213.1V55H202.44V57.7h16V55h32V57.7H245.1v2.67h-2.67V63h2.67V65.7h8V71h-2.67v5.33h-2.67V79H245.1V76.37h-2.67V71h-2.67V68.37H237.1V65.7h-2.67v2.67H223.77V63H221.1V65.7h-2.67v2.67H207.77V71h-5.33V73.7h-2.67V87h-5.33V84.37h-2.67V81.7H189.1V76.37h-5.33V71H181.1V68.37h-5.33V65.7h5.33V63H170.44V65.7h-2.67v2.67h2.67V71h-2.67V73.7H165.1v2.67H82.44V79h-16V76.37H31.77V73.7h-16v2.67H21.1V79h5.33V81.7H39.77Zm133.33-8h2.67v2.67H173.1Z"/><rect class="cls-1" x="647.77" y="79.03" width="2.67" height="2.67"/><polygon class="cls-1" points="338.44 84.37 341.11 84.37 341.11 81.7 338.44 81.7 335.77 81.7 335.77 84.37 338.44 84.37"/><polygon class="cls-1" points="343.77 87.03 346.44 87.03 346.44 89.7 349.11 89.7 351.77 89.7 354.44 89.7 354.44 87.03 351.77 87.03 349.11 87.03 349.11 84.37 346.44 84.37 343.77 84.37 341.11 84.37 341.11 87.03 343.77 87.03"/><rect class="cls-1" x="642.44" y="84.37" width="2.67" height="2.67"/><polygon class="cls-1" points="682.44 84.37 682.44 87.03 685.11 87.03 687.77 87.03 687.77 84.37 685.11 84.37 682.44 84.37"/><polygon class="cls-1" points="698.44 87.03 698.44 89.7 701.11 89.7 701.11 87.03 701.11 84.37 698.44 84.37 698.44 87.03"/><polygon class="cls-1" points="47.77 89.7 47.77 87.03 45.1 87.03 42.44 87.03 42.44 89.7 45.1 89.7 47.77 89.7"/><rect class="cls-1" x="690.44" y="87.03" width="2.67" height="2.67"/><polygon class="cls-1" points="717.11 87.03 719.77 87.03 719.77 84.37 719.77 81.7 722.44 81.7 722.44 79.03 725.11 79.03 725.11 76.37 725.11 73.7 727.77 73.7 727.77 71.03 730.44 71.03 730.44 68.37 733.11 68.37 733.11 65.7 733.11 63.03 735.77 63.03 735.77 60.37 735.77 57.7 738.44 57.7 738.44 55.03 741.11 55.03 741.11 52.37 743.77 52.37 743.77 49.7 743.77 47.03 746.44 47.03 746.44 44.37 749.11 44.37 749.11 41.7 749.11 39.03 751.77 39.03 754.44 39.03 757.11 39.03 757.11 36.37 754.44 36.37 751.77 36.37 751.77 33.7 749.11 33.7 746.44 33.7 743.77 33.7 741.11 33.7 738.44 33.7 735.77 33.7 733.11 33.7 730.44 33.7 727.77 33.7 725.11 33.7 722.44 33.7 722.44 36.37 722.44 39.03 725.11 39.03 727.77 39.03 730.44 39.03 733.11 39.03 735.77 39.03 738.44 39.03 741.11 39.03 743.77 39.03 746.44 39.03 746.44 41.7 743.77 41.7 743.77 44.37 741.11 44.37 741.11 47.03 738.44 47.03 738.44 49.7 735.77 49.7 735.77 52.37 735.77 55.03 733.11 55.03 733.11 57.7 733.11 60.37 730.44 60.37 730.44 63.03 727.77 63.03 727.77 65.7 725.11 65.7 725.11 68.37 722.44 68.37 722.44 71.03 722.44 73.7 719.77 73.7 719.77 76.37 717.11 76.37 717.11 79.03 717.11 81.7 714.44 81.7 714.44 84.37 714.44 87.03 714.44 89.7 717.11 89.7 717.11 87.03"/><polygon class="cls-1" points="754.44 87.03 757.11 87.03 757.11 84.37 757.11 81.7 759.77 81.7 759.77 79.03 759.77 76.37 759.77 73.7 757.11 73.7 757.11 76.37 757.11 79.03 754.44 79.03 754.44 81.7 754.44 84.37 751.77 84.37 751.77 87.03 751.77 89.7 754.44 89.7 754.44 87.03"/><polygon class="cls-1" points="42.44 92.37 42.44 89.7 39.77 89.7 39.77 92.37 39.77 95.03 42.44 95.03 42.44 92.37"/><polygon class="cls-1" points="261.11 92.37 261.11 95.03 261.11 97.7 261.11 100.37 263.77 100.37 266.44 100.37 266.44 97.7 269.11 97.7 269.11 95.03 269.11 92.37 271.77 92.37 274.44 92.37 277.11 92.37 279.77 92.37 282.44 92.37 285.11 92.37 287.77 92.37 290.44 92.37 293.11 92.37 293.11 95.03 295.77 95.03 298.44 95.03 301.11 95.03 303.77 95.03 306.44 95.03 309.11 95.03 311.77 95.03 314.44 95.03 317.11 95.03 319.77 95.03 322.44 95.03 325.11 95.03 325.11 97.7 327.77 97.7 327.77 95.03 327.77 92.37 325.11 92.37 322.44 92.37 322.44 89.7 319.77 89.7 317.11 89.7 317.11 87.03 314.44 87.03 311.77 87.03 309.11 87.03 309.11 84.37 311.77 84.37 314.44 84.37 317.11 84.37 317.11 81.7 314.44 81.7 314.44 79.03 311.77 79.03 309.11 79.03 306.44 79.03 303.77 79.03 301.11 79.03 301.11 76.37 298.44 76.37 295.77 76.37 293.11 76.37 293.11 79.03 290.44 79.03 287.77 79.03 287.77 81.7 287.77 84.37 285.11 84.37 285.11 87.03 285.11 89.7 282.44 89.7 279.77 89.7 277.11 89.7 274.44 89.7 271.77 89.7 269.11 89.7 266.44 89.7 263.77 89.7 263.77 92.37 261.11 92.37"/><polygon class="cls-1" points="359.77 95.03 362.44 95.03 365.11 95.03 367.77 95.03 367.77 97.7 370.44 97.7 370.44 100.37 367.77 100.37 367.77 103.03 370.44 103.03 373.11 103.03 375.77 103.03 375.77 105.7 378.44 105.7 381.11 105.7 383.77 105.7 386.44 105.7 386.44 108.37 389.11 108.37 391.77 108.37 394.44 108.37 397.11 108.37 397.11 105.7 394.44 105.7 391.77 105.7 389.11 105.7 389.11 103.03 386.44 103.03 383.77 103.03 383.77 100.37 381.11 100.37 378.44 100.37 378.44 97.7 375.77 97.7 373.11 97.7 373.11 95.03 370.44 95.03 370.44 92.37 370.44 89.7 367.77 89.7 365.11 89.7 362.44 89.7 359.77 89.7 357.11 89.7 357.11 92.37 359.77 92.37 359.77 95.03"/><polygon class="cls-1" points="39.77 95.03 37.1 95.03 37.1 97.7 37.1 100.37 39.77 100.37 39.77 97.7 39.77 95.03"/><polygon class="cls-1" points="146.44 95.03 143.77 95.03 141.1 95.03 141.1 97.7 141.1 100.37 143.77 100.37 146.44 100.37 146.44 97.7 146.44 95.03"/><polygon class="cls-1" points="341.11 95.03 338.44 95.03 335.77 95.03 335.77 97.7 338.44 97.7 341.11 97.7 341.11 100.37 343.77 100.37 346.44 100.37 346.44 97.7 346.44 95.03 343.77 95.03 341.11 95.03"/><polygon class="cls-1" points="71.77 100.37 71.77 103.03 71.77 105.7 74.44 105.7 74.44 103.03 74.44 100.37 74.44 97.7 71.77 97.7 71.77 100.37"/><polygon class="cls-1" points="279.77 97.7 279.77 100.37 277.11 100.37 277.11 103.03 279.77 103.03 282.44 103.03 285.11 103.03 287.77 103.03 287.77 100.37 285.11 100.37 282.44 100.37 282.44 97.7 279.77 97.7"/><polygon class="cls-1" points="354.44 100.37 357.11 100.37 359.77 100.37 359.77 97.7 357.11 97.7 354.44 97.7 354.44 100.37"/><rect class="cls-1" x="626.44" y="97.7" width="2.67" height="2.67"/><polygon class="cls-1" points="199.77 100.37 199.77 103.03 202.44 103.03 205.1 103.03 205.1 100.37 202.44 100.37 199.77 100.37"/><polygon class="cls-1" points="130.44 105.7 130.44 103.03 133.1 103.03 133.1 100.37 133.1 97.7 133.1 95.03 133.1 92.37 130.44 92.37 130.44 95.03 130.44 97.7 130.44 100.37 127.77 100.37 125.11 100.37 122.44 100.37 119.77 100.37 119.77 103.03 122.44 103.03 125.11 103.03 127.77 103.03 127.77 105.7 130.44 105.7"/><polygon class="cls-1" points="301.11 105.7 303.77 105.7 303.77 103.03 303.77 100.37 301.11 100.37 298.44 100.37 295.77 100.37 295.77 103.03 298.44 103.03 298.44 105.7 301.11 105.7"/><polygon class="cls-1" points="333.11 103.03 330.44 103.03 330.44 105.7 333.11 105.7 335.77 105.7 338.44 105.7 338.44 103.03 335.77 103.03 333.11 103.03"/><polygon class="cls-1" points="623.77 105.7 623.77 103.03 626.44 103.03 626.44 100.37 623.77 100.37 621.11 100.37 621.11 103.03 618.44 103.03 618.44 105.7 621.11 105.7 623.77 105.7"/><polygon class="cls-1" points="114.44 108.37 117.11 108.37 117.11 105.7 117.11 103.03 117.11 100.37 114.44 100.37 114.44 97.7 111.77 97.7 109.11 97.7 106.44 97.7 103.77 97.7 101.11 97.7 101.11 95.03 98.44 95.03 95.77 95.03 93.11 95.03 90.44 95.03 87.77 95.03 87.77 97.7 85.11 97.7 85.11 100.37 82.44 100.37 82.44 103.03 85.11 103.03 87.77 103.03 87.77 105.7 90.44 105.7 93.11 105.7 95.77 105.7 98.44 105.7 101.11 105.7 101.11 103.03 101.11 100.37 103.77 100.37 106.44 100.37 106.44 103.03 109.11 103.03 111.77 103.03 114.44 103.03 114.44 105.7 114.44 108.37"/><rect class="cls-1" x="191.77" y="105.7" width="2.67" height="2.67"/><polygon class="cls-1" points="346.44 108.37 349.11 108.37 351.77 108.37 354.44 108.37 357.11 108.37 359.77 108.37 359.77 105.7 357.11 105.7 354.44 105.7 351.77 105.7 349.11 105.7 346.44 105.7 346.44 108.37"/><rect class="cls-1" x="615.77" y="105.7" width="2.67" height="2.67"/><polygon class="cls-1" points="743.77 105.7 746.44 105.7 746.44 103.03 746.44 100.37 749.11 100.37 749.11 97.7 749.11 95.03 751.77 95.03 751.77 92.37 751.77 89.7 749.11 89.7 749.11 92.37 746.44 92.37 746.44 95.03 746.44 97.7 743.77 97.7 743.77 100.37 741.11 100.37 741.11 103.03 741.11 105.7 741.11 108.37 743.77 108.37 743.77 105.7"/><polygon class="cls-1" points="173.1 111.03 173.1 108.37 175.77 108.37 175.77 105.7 175.77 103.03 175.77 100.37 173.1 100.37 170.44 100.37 167.77 100.37 165.1 100.37 162.44 100.37 159.77 100.37 159.77 103.03 159.77 105.7 159.77 108.37 157.1 108.37 157.1 105.7 157.1 103.03 157.1 100.37 157.1 97.7 154.44 97.7 151.77 97.7 151.77 100.37 149.1 100.37 146.44 100.37 146.44 103.03 146.44 105.7 146.44 108.37 146.44 111.03 146.44 113.7 146.44 116.37 149.1 116.37 151.77 116.37 151.77 113.7 154.44 113.7 157.1 113.7 159.77 113.7 159.77 116.37 162.44 116.37 162.44 113.7 162.44 111.03 162.44 108.37 162.44 105.7 165.1 105.7 167.77 105.7 167.77 108.37 165.1 108.37 165.1 111.03 165.1 113.7 165.1 116.37 165.1 119.03 167.77 119.03 170.44 119.03 173.1 119.03 173.1 116.37 173.1 113.7 170.44 113.7 170.44 111.03 173.1 111.03"/><polygon class="cls-1" points="370.44 108.37 367.77 108.37 365.11 108.37 365.11 111.03 367.77 111.03 367.77 113.7 370.44 113.7 373.11 113.7 375.77 113.7 378.44 113.7 378.44 111.03 375.77 111.03 373.11 111.03 373.11 108.37 370.44 108.37"/><polygon class="cls-1" points="402.44 111.03 405.11 111.03 405.11 113.7 407.77 113.7 410.44 113.7 413.11 113.7 415.77 113.7 418.44 113.7 418.44 111.03 415.77 111.03 413.11 111.03 410.44 111.03 410.44 108.37 407.77 108.37 407.77 105.7 405.11 105.7 402.44 105.7 399.77 105.7 399.77 108.37 402.44 108.37 402.44 111.03"/><polygon class="cls-1" points="322.44 111.03 319.77 111.03 319.77 108.37 317.11 108.37 314.44 108.37 311.77 108.37 311.77 111.03 311.77 113.7 314.44 113.7 317.11 113.7 319.77 113.7 322.44 113.7 325.11 113.7 325.11 111.03 322.44 111.03"/><path class="cls-1" d="M53.1,116.37h2.67V119H61.1v2.67h5.33v2.67h8V127h8v2.67h5.33v2.67h8V135h5.33v2.67h10.67v2.67h8V143h8v2.67h10.67V151h-2.67v2.67h2.67v2.67h5.33V151h16v2.67h5.33v2.67h16V159h8v2.67h16v2.67h5.33V167h8v2.67h16v2.67h5.33V175h5.33v2.67h5.33v2.67h8V183h2.67v2.67h8v2.67h8V191h2.67v2.67h5.33v2.67h2.67V199h18.67v-2.67h16V199H341.1v-2.67h-5.33V191h5.33v2.67h8V199h-2.67v2.67h-2.67v2.67H341.1V207h-5.33v5.33H333.1V215h2.67v8h8v8h-5.33v-2.67H327.77V225.7h-5.33V223H317.1v2.67h-2.67v2.67h-2.67v5.33H309.1v2.67h-2.67v5.33H349.1v-8h2.67v-5.33h5.33V231h10.67v2.67h5.33v2.67h16v5.33h-8v2.67h18.67V247h2.67v2.67H453.1V247h-8v-2.67h-5.33V241.7H426.44V239h-2.67v-2.67h-8V233.7h2.67V231h-2.67v-2.67H413.1V225.7h-8V223h-8v-2.67h-8V217.7H378.44V215h-8v-2.67H357.1V209.7h-2.67V207h-2.67v-2.67h8V199h-5.33V193.7h13.33v2.67h8V199h2.67v-2.67h5.33V199H397.1v2.67h13.33V207h2.67v2.67h-2.67V207H399.77v2.67H397.1V207H383.77v-2.67H370.44V207h8v2.67h5.33v2.67h8V215h5.33v2.67h10.67v2.67h2.67V223h5.33v2.67h5.33v2.67h2.67V231h10.67v2.67h5.33v2.67h10.67V239h2.67v2.67h13.33v2.67h2.67v5.33h18.67v2.67h8V255h18.67v2.67h5.33v2.67h10.67V257.7H525.1V255h-5.33v-2.67h34.67V249.7h2.67V247h5.33v-2.67H573.1V247h2.67v-8h2.67v-2.67h21.33V239H621.1v2.67h13.33v2.67h2.67V247h10.67v2.67h5.33v2.67h2.67V255h5.33v2.67h5.33v2.67h5.33V263h2.67v2.67h8v2.67H693.1V271h2.67v2.67h8v2.67h8V279h16v-2.67h5.33V273.7h13.33V271h2.67v-2.67h2.67V265.7h5.33V263H746.44v-2.67H741.1V255h-8V249.7h-5.33V247h-5.33v-2.67h-2.67V241.7h8V239h5.33v-2.67h2.67V233.7h2.67V231H727.77V225.7h-5.33V223h-8V217.7h-2.67V215h-5.33v-2.67h-8V209.7h-2.67v8h-5.33V215H679.77v-2.67H661.1V209.7H650.44V207H639.77v-8h-5.33v-2.67h-16V193.7H605.1V191h-2.67v-2.67h-8V183h-2.67v-2.67H581.1V175H570.44v2.67h5.33v2.67h2.67V183h-2.67v2.67h5.33v2.67h5.33V185.7h5.33V191h2.67v2.67h-16V191H567.77v-2.67H546.44V185.7H541.1v2.67h-16v5.33h-5.33V199H517.1v2.67h-2.67v2.67H493.1V201.7H482.44V199h-24v-2.67H453.1V175h-2.67v-8H461.1v-2.67h8V161.7H450.44V159h5.33v-2.67h2.67V151h-2.67v2.67h-5.33V151H445.1v-2.67h-5.33v5.33H437.1V151H410.44V145.7h-2.67v2.67H405.1V145.7H383.77v-8h-24v2.67h-5.33V137.7H327.77V135H325.1v-2.67H303.77V129.7H301.1V127H290.44v-2.67h-2.67V121.7H285.1V119h-2.67V113.7h-8V111h-2.67v-2.67h-8V105.7H250.44V103H245.1v-2.67H231.77V103h-8v2.67H210.44v2.67h2.67v5.33h2.67V111h2.67v-2.67h2.67V111h2.67v2.67h2.67v2.67h5.33V119h8v2.67h2.67v2.67h5.33V127h8v-2.67h-5.33V119H245.1v-2.67h-2.67V113.7H237.1V111h-2.67V105.7h8v2.67h5.33V111h2.67v2.67h2.67v2.67h2.67V119h2.67v2.67h2.67v2.67h2.67V127h2.67v5.33h2.67v8h2.67V143h2.67v5.33H269.1V143h-2.67v2.67h-2.67V143H261.1v2.67h-2.67v2.67h-2.67V151h-8v-2.67h-5.33V145.7h-16v-8h5.33V135h2.67v-2.67h-24V135h-2.67v5.33H194.44V137.7h-2.67V135H189.1v5.33h-5.33V137.7h-5.33v-5.33h-2.67V135H173.1v-2.67h-8V135h2.67v2.67h5.33v2.67h-5.33V137.7h-16V135h-5.33v-2.67H133.1V129.7h-5.33V108.37H125.1V127h-8v-2.67H103.77V121.7H98.44V119H87.77v-2.67H82.44V113.7h-8v-5.33H71.77V111H66.44v-2.67H53.1V97.7H47.77v8H45.1V103H42.44v-2.67H39.77v8H45.1V111h2.67v2.67H53.1ZM530.44,193.7h5.33v2.67h2.67V199H533.1v-2.67h-2.67Zm96,40h-16v-5.33h-2.67V231H594.44v-2.67H583.77V225.7h50.67v10.67H629.1V233.7Zm10.67-5.33V225.7h26.67v2.67h-5.33V231h-8v2.67H645.1V231h-8Zm24,2.67h5.33v2.67H661.1Zm8,0h2.67v2.67H669.1Zm8,0h-2.67v-2.67h2.67ZM343.77,191v-2.67h2.67V191Zm-112-82.67H229.1V105.7h2.67Zm40,42.67h5.33v5.33h-2.67V153.7H269.1V151Zm-10.67,0v2.67h-2.67V151Zm-37.33-8h-5.33v-2.67h5.33Zm-42.67-2.67V143h-2.67v-2.67Z"/><rect class="cls-1" x="325.1" y="113.7" width="2.67" height="2.67"/><polygon class="cls-1" points="421.11 116.37 423.77 116.37 426.44 116.37 426.44 119.03 429.11 119.03 431.77 119.03 434.44 119.03 434.44 116.37 431.77 116.37 429.11 116.37 429.11 113.7 426.44 113.7 423.77 113.7 421.11 113.7 418.44 113.7 418.44 116.37 421.11 116.37"/><polygon class="cls-1" points="610.44 119.03 610.44 116.37 610.44 113.7 613.11 113.7 613.11 111.03 615.77 111.03 615.77 108.37 613.11 108.37 610.44 108.37 607.77 108.37 605.11 108.37 602.44 108.37 599.77 108.37 599.77 111.03 599.77 113.7 602.44 113.7 605.11 113.7 605.11 116.37 605.11 119.03 607.77 119.03 610.44 119.03"/><polygon class="cls-1" points="738.44 116.37 741.11 116.37 741.11 113.7 741.11 111.03 741.11 108.37 738.44 108.37 738.44 111.03 735.77 111.03 735.77 113.7 735.77 116.37 735.77 119.03 738.44 119.03 738.44 116.37"/><rect class="cls-1" x="402.44" y="119.03" width="2.67" height="2.67"/><polygon class="cls-1" points="437.11 121.7 439.77 121.7 442.44 121.7 445.11 121.7 445.11 119.03 442.44 119.03 439.77 119.03 437.11 119.03 434.44 119.03 434.44 121.7 437.11 121.7"/><polygon class="cls-1" points="605.11 121.7 605.11 119.03 602.44 119.03 599.77 119.03 599.77 121.7 602.44 121.7 605.11 121.7"/><polygon class="cls-1" points="338.44 124.37 341.11 124.37 343.77 124.37 346.44 124.37 346.44 121.7 343.77 121.7 341.11 121.7 338.44 121.7 335.77 121.7 333.11 121.7 333.11 124.37 335.77 124.37 338.44 124.37"/><rect class="cls-1" x="407.77" y="121.7" width="2.67" height="2.67"/><polygon class="cls-1" points="447.77 124.37 450.44 124.37 450.44 121.7 447.77 121.7 445.11 121.7 445.11 124.37 447.77 124.37"/><polygon class="cls-1" points="735.77 121.7 735.77 119.03 733.11 119.03 733.11 121.7 733.11 124.37 735.77 124.37 735.77 121.7"/><polygon class="cls-1" points="394.44 124.37 391.77 124.37 391.77 121.7 389.11 121.7 386.44 121.7 383.77 121.7 383.77 119.03 381.11 119.03 378.44 119.03 375.77 119.03 373.11 119.03 370.44 119.03 367.77 119.03 367.77 116.37 365.11 116.37 362.44 116.37 359.77 116.37 359.77 113.7 357.11 113.7 354.44 113.7 351.77 113.7 349.11 113.7 346.44 113.7 343.77 113.7 341.11 113.7 341.11 116.37 343.77 116.37 346.44 116.37 346.44 119.03 349.11 119.03 351.77 119.03 354.44 119.03 354.44 121.7 357.11 121.7 359.77 121.7 359.77 124.37 362.44 124.37 365.11 124.37 365.11 127.03 367.77 127.03 367.77 124.37 370.44 124.37 373.11 124.37 375.77 124.37 378.44 124.37 381.11 124.37 383.77 124.37 383.77 127.03 386.44 127.03 389.11 127.03 391.77 127.03 394.44 127.03 394.44 129.7 397.11 129.7 397.11 132.37 399.77 132.37 402.44 132.37 405.11 132.37 407.77 132.37 410.44 132.37 410.44 135.03 413.11 135.03 415.77 135.03 418.44 135.03 421.11 135.03 421.11 137.7 423.77 137.7 426.44 137.7 429.11 137.7 429.11 140.37 431.77 140.37 434.44 140.37 434.44 137.7 434.44 135.03 431.77 135.03 429.11 135.03 426.44 135.03 426.44 132.37 423.77 132.37 421.11 132.37 418.44 132.37 418.44 129.7 415.77 129.7 415.77 127.03 413.11 127.03 410.44 127.03 407.77 127.03 405.11 127.03 402.44 127.03 402.44 124.37 399.77 124.37 397.11 124.37 394.44 124.37"/><rect class="cls-1" x="455.77" y="124.37" width="2.67" height="2.67"/><polygon class="cls-1" points="599.77 127.03 599.77 124.37 599.77 121.7 597.11 121.7 597.11 124.37 594.44 124.37 594.44 127.03 597.11 127.03 599.77 127.03"/><rect class="cls-1" x="426.44" y="127.03" width="2.67" height="2.67"/><polygon class="cls-1" points="162.44 129.7 162.44 127.03 159.77 127.03 157.1 127.03 157.1 124.37 154.44 124.37 154.44 121.7 151.77 121.7 149.1 121.7 149.1 119.03 146.44 119.03 143.77 119.03 141.1 119.03 138.44 119.03 138.44 116.37 135.77 116.37 133.1 116.37 133.1 113.7 130.44 113.7 130.44 116.37 130.44 119.03 130.44 121.7 130.44 124.37 130.44 127.03 133.1 127.03 135.77 127.03 138.44 127.03 138.44 124.37 135.77 124.37 133.1 124.37 133.1 121.7 135.77 121.7 138.44 121.7 141.1 121.7 143.77 121.7 146.44 121.7 146.44 124.37 146.44 127.03 149.1 127.03 151.77 127.03 151.77 129.7 154.44 129.7 157.1 129.7 157.1 132.37 159.77 132.37 162.44 132.37 165.1 132.37 165.1 129.7 162.44 129.7"/><rect class="cls-1" x="178.44" y="129.7" width="2.67" height="2.67"/><polygon class="cls-1" points="183.77 132.37 186.44 132.37 186.44 135.03 189.1 135.03 189.1 132.37 189.1 129.7 189.1 127.03 186.44 127.03 186.44 124.37 186.44 121.7 186.44 119.03 186.44 116.37 189.1 116.37 189.1 113.7 189.1 111.03 189.1 108.37 186.44 108.37 183.77 108.37 183.77 111.03 183.77 113.7 183.77 116.37 181.1 116.37 181.1 119.03 181.1 121.7 181.1 124.37 181.1 127.03 181.1 129.7 183.77 129.7 183.77 132.37"/><rect class="cls-1" x="429.1" y="129.7" width="2.67" height="2.67"/><path class="cls-1" d="M471.77,132.37h42.67v5.33h2.67V135h2.67v-2.67h5.33v5.33h2.67v-5.33h42.67v5.33h-2.67v8h10.67V151h-2.67v5.33H565.1V153.7h2.67v-8H565.1V151h-2.67v5.33h-2.67V159h5.33v2.67h10.67v2.67h5.33V167h13.33v2.67h13.33v2.67h8V175h18.67v-2.67H629.1V169.7h-16V167H599.77v-2.67h-8V161.7H589.1V159h-2.67v-2.67h2.67V159h2.67v-2.67h2.67v-8h-2.67V151H589.1v2.67h-2.67v-8h-2.67V151H581.1V145.7h2.67V143h2.67v2.67h8V143h-2.67v-2.67h-5.33V135h-2.67v2.67H581.1V143H570.44v-2.67h2.67v-8h18.67V129.7h2.67V127H469.1v2.67h2.67Zm112,26.67H581.1v2.67h-2.67v-5.33h5.33Z"/><polygon class="cls-1" points="450.44 135.03 450.44 132.37 447.77 132.37 445.11 132.37 442.44 132.37 439.77 132.37 437.11 132.37 437.11 135.03 439.77 135.03 439.77 137.7 442.44 137.7 445.11 137.7 447.77 137.7 450.44 137.7 450.44 140.37 453.11 140.37 455.77 140.37 455.77 137.7 453.11 137.7 453.11 135.03 450.44 135.03"/><rect class="cls-1" x="469.1" y="140.37" width="2.67" height="2.67"/><rect class="cls-1" x="511.77" y="140.37" width="2.67" height="2.67"/><polygon class="cls-1" points="522.44 143.03 519.77 143.03 519.77 145.7 522.44 145.7 525.11 145.7 525.11 143.03 525.11 140.37 522.44 140.37 522.44 143.03"/><polygon class="cls-1" points="725.11 140.37 727.77 140.37 727.77 137.7 727.77 135.03 730.44 135.03 730.44 132.37 733.11 132.37 733.11 129.7 733.11 127.03 733.11 124.37 730.44 124.37 730.44 127.03 727.77 127.03 727.77 129.7 727.77 132.37 725.11 132.37 725.11 135.03 722.44 135.03 722.44 137.7 722.44 140.37 722.44 143.03 725.11 143.03 725.11 140.37"/><rect class="cls-1" x="458.44" y="143.03" width="2.67" height="2.67"/><polygon class="cls-1" points="479.77 143.03 477.11 143.03 474.44 143.03 474.44 145.7 477.11 145.7 479.77 145.7 482.44 145.7 485.11 145.7 485.11 143.03 482.44 143.03 479.77 143.03"/><polygon class="cls-1" points="613.11 145.7 615.77 145.7 618.44 145.7 618.44 143.03 618.44 140.37 618.44 137.7 618.44 135.03 618.44 132.37 618.44 129.7 618.44 127.03 615.77 127.03 613.11 127.03 613.11 129.7 610.44 129.7 610.44 127.03 607.77 127.03 605.11 127.03 602.44 127.03 602.44 129.7 599.77 129.7 599.77 132.37 599.77 135.03 599.77 137.7 599.77 140.37 599.77 143.03 599.77 145.7 602.44 145.7 605.11 145.7 605.11 143.03 607.77 143.03 610.44 143.03 610.44 145.7 613.11 145.7"/><rect class="cls-1" x="455.77" y="145.7" width="2.67" height="2.67"/><polygon class="cls-1" points="469.11 148.37 471.77 148.37 471.77 145.7 469.11 145.7 466.44 145.7 463.77 145.7 463.77 148.37 466.44 148.37 469.11 148.37"/><polygon class="cls-1" points="490.44 145.7 490.44 143.03 487.77 143.03 487.77 145.7 487.77 148.37 490.44 148.37 490.44 145.7"/><rect class="cls-1" x="594.44" y="145.7" width="2.67" height="2.67"/><polygon class="cls-1" points="549.11 151.03 546.44 151.03 546.44 153.7 549.11 153.7 551.77 153.7 551.77 151.03 549.11 151.03"/><polygon class="cls-1" points="517.11 153.7 514.44 153.7 514.44 151.03 514.44 148.37 511.77 148.37 511.77 151.03 509.11 151.03 506.44 151.03 506.44 148.37 503.77 148.37 501.11 148.37 501.11 151.03 501.11 153.7 503.77 153.7 506.44 153.7 509.11 153.7 509.11 156.37 511.77 156.37 514.44 156.37 517.11 156.37 519.77 156.37 519.77 153.7 517.11 153.7"/><polygon class="cls-1" points="554.44 156.37 557.11 156.37 557.11 153.7 554.44 153.7 551.77 153.7 551.77 156.37 554.44 156.37"/><polygon class="cls-1" points="530.44 156.37 527.77 156.37 525.11 156.37 522.44 156.37 519.77 156.37 519.77 159.03 519.77 161.7 522.44 161.7 525.11 161.7 527.77 161.7 530.44 161.7 530.44 159.03 530.44 156.37"/><polygon class="cls-1" points="485.11 161.7 485.11 164.37 487.77 164.37 487.77 167.03 490.44 167.03 493.11 167.03 493.11 164.37 493.11 161.7 490.44 161.7 487.77 161.7 485.11 161.7"/><polygon class="cls-1" points="514.44 161.7 511.77 161.7 511.77 164.37 511.77 167.03 514.44 167.03 517.11 167.03 517.11 164.37 519.77 164.37 519.77 161.7 517.11 161.7 514.44 161.7"/><polygon class="cls-1" points="471.77 167.03 474.44 167.03 474.44 164.37 471.77 164.37 469.11 164.37 469.11 167.03 471.77 167.03"/><polygon class="cls-1" points="541.11 164.37 538.44 164.37 538.44 161.7 535.77 161.7 533.11 161.7 530.44 161.7 530.44 164.37 533.11 164.37 535.77 164.37 535.77 167.03 538.44 167.03 541.11 167.03 543.77 167.03 543.77 164.37 541.11 164.37"/><polygon class="cls-1" points="479.77 167.03 479.77 169.7 482.44 169.7 485.11 169.7 485.11 167.03 482.44 167.03 479.77 167.03"/><polygon class="cls-1" points="495.77 175.03 498.44 175.03 501.11 175.03 501.11 172.37 501.11 169.7 498.44 169.7 495.77 169.7 493.11 169.7 490.44 169.7 487.77 169.7 487.77 172.37 490.44 172.37 493.11 172.37 493.11 175.03 495.77 175.03"/><polygon class="cls-1" points="567.77 172.37 567.77 169.7 565.11 169.7 562.44 169.7 559.77 169.7 557.11 169.7 557.11 167.03 554.44 167.03 554.44 164.37 557.11 164.37 559.77 164.37 562.44 164.37 562.44 161.7 559.77 161.7 557.11 161.7 554.44 161.7 551.77 161.7 549.11 161.7 549.11 164.37 551.77 164.37 551.77 167.03 549.11 167.03 546.44 167.03 543.77 167.03 543.77 169.7 546.44 169.7 549.11 169.7 551.77 169.7 551.77 172.37 554.44 172.37 557.11 172.37 557.11 175.03 559.77 175.03 562.44 175.03 565.11 175.03 567.77 175.03 570.44 175.03 570.44 172.37 567.77 172.37"/><polygon class="cls-1" points="509.11 175.03 506.44 175.03 503.77 175.03 503.77 177.7 506.44 177.7 506.44 180.37 509.11 180.37 511.77 180.37 514.44 180.37 517.11 180.37 517.11 177.7 514.44 177.7 511.77 177.7 511.77 175.03 509.11 175.03"/><path class="cls-1" d="M637.1,177.7h2.67v2.67h5.33V183h10.67v2.67h16v2.67H685.1V191h8v2.67h10.67V191H701.1v-2.67h2.67v-8h2.67V177.7h2.67v-8h2.67V167h2.67V161.7h2.67v-8h2.67V151h2.67v-8h-2.67v2.67H717.1V151h-2.67v5.33h-2.67v5.33H709.1V167h-5.33v2.67h-8v2.67H682.44V169.7h-2.67V167h-5.33V161.7h-2.67v-8h2.67V151h2.67V145.7h2.67V143h2.67V137.7h2.67v-5.33h2.67V129.7h2.67V127h2.67v-2.67h2.67V119h2.67V113.7h2.67V111h2.67V105.7h2.67V103h2.67V97.7h2.67V95h2.67V89.7h-2.67v2.67H709.1V95h-2.67V97.7h-2.67V103H701.1v2.67h-2.67v2.67h-2.67v5.33H693.1v2.67h-2.67v5.33h-2.67v2.67H685.1v5.33h-2.67v2.67h-2.67v5.33h-5.33V143h-2.67v2.67H669.1V151h-2.67v2.67H661.1v-5.33h2.67V145.7h2.67V143h-2.67v-2.67h-8v8H653.1V137.7h-2.67v2.67h-2.67V137.7H637.1V135h-8v5.33h-2.67V137.7h-2.67v2.67H621.1V143h8v2.67h-2.67V151h8v-2.67h2.67V151h10.67v5.33h2.67V151h2.67v5.33h8V159h2.67v2.67h2.67v2.67h2.67V167h2.67v2.67h2.67v10.67H653.1V175h2.67V169.7h5.33v-8h-2.67v2.67h-2.67V167H653.1v5.33h-2.67V175h-2.67v2.67H645.1V175H634.44v2.67Zm42.67,2.67V177.7h5.33v2.67h5.33V183H679.77Z"/><polygon class="cls-1" points="519.77 183.03 522.44 183.03 522.44 185.7 525.11 185.7 525.11 183.03 525.11 180.37 522.44 180.37 519.77 180.37 517.11 180.37 517.11 183.03 519.77 183.03"/><polygon class="cls-1" points="607.77 180.37 605.11 180.37 602.44 180.37 599.77 180.37 599.77 183.03 597.11 183.03 597.11 185.7 599.77 185.7 602.44 185.7 605.11 185.7 607.77 185.7 610.44 185.7 613.11 185.7 613.11 183.03 610.44 183.03 610.44 180.37 607.77 180.37"/><polygon class="cls-1" points="490.44 188.37 490.44 185.7 490.44 183.03 487.77 183.03 487.77 180.37 485.11 180.37 482.44 180.37 479.77 180.37 477.11 180.37 474.44 180.37 471.77 180.37 469.11 180.37 466.44 180.37 466.44 177.7 463.77 177.7 463.77 180.37 463.77 183.03 463.77 185.7 466.44 185.7 466.44 183.03 469.11 183.03 469.11 185.7 471.77 185.7 474.44 185.7 477.11 185.7 479.77 185.7 482.44 185.7 485.11 185.7 487.77 185.7 487.77 188.37 490.44 188.37"/><polygon class="cls-1" points="610.44 191.03 613.11 191.03 615.77 191.03 618.44 191.03 621.11 191.03 623.77 191.03 623.77 193.7 626.44 193.7 629.11 193.7 631.77 193.7 634.44 193.7 637.11 193.7 639.77 193.7 642.44 193.7 642.44 196.37 645.11 196.37 647.77 196.37 647.77 199.03 647.77 201.7 650.44 201.7 653.11 201.7 653.11 199.03 655.77 199.03 658.44 199.03 661.11 199.03 661.11 201.7 663.77 201.7 666.44 201.7 666.44 204.37 669.11 204.37 671.77 204.37 671.77 207.03 674.44 207.03 677.11 207.03 679.77 207.03 679.77 209.7 682.44 209.7 685.11 209.7 687.77 209.7 690.44 209.7 693.11 209.7 693.11 207.03 690.44 207.03 687.77 207.03 687.77 204.37 685.11 204.37 682.44 204.37 679.77 204.37 677.11 204.37 674.44 204.37 674.44 201.7 671.77 201.7 671.77 199.03 669.11 199.03 666.44 199.03 663.77 199.03 663.77 196.37 661.11 196.37 658.44 196.37 655.77 196.37 655.77 193.7 653.11 193.7 650.44 193.7 647.77 193.7 645.11 193.7 645.11 191.03 642.44 191.03 642.44 188.37 639.77 188.37 639.77 191.03 637.11 191.03 634.44 191.03 634.44 188.37 631.77 188.37 629.11 188.37 626.44 188.37 623.77 188.37 621.11 188.37 618.44 188.37 615.77 188.37 613.11 188.37 610.44 188.37 607.77 188.37 605.11 188.37 605.11 191.03 607.77 191.03 610.44 191.03"/><polygon class="cls-1" points="706.44 196.37 709.11 196.37 709.11 199.03 711.77 199.03 714.44 199.03 717.11 199.03 719.77 199.03 722.44 199.03 725.11 199.03 725.11 196.37 722.44 196.37 719.77 196.37 717.11 196.37 717.11 193.7 714.44 193.7 711.77 193.7 709.11 193.7 706.44 193.7 703.77 193.7 703.77 196.37 706.44 196.37"/><polygon class="cls-1" points="730.44 199.03 727.77 199.03 727.77 201.7 730.44 201.7 733.11 201.7 733.11 199.03 730.44 199.03"/><rect class="cls-1" x="365.1" y="201.7" width="2.67" height="2.67"/><rect class="cls-1" x="733.1" y="201.7" width="2.67" height="2.67"/><rect class="cls-1" x="250.44" y="204.37" width="2.67" height="2.67"/><polygon class="cls-1" points="741.11 212.37 741.11 209.7 741.11 207.03 738.44 207.03 735.77 207.03 735.77 209.7 735.77 212.37 738.44 212.37 741.11 212.37"/><polygon class="cls-1" points="226.44 212.37 226.44 215.03 229.1 215.03 231.77 215.03 231.77 212.37 229.1 212.37 226.44 212.37"/><polygon class="cls-1" points="242.44 212.37 242.44 209.7 239.77 209.7 237.1 209.7 237.1 212.37 237.1 215.03 239.77 215.03 242.44 215.03 245.1 215.03 245.1 212.37 242.44 212.37"/><polygon class="cls-1" points="210.44 217.7 210.44 220.37 213.1 220.37 215.77 220.37 215.77 217.7 213.1 217.7 210.44 217.7"/><rect class="cls-1" x="207.77" y="220.37" width="2.67" height="2.67"/><polygon class="cls-1" points="82.44 225.7 85.11 225.7 87.77 225.7 87.77 228.37 90.44 228.37 93.11 228.37 95.77 228.37 95.77 231.03 98.44 231.03 101.11 231.03 103.77 231.03 106.44 231.03 109.11 231.03 111.77 231.03 114.44 231.03 114.44 233.7 114.44 236.37 111.77 236.37 109.11 236.37 106.44 236.37 103.77 236.37 101.11 236.37 98.44 236.37 98.44 239.03 95.77 239.03 95.77 241.7 98.44 241.7 101.11 241.7 103.77 241.7 103.77 239.03 106.44 239.03 109.11 239.03 111.77 239.03 114.44 239.03 117.11 239.03 119.77 239.03 122.44 239.03 122.44 241.7 125.11 241.7 127.77 241.7 130.44 241.7 133.1 241.7 133.1 239.03 135.77 239.03 138.44 239.03 141.1 239.03 143.77 239.03 146.44 239.03 149.1 239.03 151.77 239.03 154.44 239.03 157.1 239.03 159.77 239.03 162.44 239.03 165.1 239.03 167.77 239.03 170.44 239.03 173.1 239.03 175.77 239.03 178.44 239.03 181.1 239.03 183.77 239.03 183.77 241.7 186.44 241.7 189.1 241.7 189.1 239.03 191.77 239.03 191.77 236.37 191.77 233.7 194.44 233.7 194.44 231.03 194.44 228.37 197.1 228.37 197.1 225.7 199.77 225.7 202.44 225.7 202.44 228.37 205.1 228.37 205.1 231.03 207.77 231.03 210.44 231.03 213.1 231.03 213.1 233.7 215.77 233.7 215.77 236.37 218.44 236.37 221.1 236.37 223.77 236.37 226.44 236.37 229.1 236.37 231.77 236.37 231.77 233.7 231.77 231.03 231.77 228.37 231.77 225.7 231.77 223.03 229.1 223.03 226.44 223.03 223.77 223.03 221.1 223.03 221.1 225.7 218.44 225.7 215.77 225.7 213.1 225.7 210.44 225.7 207.77 225.7 205.1 225.7 205.1 223.03 202.44 223.03 199.77 223.03 197.1 223.03 194.44 223.03 194.44 225.7 191.77 225.7 189.1 225.7 186.44 225.7 183.77 225.7 181.1 225.7 178.44 225.7 175.77 225.7 173.1 225.7 170.44 225.7 167.77 225.7 165.1 225.7 162.44 225.7 162.44 228.37 159.77 228.37 157.1 228.37 154.44 228.37 151.77 228.37 149.1 228.37 146.44 228.37 146.44 231.03 143.77 231.03 141.1 231.03 138.44 231.03 135.77 231.03 133.1 231.03 130.44 231.03 127.77 231.03 125.11 231.03 122.44 231.03 122.44 228.37 119.77 228.37 117.11 228.37 114.44 228.37 111.77 228.37 111.77 225.7 109.11 225.7 106.44 225.7 103.77 225.7 101.11 225.7 98.44 225.7 95.77 225.7 93.11 225.7 90.44 225.7 90.44 223.03 87.77 223.03 85.11 223.03 82.44 223.03 79.77 223.03 77.11 223.03 74.44 223.03 74.44 220.37 71.77 220.37 69.11 220.37 66.44 220.37 63.77 220.37 61.1 220.37 58.44 220.37 58.44 217.7 55.77 217.7 55.77 220.37 53.1 220.37 53.1 223.03 55.77 223.03 58.44 223.03 61.1 223.03 63.77 223.03 66.44 223.03 69.11 223.03 71.77 223.03 71.77 225.7 74.44 225.7 77.11 225.7 79.77 225.7 82.44 225.7"/><rect class="cls-1" x="802.44" y="223.03" width="2.67" height="2.67"/><polygon class="cls-1" points="802.44 228.37 802.44 225.7 799.77 225.7 797.11 225.7 797.11 228.37 799.77 228.37 802.44 228.37"/><rect class="cls-1" x="794.44" y="228.37" width="2.67" height="2.67"/><path class="cls-1" d="M306.44,231h2.67V225.7h2.67V223h2.67v-2.67h2.67V215h2.67v-2.67H317.1V209.7h-8V207h-2.67v5.33h-2.67v8h-5.33V217.7H285.1v2.67h-5.33v5.33H277.1v10.67h-2.67V239h13.33v2.67h16v-5.33h2.67V231Zm5.33-18.67h2.67V215h-2.67v2.67H309.1v-5.33Z"/><polygon class="cls-1" points="263.77 236.37 261.11 236.37 261.11 233.7 261.11 231.03 258.44 231.03 258.44 228.37 258.44 225.7 255.77 225.7 255.77 223.03 253.1 223.03 253.1 220.37 250.44 220.37 250.44 217.7 247.77 217.7 247.77 215.03 245.1 215.03 245.1 217.7 245.1 220.37 245.1 223.03 247.77 223.03 247.77 225.7 245.1 225.7 245.1 223.03 242.44 223.03 239.77 223.03 239.77 220.37 237.1 220.37 237.1 223.03 234.44 223.03 234.44 225.7 234.44 228.37 234.44 231.03 237.1 231.03 237.1 233.7 237.1 236.37 239.77 236.37 242.44 236.37 242.44 239.03 245.1 239.03 247.77 239.03 250.44 239.03 253.1 239.03 255.77 239.03 258.44 239.03 261.11 239.03 263.77 239.03 263.77 236.37"/><polygon class="cls-1" points="362.44 239.03 359.77 239.03 357.11 239.03 354.44 239.03 351.77 239.03 351.77 241.7 354.44 241.7 357.11 241.7 359.77 241.7 362.44 241.7 365.11 241.7 367.77 241.7 367.77 239.03 365.11 239.03 362.44 239.03"/><polygon class="cls-1" points="282.44 244.37 282.44 247.03 279.77 247.03 279.77 249.7 282.44 249.7 285.11 249.7 287.77 249.7 287.77 247.03 285.11 247.03 285.11 244.37 282.44 244.37"/><polygon class="cls-1" points="781.11 247.03 781.11 244.37 783.77 244.37 783.77 241.7 786.44 241.7 786.44 239.03 789.11 239.03 789.11 236.37 791.77 236.37 794.44 236.37 794.44 233.7 794.44 231.03 791.77 231.03 789.11 231.03 789.11 233.7 786.44 233.7 783.77 233.7 781.11 233.7 778.44 233.7 775.77 233.7 775.77 231.03 773.11 231.03 770.44 231.03 767.77 231.03 765.11 231.03 762.44 231.03 762.44 233.7 762.44 236.37 765.11 236.37 767.77 236.37 770.44 236.37 773.11 236.37 775.77 236.37 778.44 236.37 781.11 236.37 781.11 239.03 781.11 241.7 778.44 241.7 778.44 244.37 775.77 244.37 775.77 247.03 778.44 247.03 781.11 247.03"/><rect class="cls-1" x="82.44" y="247.03" width="2.67" height="2.67"/><polygon class="cls-1" points="463.77 249.7 466.44 249.7 466.44 247.03 463.77 247.03 461.11 247.03 458.44 247.03 458.44 249.7 461.11 249.7 463.77 249.7"/><polygon class="cls-1" points="229.1 255.03 229.1 252.37 226.44 252.37 226.44 249.7 223.77 249.7 221.1 249.7 218.44 249.7 218.44 252.37 218.44 255.03 221.1 255.03 223.77 255.03 226.44 255.03 229.1 255.03"/><polygon class="cls-1" points="402.44 252.37 399.77 252.37 397.11 252.37 394.44 252.37 391.77 252.37 389.11 252.37 386.44 252.37 383.77 252.37 383.77 255.03 383.77 257.7 386.44 257.7 389.11 257.7 389.11 255.03 391.77 255.03 394.44 255.03 397.11 255.03 399.77 255.03 402.44 255.03 405.11 255.03 407.77 255.03 407.77 252.37 405.11 252.37 402.44 252.37"/><polygon class="cls-1" points="415.77 252.37 413.11 252.37 413.11 255.03 415.77 255.03 418.44 255.03 421.11 255.03 421.11 252.37 418.44 252.37 415.77 252.37"/><polygon class="cls-1" points="770.44 255.03 770.44 252.37 773.11 252.37 773.11 249.7 775.77 249.7 775.77 247.03 773.11 247.03 770.44 247.03 770.44 249.7 767.77 249.7 767.77 252.37 765.11 252.37 765.11 255.03 767.77 255.03 770.44 255.03"/><polygon class="cls-1" points="82.44 255.03 82.44 252.37 79.77 252.37 79.77 255.03 79.77 257.7 79.77 260.37 82.44 260.37 82.44 257.7 82.44 255.03"/><polygon class="cls-1" points="343.77 255.03 343.77 257.7 343.77 260.37 346.44 260.37 349.11 260.37 349.11 257.7 349.11 255.03 349.11 252.37 349.11 249.7 346.44 249.7 343.77 249.7 343.77 252.37 346.44 252.37 346.44 255.03 343.77 255.03"/><rect class="cls-1" x="95.77" y="257.7" width="2.67" height="2.67"/><polygon class="cls-1" points="341.11 260.37 341.11 257.7 338.44 257.7 335.77 257.7 335.77 260.37 338.44 260.37 341.11 260.37"/><polygon class="cls-1" points="762.44 257.7 765.11 257.7 765.11 255.03 762.44 255.03 759.77 255.03 759.77 257.7 759.77 260.37 762.44 260.37 762.44 257.7"/><polygon class="cls-1" points="85.11 260.37 82.44 260.37 82.44 263.03 82.44 265.7 85.11 265.7 85.11 263.03 85.11 260.37"/><polygon class="cls-1" points="151.77 260.37 151.77 263.03 154.44 263.03 157.1 263.03 157.1 260.37 154.44 260.37 151.77 260.37"/><polygon class="cls-1" points="165.1 260.37 165.1 263.03 165.1 265.7 167.77 265.7 167.77 263.03 170.44 263.03 170.44 260.37 167.77 260.37 165.1 260.37"/><polygon class="cls-1" points="543.77 260.37 541.11 260.37 538.44 260.37 535.77 260.37 533.11 260.37 533.11 263.03 535.77 263.03 538.44 263.03 541.11 263.03 541.11 265.7 543.77 265.7 546.44 265.7 549.11 265.7 551.77 265.7 551.77 263.03 549.11 263.03 546.44 263.03 546.44 260.37 543.77 260.37"/><rect class="cls-1" x="757.1" y="260.37" width="2.67" height="2.67"/><rect class="cls-1" x="178.44" y="263.03" width="2.67" height="2.67"/><polygon class="cls-1" points="455.77 263.03 455.77 260.37 458.44 260.37 461.11 260.37 463.77 260.37 463.77 257.7 461.11 257.7 458.44 257.7 455.77 257.7 455.77 255.03 453.11 255.03 450.44 255.03 447.77 255.03 445.11 255.03 442.44 255.03 442.44 257.7 445.11 257.7 445.11 260.37 447.77 260.37 450.44 260.37 453.11 260.37 453.11 263.03 453.11 265.7 455.77 265.7 458.44 265.7 458.44 263.03 455.77 263.03"/><polygon class="cls-1" points="231.77 268.37 231.77 271.03 231.77 273.7 234.44 273.7 237.1 273.7 237.1 271.03 237.1 268.37 237.1 265.7 237.1 263.03 234.44 263.03 234.44 265.7 231.77 265.7 231.77 268.37"/><polygon class="cls-1" points="333.11 268.37 335.77 268.37 335.77 271.03 338.44 271.03 338.44 273.7 341.11 273.7 343.77 273.7 346.44 273.7 346.44 276.37 349.11 276.37 349.11 279.03 351.77 279.03 354.44 279.03 354.44 281.7 357.11 281.7 357.11 284.37 359.77 284.37 362.44 284.37 365.11 284.37 365.11 281.7 362.44 281.7 359.77 281.7 359.77 279.03 357.11 279.03 357.11 276.37 354.44 276.37 354.44 273.7 351.77 273.7 349.11 273.7 349.11 271.03 346.44 271.03 346.44 268.37 343.77 268.37 341.11 268.37 341.11 265.7 338.44 265.7 335.77 265.7 335.77 263.03 335.77 260.37 333.11 260.37 330.44 260.37 330.44 263.03 327.77 263.03 327.77 265.7 327.77 268.37 330.44 268.37 333.11 268.37"/><polygon class="cls-1" points="426.44 265.7 426.44 268.37 429.11 268.37 431.77 268.37 431.77 265.7 429.11 265.7 426.44 265.7"/><rect class="cls-1" x="511.77" y="265.7" width="2.67" height="2.67"/><polygon class="cls-1" points="562.44 268.37 565.11 268.37 565.11 265.7 562.44 265.7 559.77 265.7 557.11 265.7 557.11 268.37 559.77 268.37 562.44 268.37"/><path class="cls-1" d="M770.44,265.7v2.67H765.1V281.7h-2.67v2.67h2.67V287h16v2.67h2.67V287h5.33V271H778.44v8h-2.67V268.37H773.1V265.7Zm16,13.33h-2.67v-2.67h2.67Z"/><polygon class="cls-1" points="469.11 268.37 466.44 268.37 463.77 268.37 463.77 265.7 461.11 265.7 458.44 265.7 458.44 268.37 458.44 271.03 461.11 271.03 461.11 273.7 463.77 273.7 466.44 273.7 469.11 273.7 469.11 271.03 469.11 268.37"/><polygon class="cls-1" points="218.44 273.7 221.1 273.7 223.77 273.7 223.77 271.03 226.44 271.03 226.44 268.37 226.44 265.7 226.44 263.03 226.44 260.37 223.77 260.37 223.77 263.03 223.77 265.7 221.1 265.7 221.1 268.37 218.44 268.37 218.44 265.7 218.44 263.03 218.44 260.37 215.77 260.37 213.1 260.37 213.1 263.03 213.1 265.7 213.1 268.37 213.1 271.03 215.77 271.03 215.77 273.7 218.44 273.7"/><polygon class="cls-1" points="594.44 273.7 594.44 271.03 597.11 271.03 597.11 273.7 599.77 273.7 602.44 273.7 605.11 273.7 607.77 273.7 610.44 273.7 613.11 273.7 615.77 273.7 618.44 273.7 621.11 273.7 623.77 273.7 626.44 273.7 629.11 273.7 631.77 273.7 634.44 273.7 637.11 273.7 639.77 273.7 642.44 273.7 645.11 273.7 647.77 273.7 650.44 273.7 653.11 273.7 655.77 273.7 658.44 273.7 661.11 273.7 663.77 273.7 666.44 273.7 666.44 271.03 663.77 271.03 661.11 271.03 658.44 271.03 655.77 271.03 653.11 271.03 650.44 271.03 647.77 271.03 645.11 271.03 642.44 271.03 639.77 271.03 637.11 271.03 634.44 271.03 631.77 271.03 629.11 271.03 626.44 271.03 623.77 271.03 621.11 271.03 618.44 271.03 615.77 271.03 615.77 268.37 613.11 268.37 610.44 268.37 607.77 268.37 605.11 268.37 602.44 268.37 599.77 268.37 597.11 268.37 594.44 268.37 591.77 268.37 589.11 268.37 586.44 268.37 583.77 268.37 581.11 268.37 578.44 268.37 575.77 268.37 573.11 268.37 573.11 271.03 575.77 271.03 578.44 271.03 578.44 273.7 581.11 273.7 583.77 273.7 586.44 273.7 589.11 273.7 591.77 273.7 594.44 273.7"/><polygon class="cls-1" points="277.11 273.7 277.11 271.03 279.77 271.03 279.77 268.37 277.11 268.37 274.44 268.37 274.44 271.03 274.44 273.7 274.44 276.37 277.11 276.37 277.11 273.7"/><polygon class="cls-1" points="690.44 273.7 687.77 273.7 685.11 273.7 685.11 276.37 687.77 276.37 690.44 276.37 693.11 276.37 695.77 276.37 695.77 273.7 693.11 273.7 690.44 273.7"/><polygon class="cls-1" points="250.44 279.03 250.44 276.37 250.44 273.7 253.1 273.7 253.1 271.03 253.1 268.37 253.1 265.7 253.1 263.03 250.44 263.03 250.44 265.7 247.77 265.7 247.77 268.37 245.1 268.37 245.1 271.03 245.1 273.7 245.1 276.37 247.77 276.37 247.77 279.03 250.44 279.03"/><polygon class="cls-1" points="554.44 276.37 551.77 276.37 551.77 279.03 554.44 279.03 557.11 279.03 557.11 276.37 554.44 276.37"/><rect class="cls-1" x="261.1" y="281.7" width="2.67" height="2.67"/><polygon class="cls-1" points="274.44 281.7 274.44 279.03 274.44 276.37 271.77 276.37 271.77 279.03 271.77 281.7 269.11 281.7 269.11 284.37 271.77 284.37 271.77 287.03 274.44 287.03 274.44 284.37 274.44 281.7"/><polygon class="cls-1" points="527.77 281.7 525.11 281.7 522.44 281.7 522.44 279.03 519.77 279.03 517.11 279.03 514.44 279.03 511.77 279.03 509.11 279.03 506.44 279.03 503.77 279.03 501.11 279.03 498.44 279.03 495.77 279.03 493.11 279.03 490.44 279.03 487.77 279.03 485.11 279.03 482.44 279.03 479.77 279.03 479.77 276.37 477.11 276.37 477.11 273.7 474.44 273.7 471.77 273.7 469.11 273.7 469.11 276.37 469.11 279.03 471.77 279.03 474.44 279.03 477.11 279.03 477.11 281.7 477.11 284.37 479.77 284.37 482.44 284.37 482.44 287.03 485.11 287.03 487.77 287.03 487.77 289.7 490.44 289.7 490.44 292.37 493.11 292.37 495.77 292.37 498.44 292.37 498.44 289.7 498.44 287.03 495.77 287.03 495.77 284.37 493.11 284.37 490.44 284.37 487.77 284.37 487.77 281.7 490.44 281.7 493.11 281.7 495.77 281.7 498.44 281.7 498.44 284.37 501.11 284.37 503.77 284.37 506.44 284.37 509.11 284.37 511.77 284.37 514.44 284.37 517.11 284.37 519.77 284.37 522.44 284.37 525.11 284.37 527.77 284.37 530.44 284.37 530.44 281.7 527.77 281.7"/><polygon class="cls-1" points="618.44 284.37 621.11 284.37 623.77 284.37 626.44 284.37 629.11 284.37 631.77 284.37 634.44 284.37 634.44 281.7 631.77 281.7 629.11 281.7 626.44 281.7 623.77 281.7 623.77 279.03 621.11 279.03 618.44 279.03 615.77 279.03 613.11 279.03 610.44 279.03 607.77 279.03 607.77 281.7 610.44 281.7 613.11 281.7 615.77 281.7 615.77 284.37 618.44 284.37"/><polygon class="cls-1" points="799.77 284.37 802.44 284.37 802.44 281.7 799.77 281.7 797.11 281.7 794.44 281.7 794.44 284.37 797.11 284.37 799.77 284.37"/><rect class="cls-1" x="365.1" y="284.37" width="2.67" height="2.67"/><polygon class="cls-1" points="538.44 284.37 535.77 284.37 533.11 284.37 530.44 284.37 530.44 287.03 533.11 287.03 535.77 287.03 538.44 287.03 541.11 287.03 541.11 284.37 538.44 284.37"/><polygon class="cls-1" points="647.77 284.37 645.11 284.37 642.44 284.37 639.77 284.37 637.11 284.37 637.11 287.03 639.77 287.03 642.44 287.03 645.11 287.03 647.77 287.03 650.44 287.03 653.11 287.03 653.11 284.37 650.44 284.37 647.77 284.37"/><rect class="cls-1" x="266.44" y="287.03" width="2.67" height="2.67"/><polygon class="cls-1" points="669.11 287.03 666.44 287.03 663.77 287.03 663.77 289.7 663.77 292.37 666.44 292.37 669.11 292.37 671.77 292.37 674.44 292.37 677.11 292.37 677.11 295.03 679.77 295.03 679.77 292.37 682.44 292.37 685.11 292.37 685.11 289.7 682.44 289.7 679.77 289.7 677.11 289.7 674.44 289.7 671.77 289.7 671.77 287.03 669.11 287.03"/><polygon class="cls-1" points="274.44 292.37 277.11 292.37 277.11 289.7 277.11 287.03 274.44 287.03 274.44 289.7 274.44 292.37"/><polygon class="cls-1" points="575.77 289.7 575.77 287.03 578.44 287.03 581.11 287.03 583.77 287.03 586.44 287.03 589.11 287.03 589.11 284.37 586.44 284.37 583.77 284.37 581.11 284.37 578.44 284.37 578.44 281.7 575.77 281.7 573.11 281.7 573.11 279.03 570.44 279.03 567.77 279.03 565.11 279.03 562.44 279.03 559.77 279.03 557.11 279.03 557.11 281.7 559.77 281.7 562.44 281.7 565.11 281.7 567.77 281.7 567.77 284.37 570.44 284.37 573.11 284.37 573.11 287.03 573.11 289.7 573.11 292.37 575.77 292.37 575.77 289.7"/><polygon class="cls-1" points="570.44 292.37 567.77 292.37 565.11 292.37 562.44 292.37 559.77 292.37 559.77 289.7 557.11 289.7 554.44 289.7 551.77 289.7 551.77 287.03 549.11 287.03 546.44 287.03 543.77 287.03 541.11 287.03 541.11 289.7 541.11 292.37 543.77 292.37 543.77 295.03 541.11 295.03 538.44 295.03 535.77 295.03 533.11 295.03 530.44 295.03 527.77 295.03 525.11 295.03 522.44 295.03 519.77 295.03 519.77 297.7 522.44 297.7 525.11 297.7 527.77 297.7 530.44 297.7 533.11 297.7 535.77 297.7 538.44 297.7 538.44 300.37 541.11 300.37 543.77 300.37 543.77 297.7 546.44 297.7 549.11 297.7 551.77 297.7 554.44 297.7 557.11 297.7 557.11 300.37 559.77 300.37 562.44 300.37 562.44 303.03 559.77 303.03 557.11 303.03 557.11 305.7 559.77 305.7 562.44 305.7 565.11 305.7 567.77 305.7 567.77 303.03 570.44 303.03 573.11 303.03 573.11 300.37 573.11 297.7 575.77 297.7 575.77 295.03 573.11 295.03 573.11 292.37 570.44 292.37"/><polygon class="cls-1" points="698.44 292.37 695.77 292.37 695.77 295.03 698.44 295.03 698.44 297.7 701.11 297.7 703.77 297.7 706.44 297.7 709.11 297.7 711.77 297.7 711.77 295.03 709.11 295.03 706.44 295.03 703.77 295.03 701.11 295.03 701.11 292.37 698.44 292.37"/><polygon class="cls-1" points="807.77 292.37 805.11 292.37 805.11 295.03 807.77 295.03 810.44 295.03 810.44 292.37 807.77 292.37"/><polygon class="cls-1" points="583.77 297.7 581.11 297.7 581.11 300.37 583.77 300.37 586.44 300.37 586.44 297.7 583.77 297.7"/><rect class="cls-1" x="714.44" y="297.7" width="2.67" height="2.67"/><polygon class="cls-1" points="546.44 303.03 549.11 303.03 551.77 303.03 551.77 300.37 549.11 300.37 546.44 300.37 543.77 300.37 543.77 303.03 546.44 303.03"/><polygon class="cls-1" points="589.11 303.03 591.77 303.03 591.77 300.37 589.11 300.37 586.44 300.37 586.44 303.03 589.11 303.03"/><polygon class="cls-1" points="733.11 303.03 733.11 300.37 730.44 300.37 727.77 300.37 727.77 303.03 730.44 303.03 733.11 303.03"/><polygon class="cls-1" points="597.11 303.03 597.11 305.7 599.77 305.7 602.44 305.7 602.44 303.03 599.77 303.03 597.11 303.03"/><polygon class="cls-1" points="623.77 303.03 623.77 305.7 623.77 308.37 623.77 311.03 621.11 311.03 621.11 313.7 623.77 313.7 623.77 316.37 626.44 316.37 626.44 319.03 629.11 319.03 629.11 316.37 629.11 313.7 629.11 311.03 629.11 308.37 629.11 305.7 629.11 303.03 626.44 303.03 623.77 303.03"/><rect class="cls-1" x="706.44" y="303.03" width="2.67" height="2.67"/><polygon class="cls-1" points="746.44 305.7 749.11 305.7 751.77 305.7 751.77 303.03 749.11 303.03 746.44 303.03 743.77 303.03 741.11 303.03 741.11 305.7 743.77 305.7 746.44 305.7"/><rect class="cls-1" x="607.77" y="305.7" width="2.67" height="2.67"/><polygon class="cls-1" points="759.77 305.7 759.77 308.37 762.44 308.37 765.11 308.37 765.11 311.03 767.77 311.03 770.44 311.03 773.11 311.03 775.77 311.03 778.44 311.03 778.44 308.37 775.77 308.37 773.11 308.37 773.11 305.7 770.44 305.7 767.77 305.7 765.11 305.7 762.44 305.7 759.77 305.7"/><rect class="cls-1" x="610.44" y="308.37" width="2.67" height="2.67"/><rect class="cls-1" x="333.1" y="311.03" width="2.67" height="2.67"/><polygon class="cls-1" points="351.77 313.7 354.44 313.7 357.11 313.7 359.77 313.7 359.77 316.37 362.44 316.37 365.11 316.37 367.77 316.37 370.44 316.37 373.11 316.37 375.77 316.37 375.77 313.7 373.11 313.7 370.44 313.7 367.77 313.7 365.11 313.7 365.11 311.03 362.44 311.03 359.77 311.03 357.11 311.03 354.44 311.03 351.77 311.03 349.11 311.03 346.44 311.03 346.44 313.7 349.11 313.7 351.77 313.7"/><polygon class="cls-1" points="655.77 316.37 655.77 313.7 655.77 311.03 653.11 311.03 650.44 311.03 650.44 313.7 653.11 313.7 653.11 316.37 655.77 316.37"/><polygon class="cls-1" points="797.11 316.37 797.11 313.7 797.11 311.03 794.44 311.03 791.77 311.03 789.11 311.03 786.44 311.03 786.44 313.7 789.11 313.7 791.77 313.7 794.44 313.7 794.44 316.37 797.11 316.37"/><polygon class="cls-1" points="650.44 319.03 650.44 316.37 647.77 316.37 647.77 319.03 647.77 321.7 650.44 321.7 650.44 319.03"/><rect class="cls-1" x="631.77" y="327.03" width="2.67" height="2.67"/><polygon class="cls-1" points="786.44 335.03 789.11 335.03 791.77 335.03 794.44 335.03 794.44 332.37 791.77 332.37 789.11 332.37 786.44 332.37 786.44 329.7 783.77 329.7 781.11 329.7 778.44 329.7 775.77 329.7 775.77 327.03 773.11 327.03 770.44 327.03 767.77 327.03 765.11 327.03 765.11 324.37 762.44 324.37 759.77 324.37 757.11 324.37 757.11 321.7 754.44 321.7 751.77 321.7 749.11 321.7 746.44 321.7 743.77 321.7 741.11 321.7 741.11 319.03 738.44 319.03 735.77 319.03 733.11 319.03 733.11 316.37 730.44 316.37 727.77 316.37 725.11 316.37 722.44 316.37 719.77 316.37 717.11 316.37 717.11 313.7 714.44 313.7 714.44 311.03 711.77 311.03 709.11 311.03 706.44 311.03 703.77 311.03 701.11 311.03 701.11 308.37 698.44 308.37 698.44 305.7 695.77 305.7 693.11 305.7 690.44 305.7 687.77 305.7 685.11 305.7 682.44 305.7 679.77 305.7 679.77 303.03 677.11 303.03 674.44 303.03 674.44 300.37 671.77 300.37 671.77 303.03 669.11 303.03 666.44 303.03 663.77 303.03 663.77 300.37 661.11 300.37 661.11 297.7 658.44 297.7 655.77 297.7 653.11 297.7 650.44 297.7 650.44 295.03 650.44 292.37 647.77 292.37 647.77 295.03 645.11 295.03 645.11 292.37 642.44 292.37 642.44 289.7 639.77 289.7 637.11 289.7 637.11 292.37 634.44 292.37 631.77 292.37 629.11 292.37 626.44 292.37 623.77 292.37 621.11 292.37 618.44 292.37 615.77 292.37 615.77 289.7 613.11 289.7 610.44 289.7 610.44 287.03 607.77 287.03 605.11 287.03 602.44 287.03 599.77 287.03 597.11 287.03 594.44 287.03 591.77 287.03 591.77 289.7 594.44 289.7 597.11 289.7 597.11 292.37 599.77 292.37 602.44 292.37 605.11 292.37 607.77 292.37 610.44 292.37 610.44 295.03 613.11 295.03 613.11 297.7 615.77 297.7 618.44 297.7 621.11 297.7 623.77 297.7 623.77 300.37 626.44 300.37 629.11 300.37 629.11 303.03 631.77 303.03 634.44 303.03 637.11 303.03 637.11 305.7 639.77 305.7 642.44 305.7 645.11 305.7 647.77 305.7 650.44 305.7 653.11 305.7 653.11 308.37 655.77 308.37 658.44 308.37 661.11 308.37 661.11 311.03 663.77 311.03 666.44 311.03 666.44 313.7 669.11 313.7 671.77 313.7 674.44 313.7 677.11 313.7 677.11 316.37 679.77 316.37 682.44 316.37 685.11 316.37 687.77 316.37 690.44 316.37 693.11 316.37 695.77 316.37 695.77 319.03 698.44 319.03 701.11 319.03 703.77 319.03 703.77 321.7 706.44 321.7 709.11 321.7 711.77 321.7 714.44 321.7 717.11 321.7 719.77 321.7 722.44 321.7 722.44 324.37 725.11 324.37 727.77 324.37 730.44 324.37 730.44 327.03 733.11 327.03 735.77 327.03 738.44 327.03 741.11 327.03 743.77 327.03 746.44 327.03 749.11 327.03 751.77 327.03 754.44 327.03 757.11 327.03 757.11 329.7 759.77 329.7 762.44 329.7 765.11 329.7 767.77 329.7 767.77 332.37 770.44 332.37 773.11 332.37 775.77 332.37 778.44 332.37 778.44 335.03 781.11 335.03 783.77 335.03 786.44 335.03"/><polygon class="cls-1" points="637.11 337.7 639.77 337.7 639.77 335.03 639.77 332.37 637.11 332.37 637.11 329.7 634.44 329.7 634.44 332.37 631.77 332.37 631.77 335.03 634.44 335.03 634.44 337.7 637.11 337.7"/><rect class="cls-1" x="805.1" y="335.03" width="2.67" height="2.67"/><polygon class="cls-1" points="778.44 340.37 778.44 343.03 781.11 343.03 783.77 343.03 783.77 340.37 781.11 340.37 778.44 340.37"/><path class="cls-1" d="M805.1,348.37H794.44V345.7H717.1v2.67h-5.33V351H709.1v2.67h-5.33V359h-5.33v5.33h-2.67V367H677.1v-2.67h-24V361.7H639.77V359h-5.33V353.7h2.67v-5.33h-2.67v-8H629.1V337.7h-8V335H599.77v-2.67h-8V329.7H573.1V327H551.77v-2.67H549.1V321.7h-8V319H530.44v2.67H519.77V319h-16v-2.67H477.1V313.7h-8V311h-16v-2.67h-8V305.7H434.44V303h-8V297.7h-8V295h-2.67v-2.67H413.1V289.7h-2.67V287h-2.67v-2.67h-5.33V279H397.1V273.7h-2.67V271h-2.67v-2.67H389.1V265.7h-2.67V263H381.1v-2.67H370.44V257.7H365.1v2.67h-2.67V263h2.67v2.67h2.67v8h2.67v2.67h2.67V287h-5.33v2.67h5.33v2.67h5.33V305.7h2.67v10.67h-2.67v5.33H343.77V319h-8v-2.67H333.1v8h2.67V327H333.1v-2.67h-2.67v-8h-2.67v-8h2.67V305.7h8V303h-2.67v-2.67h-5.33V303h-2.67v-2.67H325.1V279h2.67V268.37h-5.33v8h-2.67V279H317.1v13.33h-2.67v5.33h-2.67V303H301.1v-2.67H287.77V297.7H266.44V295H255.77v-2.67H242.44V289.7H237.1V287h-16v-8h-5.33v-2.67H205.1V273.7H186.44V279H181.1V268.37h-2.67V279h-8v-2.67h-8V273.7h-16V271h-8v-2.67H117.1V265.7H98.44V263H95.77v2.67H85.1v2.67h2.67V271h2.67v2.67h5.33v2.67h2.67V279h5.33v2.67h5.33v2.67h8V287h8v2.67h8v2.67h10.67V295h2.67v2.67h13.33v2.67h5.33V303h10.67v2.67H189.1v2.67h5.33V311H205.1v2.67h2.67V327h10.67V316.37h5.33V319h5.33v2.67h13.33v2.67h5.33V327h16v2.67h10.67v2.67h8V335h16v2.67h5.33v2.67h18.67V343h5.33v5.33h2.67v5.33h5.33v2.67H349.1V359h29.33v2.67h5.33v2.67h5.33V367h8v2.67h5.33v2.67h8V375h5.33v2.67H429.1v2.67h8V383h5.33v2.67h8v2.67h2.67V391h5.33v2.67h5.33v2.67h8V399h5.33v2.67h13.33v2.67h5.33V407H509.1v2.67h10.67v2.67h10.67V415H549.1v2.67h5.33v2.67h21.33V423H589.1v2.67h34.67v2.67h90.67V425.7h48V423h13.33v-2.67h10.67V417.7h2.67v-5.33h2.67V409.7h2.67v-5.33h16V401.7h-2.67v-16h2.67V348.37H805.1ZM207.77,281.7h5.33v2.67h-5.33ZM429.1,367v-2.67h-2.67V367H415.77v-2.67h-5.33V361.7h-2.67V359h-5.33V353.7H397.1V343h5.33v2.67h32v2.67H453.1V345.7h2.67v10.67h2.67V353.7h2.67v-5.33h8V351h13.33v2.67h13.33v2.67h5.33V353.7h2.67v2.67h5.33v5.33h2.67V359h5.33v-2.67h2.67V359H533.1v2.67h10.67v2.67h18.67V367H573.1v2.67h8v2.67h2.67V369.7h2.67v2.67h2.67v5.33h2.67V391h2.67v2.67h-2.67V391H538.44v-2.67h-8V385.7H517.1V383h-2.67v-2.67h-8V383H501.1v2.67h-2.67V383h-8v-2.67h-2.67V377.7H469.1V375h-5.33v-2.67H453.1V375h-2.67v-2.67H439.77V369.7H429.1Zm170.67,16V377.7h5.33v2.67h2.67V377.7h8V383h-5.33v8H605.1v-2.67h-2.67V385.7h-2.67Zm13.33,8v-2.67h5.33V391h2.67v2.67h-8Zm13.33-2.67V385.7h2.67V391h-2.67ZM205.1,281.7h-8V279h8Z"/><polygon class="cls-1" points="647.77 356.37 647.77 359.03 650.44 359.03 650.44 356.37 650.44 353.7 647.77 353.7 647.77 356.37"/><polygon class="cls-1" points="543.77 388.37 546.44 388.37 549.11 388.37 551.77 388.37 551.77 385.7 549.11 385.7 546.44 385.7 543.77 385.7 541.11 385.7 538.44 385.7 538.44 388.37 541.11 388.37 543.77 388.37"/></svg>