<svg id="Layer_1" data-name="Layer 1" xmlns="http://www.w3.org/2000/svg" viewBox="0 0 110 958.5"><defs><style>.cls-1{fill:none;stroke:lime;stroke-miterlimit:10;stroke-width:3px;}</style></defs><title>Artboard 2 copy 4</title><line class="cls-1" x1="54.5" y1="314.25" x2="10.5" y2="314.25"/><line class="cls-1" x1="55.5" y1="284.25" x2="10.5" y2="284.25"/><line class="cls-1" x1="55.5" y1="254.25" x2="10.5" y2="254.25"/><line class="cls-1" x1="55.5" y1="224.25" x2="10.5" y2="224.25"/><line class="cls-1" x1="55.5" y1="194.25" x2="10.5" y2="194.25"/><line class="cls-1" x1="55.5" y1="134.25" x2="10.5" y2="134.25"/><line class="cls-1" x1="55.5" y1="164.25" x2="10.5" y2="164.25"/><line class="cls-1" x1="55" y1="14.25" x2="10.5" y2="14.25"/><line class="cls-1" x1="55.5" y1="104.25" x2="10.5" y2="104.25"/><line class="cls-1" x1="55.5" y1="74.25" x2="10.5" y2="74.25"/><line class="cls-1" x1="55.5" y1="44.25" x2="10.5" y2="44.25"/><line class="cls-1" x1="54.5" y1="614.25" x2="10.5" y2="614.25"/><line class="cls-1" x1="55.5" y1="584.25" x2="10.5" y2="584.25"/><line class="cls-1" x1="55.5" y1="554.25" x2="10.5" y2="554.25"/><line class="cls-1" x1="55.5" y1="524.25" x2="10.5" y2="524.25"/><line class="cls-1" x1="55.5" y1="494.25" x2="10.5" y2="494.25"/><line class="cls-1" x1="55.5" y1="434.25" x2="10.5" y2="434.25"/><line class="cls-1" x1="55.5" y1="464.25" x2="10.5" y2="464.25"/><line class="cls-1" x1="55.5" y1="404.25" x2="10.5" y2="404.25"/><line class="cls-1" x1="55.5" y1="374.25" x2="10.5" y2="374.25"/><line class="cls-1" x1="55.5" y1="344.25" x2="10.5" y2="344.25"/><line class="cls-1" x1="54.5" y1="644.25" x2="10.5" y2="644.25"/><line class="cls-1" x1="54.5" y1="944.25" x2="10.5" y2="944.25"/><line class="cls-1" x1="55.5" y1="914.25" x2="10.5" y2="914.25"/><line class="cls-1" x1="55.5" y1="884.25" x2="10.5" y2="884.25"/><line class="cls-1" x1="55.5" y1="854.25" x2="10.5" y2="854.25"/><line class="cls-1" x1="55.5" y1="824.25" x2="10.5" y2="824.25"/><line class="cls-1" x1="55.5" y1="764.25" x2="10.5" y2="764.25"/><line class="cls-1" x1="55.5" y1="794.25" x2="10.5" y2="794.25"/><line class="cls-1" x1="55.5" y1="734.25" x2="10.5" y2="734.25"/><line class="cls-1" x1="55.5" y1="704.25" x2="10.5" y2="704.25"/><line class="cls-1" x1="55.5" y1="674.25" x2="10.5" y2="674.25"/></svg>